<?xml version="1.0" encoding="UTF-8"?>
<svg version="1.1" viewBox="0 0 1200 1200" xmlns="http://www.w3.org/2000/svg" xmlns:xlink="http://www.w3.org/1999/xlink">
 <defs>
  <linearGradient id="a">
   <stop stop-color="#1d3300" offset="0"/>
   <stop stop-color="#68a02c" stop-opacity=".23684" offset=".49645"/>
   <stop stop-color="#61a334" stop-opacity="0" offset="1"/>
  </linearGradient>
  <linearGradient id="l" x1="-24.924" x2="-28.859" y1="174.78" y2="272.92" gradientTransform="matrix(3.3212 0 0 3.3499 669.39 -357.41)" gradientUnits="userSpaceOnUse">
   <stop stop-color="#daa238" offset="0"/>
   <stop stop-color="#a3a827" stop-opacity="0" offset="1"/>
  </linearGradient>
  <radialGradient id="r" cx="-44.642" cy="283.91" r="121.72" gradientTransform="matrix(.59419 3.0993 -2.8804 .55223 1419.4 493.87)" gradientUnits="userSpaceOnUse">
   <stop stop-color="#fff44b" offset="0"/>
   <stop stop-color="#d68565" offset=".73759"/>
   <stop stop-color="#c0161b" offset="1"/>
  </radialGradient>
  <radialGradient id="s" cx="204" cy="148.68" r="41.193" gradientTransform="matrix(-5.9594 -.5848 .12062 -1.2294 1736.1 637.7)" gradientUnits="userSpaceOnUse">
   <stop stop-color="#fff" offset="0"/>
   <stop stop-color="#fff" stop-opacity="0" offset="1"/>
  </radialGradient>
  <linearGradient id="n" x1="220.9" x2="225.37" y1="99.834" y2="101.95" gradientTransform="matrix(3.1687 0 0 3.1687 -92.993 -102.18)" gradientUnits="userSpaceOnUse">
   <stop stop-color="#fff" offset="0"/>
   <stop stop-color="#fff" stop-opacity="0" offset="1"/>
  </linearGradient>
  <linearGradient id="o" x1="211.03" x2="243.95" y1="147.26" y2="109.28" gradientTransform="matrix(3.1619 -.2065 .2065 3.1619 -126.21 -59.594)" gradientUnits="userSpaceOnUse">
   <stop offset="0"/>
   <stop stop-opacity="0" offset="1"/>
  </linearGradient>
  <radialGradient id="u" cx="-81.082" cy="44.942" r="44.556" gradientTransform="matrix(-.24446 -3.0331 6.1138 -.48862 288.59 81.063)" gradientUnits="userSpaceOnUse" xlink:href="#a"/>
  <radialGradient id="t" cx="-81.082" cy="44.942" r="44.556" gradientTransform="matrix(-.04627 -3.0425 6.1326 -.089137 318.14 60.938)" gradientUnits="userSpaceOnUse" xlink:href="#a"/>
  <linearGradient id="m" x1="-47.224" x2="-51.159" y1="206.27" y2="295.47" gradientTransform="matrix(3.1687 0 0 3.1687 647.21 -303.4)" gradientUnits="userSpaceOnUse">
   <stop stop-color="#fff" offset="0"/>
   <stop stop-color="#fff" stop-opacity="0" offset="1"/>
  </linearGradient>
  <radialGradient id="p" cx="585.75" cy="814.07" r="361.29" gradientTransform="matrix(1 0 0 .48302 37.335 488.74)" gradientUnits="userSpaceOnUse">
   <stop stop-color="#4d4d4d" offset="0"/>
   <stop stop-color="#4d4d4d" stop-opacity="0" offset="1"/>
  </radialGradient>
  <radialGradient id="q" cx="221.84" cy="315" r="82.43" gradientTransform="matrix(3.1687 0 0 .57201 -86.157 723.94)" gradientUnits="userSpaceOnUse">
   <stop offset="0"/>
   <stop stop-opacity="0" offset="1"/>
  </radialGradient>
 </defs>
 <path d="m1.9196e-14 6.3949e-14h1200v1200h-1200z" color="#000000" color-rendering="auto" fill="#fff" image-rendering="auto" shape-rendering="auto" solid-color="#000000" style="isolation:auto;mix-blend-mode:normal;paint-order:markers stroke fill"/>
 <path d="m984.37 881.95a361.29 174.51 0 1 1 -722.57 0 361.29 174.51 0 1 1 722.57 0z" fill="url(#p)" fill-rule="evenodd" opacity=".67692"/>
 <path d="m877.97 904.13a261.19 47.151 0 1 1 -522.38 0 261.19 47.151 0 1 1 522.38 0z" fill="url(#q)" fill-rule="evenodd"/>
 <path d="m985.69 561.3c-68.056 331.44-205.83 376.12-335.31 370.73-24.988-1.0457-23.869 3.8974-52.128 0.31687-24.639-3.137-67.575-19.075-92.436-17.237-148.85 11.027-291.51-185.3-291.51-372.25 0-210.87 139.54-349.28 358.5-354.32 301.98-6.9077 412.88 161.92 412.88 372.76z" fill="url(#r)"/>
 <path d="m983.88 516.05c-69.905 327.21-209.96 371.49-341.66 366.09-25.542-1.0457-24.459 3.897-53.34 0.31641-25.182-3.137-69.015-19.076-94.424-17.238-94.641 6.876-186.83-66.573-242.98-168.03 6.1225 20.907 13.807 41.356 22.824 61.025 55.386 95.657 142.33 163.51 231.52 156.9 24.861-1.8378 67.798 14.099 92.438 17.236 28.258 3.5806 27.139-1.3621 52.127-0.31641 129.48 5.3867 267.25-39.291 335.31-370.73 0-15.326-0.60398-30.422-1.8066-45.252z" fill="#241f1c" opacity=".47692"/>
 <path d="m593.73 188.34c-6.8687-0.029447-13.84 0.035367-20.918 0.19727-53.144 1.2228-101.61 10.304-144.54 26.369-3.5818 2.0495-7.8081 3.6327-12.309 4.8594-85.567 35.597-147.63 100.05-178.84 185.91 0.20016 10.111 0.94336 20.261 0.94336 28.957v65.893c0 27.469-2.2247 41.705 13.086 57.148 22.817 23.014 17.436-29.514 17.436-48.34 0-28.474 1.5935-41.17 17.402-57.148 19.23-19.362 47.66-29.68 39.225 4.4219-6.277 25.359-5.2154 42.175 4.3496 61.504 10.203 20.568 20.395 27.771 39.213 8.7773 17.715-17.855-4.6368-35.409 21.783-8.7773 17.456 17.62 27.946 36.916 52.283 30.752 23.139-5.8288 16.925-30.752 56.637-30.752 29.774 0 26.731 13.199 52.277 13.199 37.639 0 35.936 2.1772 47.926 26.363 13.125 26.464 24.247 28.842 39.209 43.916 18.809 18.994 28.922 9.2458 39.211 35.174 6.1003 15.376 27.502-20.334 34.852-35.174 11.76-23.717 37.829-38.49 56.637-52.727 12.072-9.1117 25.457 9.4811 47.922-13.164 21.664-21.841 44.291-3.6862 56.639 8.7754 6.5095 6.5658 54.996 0 65.348 0 16.948 0 21.783-30.617 21.783-48.338 0-19.027-9.9432-42.041-17.426-57.115-9.3491-18.86-13.158-44.118-21.783-61.537-9.4521-19.061-18.568-37.453-26.141-52.729-11.216-22.612-27.295-31.923-39.211-43.949-11.952-12.049-18.991-27.197-29.184-38.141-15.043-8.7415-31.281-16.543-48.766-23.318-1.5368-0.031151-3.1389-0.044922-4.8242-0.044922-20.814 0-46.776-0.8043-60.994-4.3887-23.808-5.9963-31.666-7.2033-52.281-17.588-4.5282-2.2805-7.9535-4.4651-10.959-6.4805-17.844-1.5717-36.493-2.4262-55.988-2.5098z" fill="url(#l)"/>
 <path d="m339.62 449.95c-7.7188 9.1574-16.978 35.964-12.478 54.026 7.8931 31.528 4.9621 31.782 29.107 49.875 15.488 11.629 14.734 28.169 33.252 37.422 7.703 3.8341 8.3114-46.326 8.3114-54.026 0-13.087 16.626-20.723 16.626-45.724 0-28.011 0.62106-36.788-12.469-49.875-9.1099-9.1257-56.228 5.862-62.35 8.3019zm166.27-12.485c-11.569-11.566-14.912 48.449-12.472 58.208 7.8456 31.37 24.941 21.325 24.941 58.177 0 29.912 2.8169 31.908 16.626 45.724 13.974 13.974 32.022 11.122 54.035 16.635 23.226 5.7986 38.689 16.635 62.35 16.635 27.041 0 42.229-12.801 66.504-24.937 7.158-3.5806 20.197-45.153 24.941-49.906 10.577-10.552-8.3146-47.942-8.3146-58.177 0-23.797 4.1573-34.443 4.1573-58.177 0-14.734-34.453-29.405-49.878-33.271-17.819-4.4361-49.453 4.1509-70.661 4.1509-22.418 0-39.456 8.3336-62.35 8.3336-27.434 0-26.724 5.0382-49.878 16.604z" fill="url(#m)" fill-rule="evenodd" opacity=".35769"/>
 <path d="m460.56 275.24s63.751 48.291 171.37 37.278c108.19-11.142 129.21-31.849 129.21-31.849 90.378-100.08-431.54-79.675-300.58-5.4289z" fill="url(#t)" fill-rule="evenodd"/>
 <path d="m575.23 199.79s-117.43 37.989-71.98 37.864c87.468-26.564 195.71-6.0987 278.15 40.622-58.429-75.2-120.63-74.343-206.17-78.486z" fill="#fff" fill-rule="evenodd" opacity=".18462"/>
 <path d="m458.2 259.74c-29.873-5.9321-68.574 39.491-33.039 68.135 48.644 33.389 105.4 40.282 160.11 37.853 65.23 2.4294 134.47-6.2711 190.07-51.299 12.529-34.237-17.924-15.424-33.886-8.644-57.829 19.435-119.31 21.356-179.15 20-31.3-4.1807-67.905-11.243-94.078-29.322 5.7071-13.333 4.2803-36.61-10.032-36.723z" fill="url(#s)" fill-rule="evenodd" opacity=".46538"/>
 <path d="m606.14 300.52 18.56-36.713s7.7761-25.34 29.683-37.059c21.941-11.69 40.032-9.8862 40.032-9.8862l24.739 18.516s-34.643-6.3111-69.255 34.054c-34.614 40.334-56.769 55.054-56.769 55.054-6.4319-8.5346-10.059 16.153 13.01-23.967z" fill="url(#o)" fill-rule="evenodd"/>
 <path d="m444.68 285.63s66.734 44.035 173.4 26.05c107.25-18.182 126.9-40.232 126.9-40.232 83.657-105.75-435.85-51.368-300.29 14.182z" fill="url(#u)" fill-rule="evenodd"/>
 <path d="m587.32 313.29 19.265 0.76048c-8.0167 5.4501 15.305-112 50.73-135.42 15.336-10.121-3.8024-39.022-12.104-34.643 0 0-20.501 14.801-22.909 25.647-2.4082 10.846-21.293 55.787-25.761 88.234-4.4678 32.447-8.1118 47.181-9.2208 55.42z" fill="#372a07" fill-rule="evenodd"/>
 <path d="m645.72 145.63c-0.41193 0.29785-4.7847 3.4887-9.7912 8.1656-5.2283 4.8924-10.393 11.325-11.217 15.035-1.4259 6.3183-6.6542 19.896-12.199 36.468-5.5768 16.585-11.439 35.755-13.625 51.567-4.1826 30.292-7.89 47.15-9.1891 55.356l8.3653 0.44361c-0.031687-3.1053 2.4716-11.027 3.2637-16.192 1.6477-10.837 4.8797-25.888 9.5377-41.826 4.6579-15.97 10.71-32.796 17.903-47.295 7.1612-14.49 15.431-26.639 25.318-33.166 2.8518-1.898 3.9291-4.2935 4.1193-7.5287 0.19012-3.2352 0-8.9736-1.7744-12.542-1.7428-3.5647-5.0382-5.035-7.2245-6.8538-1.109-0.91257-2.1547-1.4608-2.7884-1.654-0.60204-0.19012-0.66542 0-0.6971 0.022181z" fill="#db9b1e" fill-opacity=".41102" fill-rule="evenodd"/>
 <path d="m645.34 151.59c-6.1155 4.9685-13.467 9.5091-16.762 16.949-12.928 34.174-12.516 38.857-19.36 58.066-3.8658 15.621-6.5908 31.496-9.7278 47.276-2.3131 12.294-4.5629 24.589-6.8126 36.883 3.9291 2.5349 2.5983-9.6961 4.9114-13.974 5.8303-44.932 16.889-87.623 34.412-125.55 4.0876-7.3164 11.407-11.981 17.586-17.282-0.44361-1.6097-3.2003-1.2199-4.246-2.3638z" fill="url(#n)" fill-rule="evenodd" opacity=".26154"/>
</svg>
