<?xml version="1.0" encoding="UTF-8" standalone="no"?>
<svg
   xmlns:dc="http://purl.org/dc/elements/1.1/"
   xmlns:cc="http://creativecommons.org/ns#"
   xmlns:rdf="http://www.w3.org/1999/02/22-rdf-syntax-ns#"
   xmlns:svg="http://www.w3.org/2000/svg"
   xmlns="http://www.w3.org/2000/svg"
   xmlns:xlink="http://www.w3.org/1999/xlink"
   xmlns:sodipodi="http://sodipodi.sourceforge.net/DTD/sodipodi-0.dtd"
   xmlns:inkscape="http://www.inkscape.org/namespaces/inkscape"
   version="1.1"
   viewBox="0 0 771.38898 913.83887"
   id="svg85"
   sodipodi:docname="apple-2029586.svg"
   inkscape:version="0.92.3 (unknown)"
   width="771.38898"
   height="913.83887">
  <metadata
     id="metadata89">
    <rdf:RDF>
      <cc:Work
         rdf:about="">
        <dc:format>image/svg+xml</dc:format>
        <dc:type
           rdf:resource="http://purl.org/dc/dcmitype/StillImage" />
        <dc:title></dc:title>
      </cc:Work>
    </rdf:RDF>
  </metadata>
  <sodipodi:namedview
     pagecolor="#ffffff"
     bordercolor="#666666"
     borderopacity="1"
     objecttolerance="10"
     gridtolerance="10"
     guidetolerance="10"
     inkscape:pageopacity="0"
     inkscape:pageshadow="2"
     inkscape:window-width="1920"
     inkscape:window-height="1029"
     id="namedview87"
     showgrid="false"
     inkscape:zoom="0.19666667"
     inkscape:cx="-417.69582"
     inkscape:cy="457.37811"
     inkscape:window-x="0"
     inkscape:window-y="0"
     inkscape:window-maximized="1"
     inkscape:current-layer="svg85"
     fit-margin-top="0"
     fit-margin-left="0"
     fit-margin-right="0"
     fit-margin-bottom="0" />
  <defs
     id="defs53">
    <linearGradient
       id="a">
      <stop
         stop-color="#1d3300"
         offset="0"
         id="stop2" />
      <stop
         stop-color="#68a02c"
         stop-opacity=".23684"
         offset=".49645"
         id="stop4" />
      <stop
         stop-color="#61a334"
         stop-opacity="0"
         offset="1"
         id="stop6" />
    </linearGradient>
    <linearGradient
       id="l"
       x1="-24.924"
       x2="-28.858999"
       y1="174.78"
       y2="272.92001"
       gradientTransform="matrix(3.3212,0,0,3.3499,455.084,-500.94923)"
       gradientUnits="userSpaceOnUse">
      <stop
         stop-color="#daa238"
         offset="0"
         id="stop9" />
      <stop
         stop-color="#a3a827"
         stop-opacity="0"
         offset="1"
         id="stop11" />
    </linearGradient>
    <radialGradient
       id="r"
       cx="-44.641998"
       cy="283.91"
       r="121.72"
       gradientTransform="matrix(0.59419,3.0993,-2.8804,0.55223,1205.094,350.33077)"
       gradientUnits="userSpaceOnUse">
      <stop
         stop-color="#fff44b"
         offset="0"
         id="stop14" />
      <stop
         stop-color="#d68565"
         offset=".73759"
         id="stop16" />
      <stop
         stop-color="#c0161b"
         offset="1"
         id="stop18" />
    </radialGradient>
    <radialGradient
       id="s"
       cx="204"
       cy="148.67999"
       r="41.193001"
       gradientTransform="matrix(-5.9594,-0.5848,0.12062,-1.2294,1521.794,494.16077)"
       gradientUnits="userSpaceOnUse">
      <stop
         stop-color="#fff"
         offset="0"
         id="stop21" />
      <stop
         stop-color="#fff"
         stop-opacity="0"
         offset="1"
         id="stop23" />
    </radialGradient>
    <linearGradient
       id="n"
       x1="220.89999"
       x2="225.37"
       y1="99.834"
       y2="101.95"
       gradientTransform="matrix(3.1687,0,0,3.1687,-307.299,-245.71923)"
       gradientUnits="userSpaceOnUse">
      <stop
         stop-color="#fff"
         offset="0"
         id="stop26" />
      <stop
         stop-color="#fff"
         stop-opacity="0"
         offset="1"
         id="stop28" />
    </linearGradient>
    <linearGradient
       id="o"
       x1="211.03"
       x2="243.95"
       y1="147.25999"
       y2="109.28"
       gradientTransform="matrix(3.1619,-0.2065,0.2065,3.1619,-340.516,-203.13323)"
       gradientUnits="userSpaceOnUse">
      <stop
         offset="0"
         id="stop31" />
      <stop
         stop-opacity="0"
         offset="1"
         id="stop33" />
    </linearGradient>
    <radialGradient
       id="u"
       cx="-81.082001"
       cy="44.942001"
       r="44.556"
       gradientTransform="matrix(-0.24446,-3.0331,6.1138,-0.48862,74.284,-62.476233)"
       gradientUnits="userSpaceOnUse"
       xlink:href="#a" />
    <radialGradient
       id="t"
       cx="-81.082001"
       cy="44.942001"
       r="44.556"
       gradientTransform="matrix(-0.04627,-3.0425,6.1326,-0.089137,103.834,-82.601233)"
       gradientUnits="userSpaceOnUse"
       xlink:href="#a" />
    <linearGradient
       id="m"
       x1="-47.223999"
       x2="-51.159"
       y1="206.27"
       y2="295.47"
       gradientTransform="matrix(3.1687,0,0,3.1687,432.904,-446.93923)"
       gradientUnits="userSpaceOnUse">
      <stop
         stop-color="#fff"
         offset="0"
         id="stop38" />
      <stop
         stop-color="#fff"
         stop-opacity="0"
         offset="1"
         id="stop40" />
    </linearGradient>
    <radialGradient
       id="p"
       cx="585.75"
       cy="814.07001"
       r="361.29001"
       gradientTransform="matrix(1,0,0,0.48302,-176.971,345.20077)"
       gradientUnits="userSpaceOnUse">
      <stop
         stop-color="#4d4d4d"
         offset="0"
         id="stop43" />
      <stop
         stop-color="#4d4d4d"
         stop-opacity="0"
         offset="1"
         id="stop45" />
    </radialGradient>
    <radialGradient
       id="q"
       cx="221.84"
       cy="315"
       r="82.43"
       gradientTransform="matrix(3.1687,0,0,0.57201,-300.463,580.40077)"
       gradientUnits="userSpaceOnUse">
      <stop
         offset="0"
         id="stop48" />
      <stop
         stop-opacity="0"
         offset="1"
         id="stop50" />
    </radialGradient>
  </defs>
  <path
     d="m 770.064,738.41077 a 361.29,174.51 0 1 1 -722.57,0 361.29,174.51 0 1 1 722.57,0 z"
     id="path57"
     inkscape:connector-curvature="0"
     style="opacity:0.67691997;fill:url(#p);fill-rule:evenodd" />
  <path
     d="m 663.664,760.59077 a 261.19,47.151 0 1 1 -522.38,0 261.19,47.151 0 1 1 522.38,0 z"
     id="path59"
     inkscape:connector-curvature="0"
     style="fill:url(#q);fill-rule:evenodd" />
  <path
     d="m 771.384,417.76077 c -68.056,331.44 -205.83,376.12 -335.31,370.73 -24.988,-1.0457 -23.869,3.8974 -52.128,0.31687 -24.639,-3.137 -67.575,-19.075 -92.436,-17.237 C 142.66,782.59764 0,586.27064 0,399.32064 0,188.45064 139.54,50.040637 358.5,45.000637 660.48,38.092937 771.38,206.92064 771.38,417.76064 Z"
     id="path61"
     inkscape:connector-curvature="0"
     style="fill:url(#r)" />
  <path
     d="m 769.574,372.51077 c -69.905,327.21 -209.96,371.49 -341.66,366.09 -25.542,-1.0457 -24.459,3.897 -53.34,0.31641 -25.182,-3.137 -69.015,-19.076 -94.424,-17.238 -94.641,6.876 -186.83,-66.573 -242.98,-168.03 6.1225,20.907 13.807,41.356 22.824,61.025 55.386,95.657 142.33,163.51 231.52,156.9 24.861,-1.8378 67.798,14.099 92.438,17.236 28.258,3.5806 27.139,-1.3621 52.127,-0.31641 129.48,5.3867 267.25,-39.291 335.31,-370.73 0,-15.326 -0.60398,-30.422 -1.8066,-45.252 z"
     id="path63"
     inkscape:connector-curvature="0"
     style="opacity:0.47692003;fill:#241f1c" />
  <path
     d="m 379.424,44.800767 c -6.8687,-0.0294 -13.84,0.0354 -20.918,0.19727 -53.144,1.2228 -101.61,10.304 -144.54,26.369 -3.5818,2.0495 -7.8081,3.6327 -12.309,4.8594 C 116.09,111.82344 54.027,176.27644 22.817,262.13644 c 0.20016,10.111 0.94336,20.261 0.94336,28.957 v 65.893 c 0,27.469 -2.2247,41.705 13.086,57.148 22.817,23.014 17.436,-29.514 17.436,-48.34 0,-28.474 1.5935,-41.17 17.402,-57.148 19.23,-19.362 47.66,-29.68 39.225,4.4219 -6.277,25.359 -5.2154,42.175 4.3496,61.504 10.203,20.568 20.395,27.771 39.213,8.7773 17.715,-17.855 -4.6368,-35.409 21.783,-8.7773 17.456,17.62 27.946,36.916 52.283,30.752 23.139,-5.8288 16.925,-30.752 56.637,-30.752 29.774,0 26.731,13.199 52.277,13.199 37.639,0 35.936,2.1772 47.926,26.363 13.125,26.464 24.247,28.842 39.209,43.916 18.809,18.994 28.922,9.2458 39.211,35.174 6.1003,15.376 27.502,-20.334 34.852,-35.174 11.76,-23.717 37.829,-38.49 56.637,-52.727 12.072,-9.1117 25.457,9.4811 47.922,-13.164 21.664,-21.841 44.291,-3.6862 56.639,8.7754 6.5095,6.5658 54.996,0 65.348,0 16.948,0 21.783,-30.617 21.783,-48.338 0,-19.027 -9.9432,-42.041 -17.426,-57.115 -9.3491,-18.86 -13.158,-44.118 -21.783,-61.537 -9.4521,-19.061 -18.568,-37.453 -26.141,-52.729 -11.216,-22.612 -27.295,-31.923 -39.211,-43.949 -11.952,-12.049 -18.991,-27.197 -29.184,-38.141003 -15.043,-8.7415 -31.281,-16.543 -48.766,-23.318 -1.5368,-0.0311 -3.1389,-0.0449 -4.8242,-0.0449 -20.814,0 -46.776,-0.8043 -60.994,-4.3887 -23.808,-5.9963 -31.666,-7.2033 -52.281,-17.588 -4.5282,-2.2805 -7.9535,-4.4651 -10.959,-6.4805 -17.844,-1.5717 -36.493,-2.4262 -55.988,-2.5098 z"
     id="path65"
     inkscape:connector-curvature="0"
     style="fill:url(#l)" />
  <path
     d="m 125.314,306.41077 c -7.7188,9.1574 -16.978,35.964 -12.478,54.026 7.8931,31.528 4.9621,31.782 29.107,49.875 15.488,11.629 14.734,28.169 33.252,37.422 7.703,3.8341 8.3114,-46.326 8.3114,-54.026 0,-13.087 16.626,-20.723 16.626,-45.724 0,-28.011 0.62106,-36.788 -12.469,-49.875 -9.1099,-9.1257 -56.228,5.862 -62.35,8.3019 z m 166.27,-12.485 c -11.569,-11.566 -14.912,48.449 -12.472,58.208 7.8456,31.37 24.941,21.325 24.941,58.177 0,29.912 2.8169,31.908 16.626,45.724 13.974,13.974 32.022,11.122 54.035,16.635 23.226,5.7986 38.689,16.635 62.35,16.635 27.041,0 42.229,-12.801 66.504,-24.937 7.158,-3.5806 20.197,-45.153 24.941,-49.906 10.577,-10.552 -8.3146,-47.942 -8.3146,-58.177 0,-23.797 4.1573,-34.443 4.1573,-58.177 0,-14.734 -34.453,-29.405 -49.878,-33.271 -17.819,-4.4361 -49.453,4.1509 -70.661,4.1509 -22.418,0 -39.456,8.3336 -62.35,8.3336 -27.434,0 -26.724,5.0382 -49.878,16.604 z"
     id="path67"
     inkscape:connector-curvature="0"
     style="opacity:0.35769001;fill:url(#m);fill-rule:evenodd" />
  <path
     d="m 246.254,131.70077 c 0,0 63.751,48.291 171.37,37.278 108.19,-11.142 129.21,-31.849 129.21,-31.849 90.378,-100.080003 -431.54,-79.675003 -300.58,-5.4289 z"
     id="path69"
     inkscape:connector-curvature="0"
     style="fill:url(#t);fill-rule:evenodd" />
  <path
     d="m 360.924,56.250767 c 0,0 -117.43,37.989 -71.98,37.864 87.468,-26.564 195.71,-6.0987 278.15,40.622003 C 508.665,59.536767 446.464,60.393767 360.924,56.250767 Z"
     id="path71"
     inkscape:connector-curvature="0"
     style="opacity:0.18461998;fill:#ffffff;fill-rule:evenodd" />
  <path
     d="m 243.894,116.20077 c -29.873,-5.9321 -68.574,39.491 -33.039,68.135 48.644,33.389 105.4,40.282 160.11,37.853 65.23,2.4294 134.47,-6.2711 190.07,-51.299 12.529,-34.237 -17.924,-15.424 -33.886,-8.644 -57.829,19.435 -119.31,21.356 -179.15,20 -31.3,-4.1807 -67.905,-11.243 -94.078,-29.322 5.7071,-13.333 4.2803,-36.61 -10.032,-36.723 z"
     id="path73"
     inkscape:connector-curvature="0"
     style="opacity:0.46538002;fill:url(#s);fill-rule:evenodd" />
  <path
     d="m 391.834,156.98077 18.56,-36.713 c 0,0 7.7761,-25.340003 29.683,-37.059003 21.941,-11.69 40.032,-9.8862 40.032,-9.8862 l 24.739,18.516 c 0,0 -34.643,-6.3111 -69.255,34.054003 -34.614,40.334 -56.769,55.054 -56.769,55.054 -6.4319,-8.5346 -10.059,16.153 13.01,-23.967 z"
     id="path75"
     inkscape:connector-curvature="0"
     style="fill:url(#o);fill-rule:evenodd" />
  <path
     d="m 230.374,142.09077 c 0,0 66.734,44.035 173.4,26.05 107.25,-18.182 126.9,-40.232 126.9,-40.232 83.657,-105.750003 -435.85,-51.368003 -300.29,14.182 z"
     id="path77"
     inkscape:connector-curvature="0"
     style="fill:url(#u);fill-rule:evenodd" />
  <path
     d="m 373.014,169.75077 19.265,0.76048 c -8.0167,5.4501 15.305,-112.000003 50.73,-135.420003 15.336,-10.121 -3.8024,-39.0220005 -12.104,-34.64300047 0,0 -20.501,14.80100047 -22.909,25.64700047 -2.4082,10.846 -21.293,55.787 -25.761,88.234003 -4.4678,32.447 -8.1118,47.181 -9.2208,55.42 z"
     id="path79"
     inkscape:connector-curvature="0"
     style="fill:#372a07;fill-rule:evenodd" />
  <path
     d="m 431.414,2.0907665 c -0.41193,0.29785 -4.7847,3.4887 -9.7912,8.1656005 -5.2283,4.8924 -10.393,11.325 -11.217,15.035 -1.4259,6.3183 -6.6542,19.896 -12.199,36.468 -5.5768,16.585 -11.439,35.755 -13.625,51.567003 -4.1826,30.292 -7.89,47.15 -9.1891,55.356 l 8.3653,0.44361 c -0.0317,-3.1053 2.4716,-11.027 3.2637,-16.192 1.6477,-10.837 4.8797,-25.888 9.5377,-41.826 4.6579,-15.970003 10.71,-32.796003 17.903,-47.295003 7.1612,-14.49 15.431,-26.639 25.318,-33.166 2.8518,-1.898 3.9291,-4.2935 4.1193,-7.5287 0.19012,-3.2352 0,-8.9736 -1.7744,-12.542 -1.7428,-3.5647005 -5.0382,-5.0350005 -7.2245,-6.8538005 -1.109,-0.91257 -2.1547,-1.4608 -2.7884,-1.654 -0.60204,-0.19012 -0.66542,0 -0.6971,0.0222 z"
     id="path81"
     inkscape:connector-curvature="0"
     style="fill:#db9b1e;fill-opacity:0.41102002;fill-rule:evenodd" />
  <path
     d="m 431.034,8.0507665 c -6.1155,4.9685005 -13.467,9.5091005 -16.762,16.9490005 -12.928,34.174 -12.516,38.857 -19.36,58.066 -3.8658,15.621 -6.5908,31.496003 -9.7278,47.276003 -2.3131,12.294 -4.5629,24.589 -6.8126,36.883 3.9291,2.5349 2.5983,-9.6961 4.9114,-13.974 5.8303,-44.932 16.889,-87.623003 34.412,-125.550003 4.0876,-7.3164 11.407,-11.981 17.586,-17.282 -0.44361,-1.6097005 -3.2003,-1.2199005 -4.246,-2.3638005 z"
     id="path83"
     inkscape:connector-curvature="0"
     style="opacity:0.26154001;fill:url(#n);fill-rule:evenodd" />
</svg>
