<?xml version="1.0" encoding="UTF-8" standalone="no"?>
<!-- Created with Inkscape (http://www.inkscape.org/) -->

<svg
   xmlns:dc="http://purl.org/dc/elements/1.1/"
   xmlns:cc="http://creativecommons.org/ns#"
   xmlns:rdf="http://www.w3.org/1999/02/22-rdf-syntax-ns#"
   xmlns:svg="http://www.w3.org/2000/svg"
   xmlns="http://www.w3.org/2000/svg"
   xmlns:xlink="http://www.w3.org/1999/xlink"
   xmlns:sodipodi="http://sodipodi.sourceforge.net/DTD/sodipodi-0.dtd"
   xmlns:inkscape="http://www.inkscape.org/namespaces/inkscape"
   width="338.66666mm"
   height="190.5mm"
   viewBox="0 0 338.66666 190.5"
   version="1.1"
   id="svg1463"
   inkscape:version="0.92.3 (unknown)"
   sodipodi:docname="Background.svg">
  <defs
     id="defs1457">
    <linearGradient
       inkscape:collect="always"
       id="linearGradient3804">
      <stop
         style="stop-color:#079743;stop-opacity:1"
         offset="0"
         id="stop3800" />
      <stop
         style="stop-color:#00e568;stop-opacity:1"
         offset="1"
         id="stop3802" />
    </linearGradient>
    <linearGradient
       inkscape:collect="always"
       id="linearGradient3780">
      <stop
         style="stop-color:#008000;stop-opacity:1;"
         offset="0"
         id="stop3776" />
      <stop
         style="stop-color:#1bd8ff;stop-opacity:1"
         offset="1"
         id="stop3778" />
    </linearGradient>
    <linearGradient
       inkscape:collect="always"
       id="linearGradient2101">
      <stop
         style="stop-color:#29e0ff;stop-opacity:1;"
         offset="0"
         id="stop2097" />
      <stop
         style="stop-color:#1ad8ff;stop-opacity:1"
         offset="1"
         id="stop2099" />
    </linearGradient>
    <linearGradient
       inkscape:collect="always"
       id="linearGradient2066">
      <stop
         style="stop-color:#41c1c6;stop-opacity:1;"
         offset="0"
         id="stop2062" />
      <stop
         style="stop-color:#41c1c6;stop-opacity:0;"
         offset="1"
         id="stop2064" />
    </linearGradient>
    <linearGradient
       inkscape:collect="always"
       xlink:href="#linearGradient2066"
       id="linearGradient2068"
       x1="-409.68549"
       y1="98.103149"
       x2="-412.35815"
       y2="138.99539"
       gradientUnits="userSpaceOnUse" />
    <linearGradient
       inkscape:collect="always"
       xlink:href="#linearGradient2066"
       id="linearGradient2076"
       x1="-183.57547"
       y1="89.550522"
       x2="-183.30818"
       y2="141.13354"
       gradientUnits="userSpaceOnUse" />
    <linearGradient
       inkscape:collect="always"
       xlink:href="#linearGradient2101"
       id="linearGradient2103"
       x1="-285.40515"
       y1="15.784134"
       x2="-285.40515"
       y2="188.44025"
       gradientUnits="userSpaceOnUse" />
    <linearGradient
       inkscape:collect="always"
       xlink:href="#linearGradient3780"
       id="linearGradient3782"
       x1="-497.31107"
       y1="148.30304"
       x2="-497.08261"
       y2="175.07678"
       gradientUnits="userSpaceOnUse"
       gradientTransform="translate(-0.26728125,2.4054258)" />
    <linearGradient
       inkscape:collect="always"
       xlink:href="#linearGradient3780"
       id="linearGradient3796"
       gradientUnits="userSpaceOnUse"
       gradientTransform="translate(338.92456,1.7997662)"
       x1="-497.31107"
       y1="148.30304"
       x2="-497.08261"
       y2="175.07678" />
    <linearGradient
       inkscape:collect="always"
       xlink:href="#linearGradient3804"
       id="linearGradient3806"
       x1="-282.64502"
       y1="158.81348"
       x2="-282.19791"
       y2="194.32018"
       gradientUnits="userSpaceOnUse" />
  </defs>
  <sodipodi:namedview
     id="base"
     pagecolor="#ffffff"
     bordercolor="#666666"
     borderopacity="1.0"
     inkscape:pageopacity="0.0"
     inkscape:pageshadow="2"
     inkscape:zoom="1.979899"
     inkscape:cx="399.04549"
     inkscape:cy="132.25781"
     inkscape:document-units="mm"
     inkscape:current-layer="layer1"
     showgrid="false"
     inkscape:window-width="1920"
     inkscape:window-height="1029"
     inkscape:window-x="0"
     inkscape:window-y="0"
     inkscape:window-maximized="1"
     fit-margin-top="0"
     fit-margin-left="0"
     fit-margin-right="0"
     fit-margin-bottom="0" />
  <metadata
     id="metadata1460">
    <rdf:RDF>
      <cc:Work
         rdf:about="">
        <dc:format>image/svg+xml</dc:format>
        <dc:type
           rdf:resource="http://purl.org/dc/dcmitype/StillImage" />
        <dc:title></dc:title>
      </cc:Work>
    </rdf:RDF>
  </metadata>
  <g
     inkscape:label="Layer 1"
     inkscape:groupmode="layer"
     id="layer1"
     transform="translate(458.86307,-5.9583344)">
    <rect
       style="fill:url(#linearGradient2103);fill-opacity:1;stroke:none;stroke-width:0.26458332"
       id="rect3900"
       width="338.66666"
       height="190.5"
       x="-458.86307"
       y="5.9583344" />
    <path
       style="fill:url(#linearGradient2068);stroke:none;stroke-width:0.26458332px;stroke-linecap:butt;stroke-linejoin:miter;stroke-opacity:1;fill-opacity:1"
       d="m -431.86885,141.13355 c 0,0 8.84346,-68.953511 20.57975,-66.550122 23.64496,4.842074 45.3912,28.929602 55.05752,56.393872 2.84782,-5.40937 15.27108,-24.73961 20.04522,-23.78699 6.76126,1.34912 23.51972,34.74504 23.51972,34.74504 z"
       id="path2042"
       inkscape:connector-curvature="0"
       sodipodi:nodetypes="cscscc" />
    <path
       style="fill:url(#linearGradient2076);stroke:none;stroke-width:0.26458332px;stroke-linecap:butt;stroke-linejoin:miter;stroke-opacity:1;fill-opacity:1"
       d="m -262.41997,142.20262 c 0,0 9.48964,-28.14467 22.71791,-30.20146 8.52822,-1.32601 13.63075,12.82894 13.63075,12.82894 0,0 16.86803,-62.102186 43.29766,-64.946496 20.95339,-2.254968 27.39249,64.568926 26.19241,66.817386 0,0 4.26884,-8.66613 10.15625,-8.01809 10.25136,1.12838 13.89802,24.5888 13.89802,24.5888 z"
       id="path2044"
       inkscape:connector-curvature="0"
       sodipodi:nodetypes="cscscscc" />
    <path
       style="opacity:1;fill:url(#linearGradient3796);fill-opacity:1;stroke:none;stroke-width:2;stroke-miterlimit:4;stroke-dasharray:none;stroke-opacity:1"
       d="m -119.9385,145.35797 a 6.013564,6.013564 0 0 0 -1.00614,1.01854 6.013564,6.013564 0 0 0 -3.52382,-1.17564 6.013564,6.013564 0 0 0 -2.96932,-3.84007 6.013564,6.013564 0 0 0 -5.83169,-4.57078 6.013564,6.013564 0 0 0 -6.01358,6.01358 6.013564,6.013564 0 0 0 0.0424,0.65009 6.013564,6.013564 0 0 0 -2.07739,-0.39791 6.013564,6.013564 0 0 0 -2.20245,-2.78019 6.013564,6.013564 0 0 0 -5.41879,-3.4184 6.013564,6.013564 0 0 0 -6.01359,6.01359 6.013564,6.013564 0 0 0 0.002,0.0625 6.013564,6.013564 0 0 0 -0.98547,-0.35398 6.013564,6.013564 0 0 0 -2.18281,-1.29657 6.013564,6.013564 0 0 0 -3.62717,-1.22628 6.013564,6.013564 0 0 0 -4.87257,2.49907 6.013564,6.013564 0 0 0 -2.29444,-0.45785 6.013564,6.013564 0 0 0 -1.78438,0.2775 6.013564,6.013564 0 0 0 -1.33791,-0.15658 6.013564,6.013564 0 0 0 -6.01358,6.01359 6.013564,6.013564 0 0 0 0.0481,0.69401 6.013564,6.013564 0 0 0 -2.2469,-0.43976 6.013564,6.013564 0 0 0 -6.00015,5.74332 6.013564,6.013564 0 0 0 -1.59473,-0.22221 6.013564,6.013564 0 0 0 -1.49448,0.19379 6.013564,6.013564 0 0 0 0.3762,-1.01545 6.013564,6.013564 0 0 0 1.28106,-3.69796 6.013564,6.013564 0 0 0 -6.01359,-6.01359 6.013564,6.013564 0 0 0 -2.47892,0.5426 6.013564,6.013564 0 0 0 -0.33951,-0.0171 6.013564,6.013564 0 0 0 -0.8847,0.0708 6.013564,6.013564 0 0 0 -4.19251,-1.71101 6.013564,6.013564 0 0 0 -4.48293,2.01435 6.013564,6.013564 0 0 0 -3.98994,-1.52239 6.013564,6.013564 0 0 0 -5.51335,3.61838 6.013564,6.013564 0 0 0 -2.32028,-0.46715 6.013564,6.013564 0 0 0 -4.91598,2.55592 6.013564,6.013564 0 0 0 -4.15736,-2.95693 6.013564,6.013564 0 0 0 -0.0987,-0.1726 6.013564,6.013564 0 0 0 -2.74195,-3.20032 6.013564,6.013564 0 0 0 -4.72736,-2.34973 6.013564,6.013564 0 0 0 -3.54448,-1.16375 6.013564,6.013564 0 0 0 -2.76211,0.67438 6.013564,6.013564 0 0 0 -3.7884,-1.34928 6.013564,6.013564 0 0 0 -4.40025,1.92547 6.013564,6.013564 0 0 0 -3.19412,-0.92708 6.013564,6.013564 0 0 0 -2.92126,0.76533 6.013564,6.013564 0 0 0 -6.00119,-5.66839 6.013564,6.013564 0 0 0 -5.76864,4.32842 6.013564,6.013564 0 0 0 -3.12177,-0.88263 6.013564,6.013564 0 0 0 -1.41387,0.17518 6.013564,6.013564 0 0 0 -2.18126,-1.71876 6.013564,6.013564 0 0 0 -4.62091,-2.17351 6.013564,6.013564 0 0 0 -5.47615,3.54242 6.013564,6.013564 0 0 0 -3.03237,-0.82682 6.013564,6.013564 0 0 0 -2.74402,0.66352 6.013564,6.013564 0 0 0 -2.8789,-0.7338 6.013564,6.013564 0 0 0 -6.01358,6.01358 6.013564,6.013564 0 0 0 1.19424,3.58635 6.013564,6.013564 0 0 0 -3.44992,1.88929 6.013564,6.013564 0 0 0 -4.67413,-2.23449 6.013564,6.013564 0 0 0 -2.30994,0.46715 6.013564,6.013564 0 0 0 -5.29632,5.96295 6.013564,6.013564 0 0 0 5.1077,5.93762 6.013564,6.013564 0 0 0 0.85008,0.92656 6.013564,6.013564 0 0 0 -3.47059,1.40198 6.013564,6.013564 0 0 0 -4.67723,5.85546 6.013564,6.013564 0 0 0 6.01358,6.01358 6.013564,6.013564 0 0 0 3.86644,-1.41593 6.013564,6.013564 0 0 0 3.41115,-2.1761 6.013564,6.013564 0 0 0 5.15731,2.93367 6.013564,6.013564 0 0 0 2.58693,-0.59117 6.013564,6.013564 0 0 0 4.4142,1.93786 6.013564,6.013564 0 0 0 6.01358,-6.01358 6.013564,6.013564 0 0 0 -0.0351,-0.5917 6.013564,6.013564 0 0 0 1.43144,-2.2133 6.013564,6.013564 0 0 0 0.22531,0.38034 6.013564,6.013564 0 0 0 -1.64951,4.12636 6.013564,6.013564 0 0 0 6.01358,6.01359 6.013564,6.013564 0 0 0 6.01359,-6.01359 6.013564,6.013564 0 0 0 -0.0977,-1.06608 6.013564,6.013564 0 0 0 0.40773,-0.14263 6.013564,6.013564 0 0 0 3.8995,1.60507 6.013564,6.013564 0 0 0 0.24908,0.23719 6.013564,6.013564 0 0 0 5.1232,2.87373 6.013564,6.013564 0 0 0 1.67742,-0.24184 6.013564,6.013564 0 0 0 1.8526,0.2961 6.013564,6.013564 0 0 0 1.94304,-0.33021 6.013564,6.013564 0 0 0 3.39307,-2.39624 6.013564,6.013564 0 0 0 1.89394,0.37001 6.013564,6.013564 0 0 0 5.54695,3.7052 6.013564,6.013564 0 0 0 5.69578,-4.10001 6.013564,6.013564 0 0 0 3.35948,1.32343 6.013564,6.013564 0 0 0 0.71934,1.57717 6.013564,6.013564 0 0 0 5.68234,4.06796 6.013564,6.013564 0 0 0 3.37137,-1.04127 6.013564,6.013564 0 0 0 5.73556,4.22816 6.013564,6.013564 0 0 0 6.01359,-6.01359 6.013564,6.013564 0 0 0 -0.0548,-0.75551 6.013564,6.013564 0 0 0 1.36633,-1.1069 6.013564,6.013564 0 0 0 3.54552,1.45159 6.013564,6.013564 0 0 0 5.76451,4.31653 6.013564,6.013564 0 0 0 3.95944,-1.49707 6.013564,6.013564 0 0 0 1.29553,0.14521 6.013564,6.013564 0 0 0 5.84925,-4.64519 6.013564,6.013564 0 0 0 3.04633,0.83664 6.013564,6.013564 0 0 0 0.76068,-0.0558 6.013564,6.013564 0 0 0 5.22449,3.05098 6.013564,6.013564 0 0 0 2.9533,-0.78394 6.013564,6.013564 0 0 0 0.46096,0.0233 6.013564,6.013564 0 0 0 4.0597,-1.58595 6.013564,6.013564 0 0 0 5.72523,4.19716 6.013564,6.013564 0 0 0 3.0055,-0.81391 6.013564,6.013564 0 0 0 5.93866,-5.63686 6.013564,6.013564 0 0 0 1.36942,-0.96997 6.013564,6.013564 0 0 0 5.12941,2.8851 6.013564,6.013564 0 0 0 1.80712,-0.28474 6.013564,6.013564 0 0 0 -0.002,0.045 6.013564,6.013564 0 0 0 6.01359,6.01359 6.013564,6.013564 0 0 0 5.51077,-3.61425 6.013564,6.013564 0 0 0 1.36271,0.16278 6.013564,6.013564 0 0 0 5.50768,-3.60753 6.013564,6.013564 0 0 0 0.18396,0.047 6.013564,6.013564 0 0 0 5.37332,3.3166 6.013564,6.013564 0 0 0 3.61787,-1.21647 6.013564,6.013564 0 0 0 4.49843,2.83497 6.013564,6.013564 0 0 0 1.98644,2.84376 z"
       id="path3794"
       inkscape:connector-curvature="0" />
    <path
       style="opacity:1;fill:url(#linearGradient3782);fill-opacity:1;stroke:none;stroke-width:2;stroke-miterlimit:4;stroke-dasharray:none;stroke-opacity:1"
       d="m -459.13034,145.96363 v 33.89664 a 6.013564,6.013564 0 0 0 3.72122,1.30069 6.013564,6.013564 0 0 0 3.12539,-0.88212 6.013564,6.013564 0 0 0 0.11886,-0.004 6.013564,6.013564 0 0 0 1.88154,0.30696 6.013564,6.013564 0 0 0 5.16712,-2.95124 6.013564,6.013564 0 0 0 4.94389,2.60139 6.013564,6.013564 0 0 0 5.38261,-3.34708 6.013564,6.013564 0 0 0 3.52279,-1.7632 6.013564,6.013564 0 0 0 2.62619,0.61236 6.013564,6.013564 0 0 0 1.98748,-0.3452 6.013564,6.013564 0 0 0 4.99297,2.67116 6.013564,6.013564 0 0 0 5.99757,-5.69164 6.013564,6.013564 0 0 0 3.0825,0.85886 6.013564,6.013564 0 0 0 4.97644,-2.64015 6.013564,6.013564 0 0 0 1.07435,2.26859 6.013564,6.013564 0 0 0 -0.0119,0.23927 6.013564,6.013564 0 0 0 6.01358,6.01358 6.013564,6.013564 0 0 0 6.00842,-5.9154 6.013564,6.013564 0 0 0 0.26924,-0.10697 6.013564,6.013564 0 0 0 3.02669,1.35857 6.013564,6.013564 0 0 0 5.10253,2.83807 6.013564,6.013564 0 0 0 0.62167,-0.0387 6.013564,6.013564 0 0 0 2.3461,0.47645 6.013564,6.013564 0 0 0 6.01359,-6.01358 6.013564,6.013564 0 0 0 -0.0987,-1.07384 6.013564,6.013564 0 0 0 1.72961,0.25632 6.013564,6.013564 0 0 0 6.01359,-6.01359 6.013564,6.013564 0 0 0 -3.75998,-5.57123 6.013564,6.013564 0 0 0 4.21421,-5.73092 6.013564,6.013564 0 0 0 -6.01358,-6.01359 6.013564,6.013564 0 0 0 -2.62879,0.6103 6.013564,6.013564 0 0 0 -5.41775,-3.41736 6.013564,6.013564 0 0 0 -1.93993,0.32918 6.013564,6.013564 0 0 0 -5.42396,-3.43029 6.013564,6.013564 0 0 0 -2.29961,0.46251 6.013564,6.013564 0 0 0 -1.21698,-0.9462 6.013564,6.013564 0 0 0 -5.66528,-4.01577 6.013564,6.013564 0 0 0 -5.54953,3.70107 6.013564,6.013564 0 0 0 -4.99298,-2.67064 6.013564,6.013564 0 0 0 -5.80068,4.45296 6.013564,6.013564 0 0 0 -3.50366,-1.13224 6.013564,6.013564 0 0 0 -5.91902,4.98678 6.013564,6.013564 0 0 0 -5.67924,-4.05867 6.013564,6.013564 0 0 0 -6.01359,6.01359 6.013564,6.013564 0 0 0 0.004,0.11472 6.013564,6.013564 0 0 0 -3.96927,-1.50275 6.013564,6.013564 0 0 0 -2.46962,0.53898 6.013564,6.013564 0 0 0 -4.75578,-2.33887 6.013564,6.013564 0 0 0 -3.11919,0.87902 6.013564,6.013564 0 0 0 -3.96565,-1.49914 6.013564,6.013564 0 0 0 -3.74964,1.32654 z m 71.422,8.65787 a 6.013564,6.013564 0 0 0 0.10852,0.12402 6.013564,6.013564 0 0 0 -0.16743,0.0377 6.013564,6.013564 0 0 0 0.0589,-0.16174 z m -19.08824,10.95127 a 6.013564,6.013564 0 0 0 0.18242,0.0884 6.013564,6.013564 0 0 0 -0.12248,0.16537 6.013564,6.013564 0 0 0 -0.0599,-0.25373 z"
       id="path3105"
       inkscape:connector-curvature="0" />
    <rect
       style="opacity:1;fill:url(#linearGradient3806);fill-opacity:1;stroke:none;stroke-width:2;stroke-miterlimit:4;stroke-dasharray:none;stroke-opacity:1"
       id="rect3798"
       width="338.93393"
       height="38.219536"
       x="-459.13034"
       y="158.23878" />
  </g>
</svg>
