<?xml version="1.0" encoding="UTF-8" standalone="no"?>
<!-- Created with Inkscape (http://www.inkscape.org/) -->

<svg
   xmlns:dc="http://purl.org/dc/elements/1.1/"
   xmlns:cc="http://creativecommons.org/ns#"
   xmlns:rdf="http://www.w3.org/1999/02/22-rdf-syntax-ns#"
   xmlns:svg="http://www.w3.org/2000/svg"
   xmlns="http://www.w3.org/2000/svg"
   xmlns:xlink="http://www.w3.org/1999/xlink"
   xmlns:sodipodi="http://sodipodi.sourceforge.net/DTD/sodipodi-0.dtd"
   xmlns:inkscape="http://www.inkscape.org/namespaces/inkscape"
   width="677.86786mm"
   height="190.87799mm"
   viewBox="0 0 677.86787 190.87799"
   version="1.1"
   id="svg1463"
   inkscape:version="0.92.3 (unknown)"
   sodipodi:docname="Background - Maybe Aligned.svg">
  <defs
     id="defs1457">
    <linearGradient
       inkscape:collect="always"
       id="linearGradient3804">
      <stop
         style="stop-color:#079743;stop-opacity:1"
         offset="0"
         id="stop3800" />
      <stop
         style="stop-color:#00e568;stop-opacity:1"
         offset="1"
         id="stop3802" />
    </linearGradient>
    <linearGradient
       inkscape:collect="always"
       id="linearGradient3780">
      <stop
         style="stop-color:#008000;stop-opacity:1;"
         offset="0"
         id="stop3776" />
      <stop
         style="stop-color:#1bd8ff;stop-opacity:1"
         offset="1"
         id="stop3778" />
    </linearGradient>
    <linearGradient
       inkscape:collect="always"
       id="linearGradient2066">
      <stop
         style="stop-color:#41c1c6;stop-opacity:1;"
         offset="0"
         id="stop2062" />
      <stop
         style="stop-color:#41c1c6;stop-opacity:0;"
         offset="1"
         id="stop2064" />
    </linearGradient>
    <linearGradient
       inkscape:collect="always"
       xlink:href="#linearGradient2066"
       id="linearGradient2068"
       x1="-409.68549"
       y1="98.103149"
       x2="-412.35815"
       y2="138.99539"
       gradientUnits="userSpaceOnUse" />
    <linearGradient
       inkscape:collect="always"
       xlink:href="#linearGradient2066"
       id="linearGradient2076"
       x1="-183.57547"
       y1="89.550522"
       x2="-183.30818"
       y2="141.13354"
       gradientUnits="userSpaceOnUse" />
    <linearGradient
       inkscape:collect="always"
       xlink:href="#linearGradient3780"
       id="linearGradient3796"
       gradientUnits="userSpaceOnUse"
       gradientTransform="translate(29.21516,2.7241258)"
       x1="-497.31107"
       y1="148.30304"
       x2="-497.08261"
       y2="175.07678" />
    <linearGradient
       inkscape:collect="always"
       xlink:href="#linearGradient3804"
       id="linearGradient3806"
       x1="-282.64502"
       y1="158.81348"
       x2="-282.64502"
       y2="193.51837"
       gradientUnits="userSpaceOnUse"
       gradientTransform="translate(0,1.5258789e-5)" />
    <linearGradient
       inkscape:collect="always"
       xlink:href="#linearGradient3780"
       id="linearGradient4068"
       gradientUnits="userSpaceOnUse"
       gradientTransform="translate(367.88144,0.52212245)"
       x1="-497.31107"
       y1="148.30304"
       x2="-497.08261"
       y2="175.07678" />
    <linearGradient
       inkscape:collect="always"
       xlink:href="#linearGradient3804"
       id="linearGradient4668"
       gradientUnits="userSpaceOnUse"
       gradientTransform="translate(338.93393,7.7412109e-6)"
       x1="-282.64502"
       y1="158.81348"
       x2="-282.64502"
       y2="193.51837" />
    <linearGradient
       inkscape:collect="always"
       xlink:href="#linearGradient3780"
       id="linearGradient4682"
       gradientUnits="userSpaceOnUse"
       gradientTransform="translate(706.5481,-1.6798376)"
       x1="-497.31107"
       y1="148.30304"
       x2="-497.08261"
       y2="175.07678" />
    <linearGradient
       inkscape:collect="always"
       xlink:href="#linearGradient3780"
       id="linearGradient4684"
       gradientUnits="userSpaceOnUse"
       gradientTransform="translate(367.35265,0.5221658)"
       x1="-497.31107"
       y1="148.30304"
       x2="-497.08261"
       y2="175.07678" />
    <linearGradient
       inkscape:collect="always"
       xlink:href="#linearGradient2066"
       id="linearGradient4696"
       gradientUnits="userSpaceOnUse"
       x1="-409.68549"
       y1="98.103149"
       x2="-412.35815"
       y2="138.99539"
       gradientTransform="translate(332.8372,0.42756)" />
    <linearGradient
       inkscape:collect="always"
       xlink:href="#linearGradient2066"
       id="linearGradient4698"
       gradientUnits="userSpaceOnUse"
       x1="-183.57547"
       y1="89.550522"
       x2="-183.30818"
       y2="141.13354"
       gradientTransform="translate(332.8372,0.42756)" />
    <linearGradient
       inkscape:collect="always"
       xlink:href="#linearGradient2066"
       id="linearGradient4700"
       gradientUnits="userSpaceOnUse"
       x1="-183.57547"
       y1="89.550522"
       x2="-183.30818"
       y2="141.13354" />
    <linearGradient
       inkscape:collect="always"
       xlink:href="#linearGradient3804"
       id="linearGradient4702"
       gradientUnits="userSpaceOnUse"
       gradientTransform="translate(0,1.5258789e-5)"
       x1="-282.64502"
       y1="158.81348"
       x2="-282.64502"
       y2="193.51837" />
  </defs>
  <sodipodi:namedview
     id="base"
     pagecolor="#ffffff"
     bordercolor="#666666"
     borderopacity="1.0"
     inkscape:pageopacity="0.0"
     inkscape:pageshadow="2"
     inkscape:zoom="1.979899"
     inkscape:cx="1272.9829"
     inkscape:cy="319.94981"
     inkscape:document-units="mm"
     inkscape:current-layer="layer1"
     showgrid="false"
     inkscape:window-width="1920"
     inkscape:window-height="1029"
     inkscape:window-x="0"
     inkscape:window-y="0"
     inkscape:window-maximized="1"
     fit-margin-top="0"
     fit-margin-left="0"
     fit-margin-right="0"
     fit-margin-bottom="0" />
  <metadata
     id="metadata1460">
    <rdf:RDF>
      <cc:Work
         rdf:about="">
        <dc:format>image/svg+xml</dc:format>
        <dc:type
           rdf:resource="http://purl.org/dc/dcmitype/StillImage" />
        <dc:title></dc:title>
      </cc:Work>
    </rdf:RDF>
  </metadata>
  <g
     inkscape:label="Layer 1"
     inkscape:groupmode="layer"
     id="layer1"
     transform="translate(459.13034,-5.9583346)">
    <path
       style="fill:#29e0ff;fill-opacity:1;stroke:none;stroke-width:21.19417191;stroke-miterlimit:4;stroke-dasharray:none;stroke-opacity:1"
       d="M 0 -1.5996094 L 0 737.17188 L 1273.6602 737.17188 L 1273.6602 728.58594 L 2568.5352 728.58594 L 2568.5352 0.421875 L 1273.6602 0.421875 L 1273.6602 -1.5996094 L 0 -1.5996094 z "
       transform="matrix(0.26458333,0,0,0.26458333,-459.13034,5.9583346)"
       id="rect4712" />
    <path
       inkscape:connector-curvature="0"
       id="path4678"
       d="m 218.47025,133.38884 a 6.013564,6.013564 0 0 0 -5.79965,6.00274 6.013564,6.013564 0 0 0 0.002,0.0625 6.013564,6.013564 0 0 0 -0.98547,-0.35398 6.013564,6.013564 0 0 0 -2.18281,-1.29656 6.013564,6.013564 0 0 0 -3.62717,-1.22628 6.013564,6.013564 0 0 0 -4.87257,2.49907 6.013564,6.013564 0 0 0 -2.29443,-0.45785 6.013564,6.013564 0 0 0 -1.78439,0.2775 6.013564,6.013564 0 0 0 -1.3379,-0.15658 6.013564,6.013564 0 0 0 -6.01359,6.01359 6.013564,6.013564 0 0 0 0.0481,0.69401 6.013564,6.013564 0 0 0 -2.24689,-0.43977 6.013564,6.013564 0 0 0 -6.00015,5.74332 6.013564,6.013564 0 0 0 -1.59474,-0.22221 6.013564,6.013564 0 0 0 -1.49448,0.19379 6.013564,6.013564 0 0 0 0.3762,-1.01544 6.013564,6.013564 0 0 0 1.28106,-3.69797 6.013564,6.013564 0 0 0 -6.01358,-6.01358 6.013564,6.013564 0 0 0 -2.47892,0.5426 6.013564,6.013564 0 0 0 -0.33952,-0.017 6.013564,6.013564 0 0 0 -0.8847,0.0708 6.013564,6.013564 0 0 0 -4.1925,-1.711 6.013564,6.013564 0 0 0 -4.48293,2.01434 6.013564,6.013564 0 0 0 -3.98995,-1.52238 6.013564,6.013564 0 0 0 -5.51336,3.61786 6.013564,6.013564 0 0 0 -2.32027,-0.46664 6.013564,6.013564 0 0 0 -4.91598,2.55592 6.013564,6.013564 0 0 0 -4.15737,-2.95692 6.013564,6.013564 0 0 0 -0.0987,-0.1726 6.013564,6.013564 0 0 0 -2.74195,-3.20033 6.013564,6.013564 0 0 0 -4.72737,-2.34972 6.013564,6.013564 0 0 0 -3.54448,-1.16375 6.013564,6.013564 0 0 0 -2.76211,0.67437 6.013564,6.013564 0 0 0 -3.78839,-1.34979 6.013564,6.013564 0 0 0 -4.40025,1.92598 6.013564,6.013564 0 0 0 -3.19412,-0.92707 6.013564,6.013564 0 0 0 -2.92127,0.76533 6.013564,6.013564 0 0 0 -6.00119,-5.66839 6.013564,6.013564 0 0 0 -5.76864,4.32842 6.013564,6.013564 0 0 0 -3.121768,-0.88264 6.013564,6.013564 0 0 0 -1.41387,0.17519 6.013564,6.013564 0 0 0 -2.18126,-1.71876 6.013564,6.013564 0 0 0 -4.6209,-2.17351 v -5.2e-4 a 6.013564,6.013564 0 0 0 -5.47616,3.54242 6.013564,6.013564 0 0 0 -3.03237,-0.82682 6.013564,6.013564 0 0 0 -2.74402,0.66352 6.013564,6.013564 0 0 0 -2.87889,-0.7338 6.013564,6.013564 0 0 0 -6.01359,6.01307 6.013564,6.013564 0 0 0 1.19424,3.58686 6.013564,6.013564 0 0 0 -3.449919,1.88929 6.013564,6.013564 0 0 0 -4.67413,-2.23449 6.013564,6.013564 0 0 0 -2.30994,0.46664 6.013564,6.013564 0 0 0 -5.29631,5.96346 6.013564,6.013564 0 0 0 5.1077,5.93762 6.013564,6.013564 0 0 0 0.85007,0.92656 6.013564,6.013564 0 0 0 -3.47059,1.40198 6.013564,6.013564 0 0 0 -4.67723,5.85546 6.013564,6.013564 0 0 0 6.01359,6.01307 6.013564,6.013564 0 0 0 3.86643,-1.41542 6.013564,6.013564 0 0 0 3.41116,-2.17661 6.013564,6.013564 0 0 0 5.157309,2.93367 6.013564,6.013564 0 0 0 2.58692,-0.59066 6.013564,6.013564 0 0 0 4.4142,1.93735 6.013564,6.013564 0 0 0 6.01358,-6.01307 6.013564,6.013564 0 0 0 -0.0351,-0.5917 6.013564,6.013564 0 0 0 1.43143,-2.2133 6.013564,6.013564 0 0 0 0.22531,0.38034 6.013564,6.013564 0 0 0 -1.64951,4.12636 6.013564,6.013564 0 0 0 6.01359,6.01359 6.013564,6.013564 0 0 0 6.01358,-6.01359 6.013564,6.013564 0 0 0 -0.0977,-1.06608 6.013564,6.013564 0 0 0 0.40772,-0.14263 6.013564,6.013564 0 0 0 3.899498,1.60507 6.013564,6.013564 0 0 0 0.24909,0.23668 6.013564,6.013564 0 0 0 5.1232,2.87424 6.013564,6.013564 0 0 0 1.67741,-0.24184 6.013564,6.013564 0 0 0 1.8526,0.2961 6.013564,6.013564 0 0 0 1.94304,-0.33021 6.013564,6.013564 0 0 0 3.39307,-2.39675 6.013564,6.013564 0 0 0 1.89394,0.37052 6.013564,6.013564 0 0 0 5.54695,3.7052 6.013564,6.013564 0 0 0 5.69578,-4.10001 6.013564,6.013564 0 0 0 3.35948,1.32343 6.013564,6.013564 0 0 0 0.71934,1.57717 6.013564,6.013564 0 0 0 5.68234,4.06745 6.013564,6.013564 0 0 0 3.37137,-1.04076 6.013564,6.013564 0 0 0 5.73557,4.22816 6.013564,6.013564 0 0 0 6.01358,-6.0141 6.013564,6.013564 0 0 0 -0.0548,-0.75551 6.013564,6.013564 0 0 0 1.36632,-1.10639 6.013564,6.013564 0 0 0 3.54552,1.45159 6.013564,6.013564 0 0 0 5.76452,4.31653 6.013564,6.013564 0 0 0 3.95945,-1.49707 6.013564,6.013564 0 0 0 1.29552,0.1447 6.013564,6.013564 0 0 0 5.84926,-4.64468 6.013564,6.013564 0 0 0 3.04633,0.83664 6.013564,6.013564 0 0 0 0.76067,-0.0558 6.013564,6.013564 0 0 0 5.22449,3.05098 6.013564,6.013564 0 0 0 2.95331,-0.78393 6.013564,6.013564 0 0 0 0.46095,0.0233 6.013564,6.013564 0 0 0 4.0597,-1.58595 6.013564,6.013564 0 0 0 5.72523,4.19716 6.013564,6.013564 0 0 0 3.0055,-0.8139 6.013564,6.013564 0 0 0 5.93866,-5.63687 6.013564,6.013564 0 0 0 1.36943,-0.96997 6.013564,6.013564 0 0 0 5.1294,2.8851 6.013564,6.013564 0 0 0 1.80712,-0.28474 6.013564,6.013564 0 0 0 -0.002,0.045 6.013564,6.013564 0 0 0 4.84001,5.89215 z"
       style="opacity:1;fill:url(#linearGradient4682);fill-opacity:1;stroke:none;stroke-width:2;stroke-miterlimit:4;stroke-dasharray:none;stroke-opacity:1" />
    <path
       style="fill:url(#linearGradient2068);fill-opacity:1;stroke:none;stroke-width:0.26458332px;stroke-linecap:butt;stroke-linejoin:miter;stroke-opacity:1"
       d="m -431.86885,141.13355 c 0,0 8.84346,-68.953511 20.57975,-66.550122 23.64496,4.842074 45.3912,28.929602 55.05752,56.393872 2.84782,-5.40937 15.27108,-24.73961 20.04522,-23.78699 6.76126,1.34912 23.51972,34.74504 23.51972,34.74504 z"
       id="path2042"
       inkscape:connector-curvature="0"
       sodipodi:nodetypes="cscscc" />
    <path
       style="fill:url(#linearGradient4700);fill-opacity:1;stroke:none;stroke-width:0.26458332px;stroke-linecap:butt;stroke-linejoin:miter;stroke-opacity:1"
       d="m -262.41997,142.20262 c 0,0 9.48964,-28.14467 22.71791,-30.20146 8.52822,-1.32601 13.63075,12.82894 13.63075,12.82894 0,0 16.86803,-62.102186 43.29766,-64.946496 20.95339,-2.254968 27.39249,64.568926 26.19241,66.817386 0,0 4.26884,-8.66613 10.15625,-8.01809 10.25136,1.12838 13.89802,24.5888 13.89802,24.5888 z"
       id="path2044"
       inkscape:connector-curvature="0"
       sodipodi:nodetypes="cscscscc" />
    <path
       style="opacity:1;fill:url(#linearGradient4068);fill-opacity:1;stroke:none;stroke-width:2;stroke-miterlimit:4;stroke-dasharray:none;stroke-opacity:1"
       d="m -120.19641,135.5908 a 6.013564,6.013564 0 0 0 -5.79965,6.00274 6.013564,6.013564 0 0 0 0.002,0.0625 6.013564,6.013564 0 0 0 -0.98547,-0.35398 6.013564,6.013564 0 0 0 -2.18281,-1.29656 6.013564,6.013564 0 0 0 -3.62717,-1.22628 6.013564,6.013564 0 0 0 -4.87257,2.49907 6.013564,6.013564 0 0 0 -2.29443,-0.45785 6.013564,6.013564 0 0 0 -1.78439,0.2775 6.013564,6.013564 0 0 0 -1.3379,-0.15658 6.013564,6.013564 0 0 0 -6.01359,6.01359 6.013564,6.013564 0 0 0 0.0481,0.69401 6.013564,6.013564 0 0 0 -2.24689,-0.43977 6.013564,6.013564 0 0 0 -6.00015,5.74332 6.013564,6.013564 0 0 0 -1.59474,-0.22221 6.013564,6.013564 0 0 0 -1.49448,0.19379 6.013564,6.013564 0 0 0 0.3762,-1.01544 6.013564,6.013564 0 0 0 1.28106,-3.69797 6.013564,6.013564 0 0 0 -6.01358,-6.01358 6.013564,6.013564 0 0 0 -2.47892,0.5426 6.013564,6.013564 0 0 0 -0.33952,-0.017 6.013564,6.013564 0 0 0 -0.8847,0.0708 6.013564,6.013564 0 0 0 -4.1925,-1.711 6.013564,6.013564 0 0 0 -4.48293,2.01434 6.013564,6.013564 0 0 0 -3.98994,-1.52238 6.013564,6.013564 0 0 0 -5.51336,3.61786 6.013564,6.013564 0 0 0 -2.32027,-0.46664 6.013564,6.013564 0 0 0 -4.91598,2.55592 6.013564,6.013564 0 0 0 -4.15737,-2.95692 6.013564,6.013564 0 0 0 -0.0987,-0.1726 6.013564,6.013564 0 0 0 -2.74195,-3.20033 6.013564,6.013564 0 0 0 -4.72737,-2.34972 6.013564,6.013564 0 0 0 -3.54448,-1.16375 6.013564,6.013564 0 0 0 -2.76211,0.67437 6.013564,6.013564 0 0 0 -3.78839,-1.34979 6.013564,6.013564 0 0 0 -4.40025,1.92598 6.013564,6.013564 0 0 0 -3.19412,-0.92707 6.013564,6.013564 0 0 0 -2.92127,0.76533 6.013564,6.013564 0 0 0 -6.00119,-5.66839 6.013564,6.013564 0 0 0 -5.76864,4.32842 6.013564,6.013564 0 0 0 -3.12177,-0.88264 6.013564,6.013564 0 0 0 -1.41387,0.17519 6.013564,6.013564 0 0 0 -2.18126,-1.71876 6.013564,6.013564 0 0 0 -4.6209,-2.17351 v -5.2e-4 a 6.013564,6.013564 0 0 0 -5.47616,3.54242 6.013564,6.013564 0 0 0 -3.03237,-0.82682 6.013564,6.013564 0 0 0 -2.74402,0.66352 6.013564,6.013564 0 0 0 -2.87889,-0.7338 6.013564,6.013564 0 0 0 -6.01359,6.01307 6.013564,6.013564 0 0 0 1.19424,3.58686 6.013564,6.013564 0 0 0 -3.44992,1.88929 6.013564,6.013564 0 0 0 -4.67413,-2.23449 6.013564,6.013564 0 0 0 -2.30994,0.46664 6.013564,6.013564 0 0 0 -5.29631,5.96346 6.013564,6.013564 0 0 0 5.1077,5.93762 6.013564,6.013564 0 0 0 0.85007,0.92656 6.013564,6.013564 0 0 0 -3.47059,1.40198 6.013564,6.013564 0 0 0 -4.67723,5.85546 6.013564,6.013564 0 0 0 6.01359,6.01307 6.013564,6.013564 0 0 0 3.86643,-1.41542 6.013564,6.013564 0 0 0 3.41116,-2.17661 6.013564,6.013564 0 0 0 5.15731,2.93367 6.013564,6.013564 0 0 0 2.58692,-0.59066 6.013564,6.013564 0 0 0 4.4142,1.93735 6.013564,6.013564 0 0 0 6.01358,-6.01307 6.013564,6.013564 0 0 0 -0.0351,-0.5917 6.013564,6.013564 0 0 0 1.43143,-2.2133 6.013564,6.013564 0 0 0 0.22531,0.38034 6.013564,6.013564 0 0 0 -1.64951,4.12636 6.013564,6.013564 0 0 0 6.01359,6.01359 6.013564,6.013564 0 0 0 6.01358,-6.01359 6.013564,6.013564 0 0 0 -0.0977,-1.06608 6.013564,6.013564 0 0 0 0.40772,-0.14263 6.013564,6.013564 0 0 0 3.8995,1.60507 6.013564,6.013564 0 0 0 0.24909,0.23668 6.013564,6.013564 0 0 0 5.1232,2.87424 6.013564,6.013564 0 0 0 1.67741,-0.24184 6.013564,6.013564 0 0 0 1.8526,0.2961 6.013564,6.013564 0 0 0 1.94304,-0.33021 6.013564,6.013564 0 0 0 3.39307,-2.39675 6.013564,6.013564 0 0 0 1.89394,0.37052 6.013564,6.013564 0 0 0 5.54695,3.7052 6.013564,6.013564 0 0 0 5.69578,-4.10001 6.013564,6.013564 0 0 0 3.35948,1.32343 6.013564,6.013564 0 0 0 0.71934,1.57717 6.013564,6.013564 0 0 0 5.68234,4.06745 6.013564,6.013564 0 0 0 3.37137,-1.04076 6.013564,6.013564 0 0 0 5.73557,4.22816 6.013564,6.013564 0 0 0 6.01358,-6.0141 6.013564,6.013564 0 0 0 -0.0548,-0.75551 6.013564,6.013564 0 0 0 1.36632,-1.10639 6.013564,6.013564 0 0 0 3.54552,1.45159 6.013564,6.013564 0 0 0 5.76451,4.31653 6.013564,6.013564 0 0 0 3.95945,-1.49707 6.013564,6.013564 0 0 0 1.29552,0.1447 6.013564,6.013564 0 0 0 5.84926,-4.64468 6.013564,6.013564 0 0 0 3.04633,0.83664 6.013564,6.013564 0 0 0 0.76067,-0.0558 6.013564,6.013564 0 0 0 5.22449,3.05098 6.013564,6.013564 0 0 0 2.95331,-0.78393 6.013564,6.013564 0 0 0 0.46095,0.0233 6.013564,6.013564 0 0 0 4.0597,-1.58595 6.013564,6.013564 0 0 0 5.72523,4.19716 6.013564,6.013564 0 0 0 3.0055,-0.8139 6.013564,6.013564 0 0 0 5.93866,-5.63687 6.013564,6.013564 0 0 0 1.36943,-0.96997 6.013564,6.013564 0 0 0 5.1294,2.8851 6.013564,6.013564 0 0 0 1.80712,-0.28474 6.013564,6.013564 0 0 0 -0.002,0.045 6.013564,6.013564 0 0 0 4.84001,5.89215 z"
       id="path4066"
       inkscape:connector-curvature="0" />
    <path
       style="opacity:1;fill:url(#linearGradient3796);fill-opacity:1;stroke:none;stroke-width:2;stroke-miterlimit:4;stroke-dasharray:none;stroke-opacity:1"
       d="m -458.86269,137.7928 v 41.49773 a 6.013564,6.013564 0 0 0 1.17357,0.12144 6.013564,6.013564 0 0 0 5.51078,-3.61425 6.013564,6.013564 0 0 0 1.3627,0.16278 6.013564,6.013564 0 0 0 5.50768,-3.60753 6.013564,6.013564 0 0 0 0.18397,0.047 6.013564,6.013564 0 0 0 0.34468,0.59118 6.2366069,6.2366069 0 0 0 6.13451,5.12527 6.2366069,6.2366069 0 0 0 6.23683,-6.23631 6.2366069,6.2366069 0 0 0 -0.004,-0.11007 6.2366069,6.2366069 0 0 0 2.03863,0.35036 6.2366069,6.2366069 0 0 0 1.46606,-0.1819 6.2366069,6.2366069 0 0 0 3.34554,1.70842 6.2366069,6.2366069 0 0 0 5.40587,3.14193 6.2366069,6.2366069 0 0 0 6.23683,-6.23631 6.2366069,6.2366069 0 0 0 -5.20537,-6.14381 6.2366069,6.2366069 0 0 0 -4.12688,-3.00757 6.2366069,6.2366069 0 0 0 -0.86145,-2.41691 6.2366069,6.2366069 0 0 0 2.1022,0.37311 6.2366069,6.2366069 0 0 0 6.23683,-6.23683 6.2366069,6.2366069 0 0 0 -1.08572,-3.5047 6.2366069,6.2366069 0 0 0 0.88315,-3.18533 6.2366069,6.2366069 0 0 0 -6.23683,-6.23683 6.2366069,6.2366069 0 0 0 -1.12861,0.10645 6.2366069,6.2366069 0 0 0 -2.52078,-0.53692 6.2366069,6.2366069 0 0 0 -0.0424,0.002 6.2366069,6.2366069 0 0 0 -3.8437,-4.82089 6.2366069,6.2366069 0 0 0 -2.08204,-2.14406 6.2366069,6.2366069 0 0 0 -4.04007,-1.48776 v -5.2e-4 a 6.2366069,6.2366069 0 0 0 -5.71127,3.73879 6.2366069,6.2366069 0 0 0 -4.94854,3.83284 6.013564,6.013564 0 0 0 -2.46238,4.84467 6.013564,6.013564 0 0 0 0.0424,0.65009 6.013564,6.013564 0 0 0 -2.07739,-0.39791 6.013564,6.013564 0 0 0 -2.20245,-2.78019 6.013564,6.013564 0 0 0 -5.41879,-3.4184 6.013564,6.013564 0 0 0 -0.21394,0.0109 z"
       id="path3794"
       inkscape:connector-curvature="0" />
    <rect
       style="opacity:1;fill:url(#linearGradient4702);fill-opacity:1;stroke:none;stroke-width:2;stroke-miterlimit:4;stroke-dasharray:none;stroke-opacity:1"
       id="rect3798"
       width="338.93393"
       height="38.219536"
       x="-459.13034"
       y="158.2388" />
    <path
       inkscape:connector-curvature="0"
       id="path4680"
       d="m -120.7252,135.59084 v 41.49773 a 6.013564,6.013564 0 0 0 1.17357,0.12144 6.013564,6.013564 0 0 0 5.51078,-3.61425 6.013564,6.013564 0 0 0 1.3627,0.16278 6.013564,6.013564 0 0 0 5.50768,-3.60753 6.013564,6.013564 0 0 0 0.18397,0.047 6.013564,6.013564 0 0 0 0.34468,0.59118 6.2366069,6.2366069 0 0 0 6.13451,5.12527 6.2366069,6.2366069 0 0 0 6.236829,-6.23631 6.2366069,6.2366069 0 0 0 -0.004,-0.11007 6.2366069,6.2366069 0 0 0 2.03863,0.35036 6.2366069,6.2366069 0 0 0 1.46606,-0.1819 6.2366069,6.2366069 0 0 0 3.34554,1.70842 6.2366069,6.2366069 0 0 0 5.40587,3.14193 6.2366069,6.2366069 0 0 0 6.23683,-6.23631 6.2366069,6.2366069 0 0 0 -5.20537,-6.14381 6.2366069,6.2366069 0 0 0 -4.12688,-3.00757 6.2366069,6.2366069 0 0 0 -0.86145,-2.41691 6.2366069,6.2366069 0 0 0 2.1022,0.37311 6.2366069,6.2366069 0 0 0 6.23683,-6.23683 6.2366069,6.2366069 0 0 0 -1.08572,-3.5047 6.2366069,6.2366069 0 0 0 0.88315,-3.18533 6.2366069,6.2366069 0 0 0 -6.23683,-6.23683 6.2366069,6.2366069 0 0 0 -1.12861,0.10645 6.2366069,6.2366069 0 0 0 -2.52078,-0.53692 6.2366069,6.2366069 0 0 0 -0.0424,0.002 6.2366069,6.2366069 0 0 0 -3.8437,-4.82089 6.2366069,6.2366069 0 0 0 -2.08204,-2.14406 6.2366069,6.2366069 0 0 0 -4.04007,-1.48776 v -5.2e-4 a 6.2366069,6.2366069 0 0 0 -5.711269,3.73879 6.2366069,6.2366069 0 0 0 -4.94854,3.83284 6.013564,6.013564 0 0 0 -2.46238,4.84467 6.013564,6.013564 0 0 0 0.0424,0.65009 6.013564,6.013564 0 0 0 -2.07739,-0.39791 6.013564,6.013564 0 0 0 -2.20245,-2.78019 6.013564,6.013564 0 0 0 -5.41879,-3.4184 6.013564,6.013564 0 0 0 -0.21394,0.0109 z"
       style="opacity:1;fill:url(#linearGradient4684);fill-opacity:1;stroke:none;stroke-width:2;stroke-miterlimit:4;stroke-dasharray:none;stroke-opacity:1" />
    <rect
       y="158.2388"
       x="-459.13034"
       height="38.219536"
       width="338.93393"
       id="rect4662"
       style="opacity:1;fill:url(#linearGradient3806);fill-opacity:1;stroke:none;stroke-width:2;stroke-miterlimit:4;stroke-dasharray:none;stroke-opacity:1" />
    <rect
       style="opacity:1;fill:url(#linearGradient4668);fill-opacity:1;stroke:none;stroke-width:2;stroke-miterlimit:4;stroke-dasharray:none;stroke-opacity:1"
       id="rect4666"
       width="338.93393"
       height="38.219536"
       x="-120.19641"
       y="158.2388" />
    <path
       sodipodi:nodetypes="cscscscc"
       inkscape:connector-curvature="0"
       id="path4690"
       d="m -262.41997,142.20262 c 0,0 9.48964,-28.14467 22.71791,-30.20146 8.52822,-1.32601 13.63075,12.82894 13.63075,12.82894 0,0 16.86803,-62.102186 43.29766,-64.946496 20.95339,-2.254968 27.39249,64.568926 26.19241,66.817386 0,0 4.26884,-8.66613 10.15625,-8.01809 10.25136,1.12838 13.89802,24.5888 13.89802,24.5888 z"
       style="fill:url(#linearGradient2076);fill-opacity:1;stroke:none;stroke-width:0.26458332px;stroke-linecap:butt;stroke-linejoin:miter;stroke-opacity:1" />
    <path
       sodipodi:nodetypes="cscscc"
       inkscape:connector-curvature="0"
       id="path4692"
       d="m -99.031648,141.56111 c 0,0 8.84346,-68.953511 20.57975,-66.550122 23.64496,4.842074 45.3912,28.929602 55.05752,56.393872 2.84782,-5.40937 15.27108,-24.73961 20.04522,-23.78699 6.76126,1.34912 23.51972,34.74504 23.51972,34.74504 z"
       style="fill:url(#linearGradient4696);fill-opacity:1;stroke:none;stroke-width:0.26458332px;stroke-linecap:butt;stroke-linejoin:miter;stroke-opacity:1" />
    <path
       style="fill:url(#linearGradient4698);fill-opacity:1;stroke:none;stroke-width:0.26458332px;stroke-linecap:butt;stroke-linejoin:miter;stroke-opacity:1"
       d="m 70.417232,142.63018 c 0,0 9.48964,-28.14467 22.71791,-30.20146 8.528218,-1.32601 13.630748,12.82894 13.630748,12.82894 0,0 16.86803,-62.102186 43.29766,-64.946496 20.95339,-2.254968 27.39249,64.568926 26.19241,66.817386 0,0 4.26884,-8.66613 10.15625,-8.01809 10.25136,1.12838 13.89802,24.5888 13.89802,24.5888 z"
       id="path4694"
       inkscape:connector-curvature="0"
       sodipodi:nodetypes="cscscscc" />
  </g>
</svg>
