<?xml version="1.0" encoding="UTF-8"?>
<svg version="1.1" viewBox="0 0 370.27067 541.48742" xmlns="http://www.w3.org/2000/svg" xmlns:xlink="http://www.w3.org/1999/xlink">
 <defs>
  <clipPath id="b">
   <path d="m435.85 570.76c13.509 16.729 33.148 24.578 43.571 31.466-8.989-8.201-29.577-17.459-42.001-36.625-11.215-17.302-5.693-33.296-1.208-40.414-1.528 0.569-3.041 1.559-4.23 3.239-3.852 5.459-11.15 23.733 3.868 42.334"/>
  </clipPath>
  <clipPath id="c">
   <path d="m492.82 620.53s-1.181-8.485-10.269-16.019-31.685-15.146-46.705-33.749-7.72-36.875-3.868-42.334c2.211-3.134 5.562-3.876 8.019-3.935-0.91 4.277-1.486 9.019-1.24 13.954 1.975 19.781 17.473 32.284 19.949 34.611 1.349 1.202 3.866 3.206 6.919 5.426 3.133 2.181 6.435 4.655 9.461 7.536 6.074 5.517 10.949 11.079 10.935 11.079 0.012 0-4.141-6.116-9.656-12.355-2.642-3.15-5.994-6.258-8.846-8.643-2.823-2.472-5.122-4.588-6.416-5.743-1.264-1.176-5.338-4.717-9.235-10.434-1.967-2.905-3.76-6.166-5.493-10.141-1.684-3.434-2.509-7.461-2.548-11.521-0.062-7.086 1.858-14.012 3.846-19.377 2.668-1.382 6.865-1.834 13.43 0.615 5.236 2.902 9.737 6.218 13.616 9.831l-6.202 8.169 11.594-2.494c3.872 4.61 6.918 9.569 9.3 14.689l-11.267 3.398 14.096 3.661c2.466 7.16 3.802 14.474 4.41 21.474l-11.195-1.946-0.114-0.047 0.067 0.04-1.22-0.213 12.821 8.513c0.57 19.967-4.189 35.955-4.189 35.955"/>
  </clipPath>
  <linearGradient id="a" x1="500.87" x2="463.88" y1="575.8" y2="539.75" gradientTransform="matrix(-60.285 -9.4312 -48.457 309.74 509.04 413.06)" gradientUnits="userSpaceOnUse">
   <stop stop-color="#9ed747" offset="0"/>
   <stop stop-color="#7fcc2b" offset="1"/>
  </linearGradient>
 </defs>
 <g transform="matrix(5.2687 0 0 -5.2687 -2248.6 3269.4)" fill="url(#a)">
  <g clip-path="url(#c)" fill="url(#a)">
   <g fill="url(#a)">
    <g fill="url(#a)">
     <path d="m0 0h810v751h-810v-751z" fill="url(#a)"/>
    </g>
   </g>
  </g>
 </g>
 <g transform="matrix(5.2687 0 0 -5.2687 -2248.6 3269.4)" fill="#7fb820">
  <g clip-path="url(#b)" fill="#7fb820">
   <g fill="#7fb820">
    <g fill="#7fb820">
     <path d="m10.846 10.032h810v751h-810v-751z" fill="#7fb820"/>
    </g>
   </g>
  </g>
 </g>
</svg>
