<?xml version="1.0" encoding="UTF-8" standalone="no"?>
<!-- Created with Inkscape (http://www.inkscape.org/) -->

<svg
   xmlns:dc="http://purl.org/dc/elements/1.1/"
   xmlns:cc="http://creativecommons.org/ns#"
   xmlns:rdf="http://www.w3.org/1999/02/22-rdf-syntax-ns#"
   xmlns:svg="http://www.w3.org/2000/svg"
   xmlns="http://www.w3.org/2000/svg"
   xmlns:sodipodi="http://sodipodi.sourceforge.net/DTD/sodipodi-0.dtd"
   xmlns:inkscape="http://www.inkscape.org/namespaces/inkscape"
   width="26.621235"
   height="50.581081"
   viewBox="0 0 7.0435349 13.382912"
   version="1.1"
   id="svg8"
   inkscape:version="0.92.3 (unknown)"
   sodipodi:docname="RealisticLeaves.svg">
  <defs
     id="defs2" />
  <sodipodi:namedview
     id="base"
     pagecolor="#ffffff"
     bordercolor="#666666"
     borderopacity="1.0"
     inkscape:pageopacity="0.0"
     inkscape:pageshadow="2"
     inkscape:zoom="16.805075"
     inkscape:cx="13.310618"
     inkscape:cy="32.895914"
     inkscape:document-units="mm"
     inkscape:current-layer="layer1"
     showgrid="false"
     inkscape:window-width="1920"
     inkscape:window-height="1029"
     inkscape:window-x="0"
     inkscape:window-y="0"
     inkscape:window-maximized="1"
     units="px"
     fit-margin-top="0"
     fit-margin-left="0"
     fit-margin-right="0"
     fit-margin-bottom="0" />
  <metadata
     id="metadata5">
    <rdf:RDF>
      <cc:Work
         rdf:about="">
        <dc:format>image/svg+xml</dc:format>
        <dc:type
           rdf:resource="http://purl.org/dc/dcmitype/StillImage" />
        <dc:title></dc:title>
      </cc:Work>
    </rdf:RDF>
  </metadata>
  <g
     inkscape:label="Layer 1"
     inkscape:groupmode="layer"
     id="layer1"
     transform="translate(-94.885862,-129.67653)">
    <path
       style="opacity:0.85500004;fill:#00aa00;fill-opacity:1;stroke:none;stroke-width:0.77469778;stroke-miterlimit:4;stroke-dasharray:none"
       d="m 100.73077,141.30676 a 0.32941946,0.32941946 0 0 0 -0.0317,-0.21932 0.32941946,0.32941946 0 0 0 -0.26037,-0.27918 0.32941946,0.32941946 0 0 0 -0.3842,0.2404 0.32941946,0.32941946 0 0 0 -0.0672,0.0411 0.32941946,0.32941946 0 0 0 -0.01363,-0.008 0.32941946,0.32941946 0 0 0 -0.130091,-0.11148 0.32941946,0.32941946 0 0 0 0.09022,-0.16711 0.32941946,0.32941946 0 0 0 -0.190533,-0.3673 0.32941946,0.32941946 0 0 0 -0.245018,-0.21415 0.32941946,0.32941946 0 0 0 -0.388379,0.25691 0.32941946,0.32941946 0 0 0 0.190529,0.3673 0.32941946,0.32941946 0 0 0 0.168954,0.18845 0.32941946,0.32941946 0 0 0 -0.09002,0.16714 0.32941946,0.32941946 0 0 0 0.162474,0.35362 0.32941946,0.32941946 0 0 0 0.206155,0.13719 0.32941946,0.32941946 0 0 0 0.271149,-0.0655 0.32941946,0.32941946 0 0 0 0.108,0.0435 0.32941946,0.32941946 0 0 0 0.3086,-0.10096 0.32941946,0.32941946 0 0 0 0.29508,-0.26224 z m 0.13737,-1.53762 a 0.32941946,0.32941946 0 0 0 -0.25687,-0.38857 0.32941946,0.32941946 0 0 0 -0.38862,0.25707 0.32941946,0.32941946 0 0 0 0.25707,0.38862 0.32941946,0.32941946 0 0 0 0.38842,-0.25712 z m 1.05462,-7.31449 a 0.32941946,0.32941946 0 0 0 -0.0899,-0.29878 0.32941946,0.32941946 0 0 0 0.0879,-0.16453 0.32941946,0.32941946 0 0 0 -0.25708,-0.38862 0.32941946,0.32941946 0 0 0 -0.38861,0.25708 0.32941946,0.32941946 0 0 0 0.0902,0.29843 0.32941946,0.32941946 0 0 0 -0.0879,0.16492 0.32941946,0.32941946 0 0 0 -0.003,0.0206 0.32941946,0.32941946 0 0 0 -0.0779,-0.0267 0.32941946,0.32941946 0 0 0 -0.38862,0.25707 0.32941946,0.32941946 0 0 0 0.0401,0.23412 0.32941946,0.32941946 0 0 0 -0.11694,0.15083 0.32941946,0.32941946 0 0 0 -0.002,-0.002 0.32941946,0.32941946 0 0 0 -0.25824,-0.38191 0.32941946,0.32941946 0 0 0 -0.38862,0.25708 0.32941946,0.32941946 0 0 0 0.0857,0.29426 0.32941946,0.32941946 0 0 0 0.25823,0.3819 0.32941946,0.32941946 0 0 0 0.37304,-0.2057 0.32941946,0.32941946 0 0 0 0.17306,0.0961 0.32941946,0.32941946 0 0 0 0.38862,-0.25707 0.32941946,0.32941946 0 0 0 -0.0401,-0.23412 0.32941946,0.32941946 0 0 0 0.13211,-0.20228 0.32941946,0.32941946 0 0 0 0.003,-0.0208 0.32941946,0.32941946 0 0 0 0.0779,0.0267 0.32941946,0.32941946 0 0 0 0.38857,-0.25688 z m -1.47215,6.44806 a 0.32941946,0.32941946 0 0 0 -0.25712,-0.38842 0.32941946,0.32941946 0 0 0 -0.388375,0.25692 0.32941946,0.32941946 0 0 0 0.01468,0.18256 0.32941946,0.32941946 0 0 0 -0.320214,0.26324 0.32941946,0.32941946 0 0 0 0.257072,0.38862 0.32941946,0.32941946 0 0 0 0.388427,-0.25712 0.32941946,0.32941946 0 0 0 -0.015,-0.1824 0.32941946,0.32941946 0 0 0 0.32045,-0.2634 z m -0.791123,3.52832 a 0.32941946,0.32941946 0 0 0 -0.257071,-0.38861 0.32941946,0.32941946 0 0 0 -0.388423,0.25711 0.32941946,0.32941946 0 0 0 0.256918,0.38838 0.32941946,0.32941946 0 0 0 0.388576,-0.25688 z m 1.042573,-5.40835 a 0.32941946,0.32941946 0 0 0 -0.25711,-0.38842 0.32941946,0.32941946 0 0 0 -0.38858,0.25688 0.32941946,0.32941946 0 0 0 0.25707,0.38861 0.32941946,0.32941946 0 0 0 0.38862,-0.25707 z m -0.11542,-0.98465 a 0.32941946,0.32941946 0 0 0 -0.25688,-0.38858 0.32941946,0.32941946 0 0 0 -0.13548,0.001 0.32941946,0.32941946 0 0 0 -0.260329,-0.27835 0.32941946,0.32941946 0 0 0 -0.319125,0.1125 0.32941946,0.32941946 0 0 0 -0.09483,0.0493 0.32941946,0.32941946 0 0 0 -0.07568,-0.23012 0.32941946,0.32941946 0 0 0 -0.263176,-0.31856 0.32941946,0.32941946 0 0 0 -0.02057,-0.003 0.32941946,0.32941946 0 0 0 0.0031,-0.0122 0.32941946,0.32941946 0 0 0 -0.257072,-0.38862 0.32941946,0.32941946 0 0 0 -0.154101,0.005 0.32941946,0.32941946 0 0 0 -0.03279,-0.0847 0.32941946,0.32941946 0 0 0 0.01716,-0.0562 0.32941946,0.32941946 0 0 0 0.0038,-0.10566 0.32941946,0.32941946 0 0 0 5.03e-4,-0.002 0.32941946,0.32941946 0 0 0 0.24096,-0.25325 0.32941946,0.32941946 0 0 0 -0.112858,-0.3194 0.32941946,0.32941946 0 0 0 0.376182,-0.2592 0.32941946,0.32941946 0 0 0 -0.0096,-0.1666 0.32941946,0.32941946 0 0 0 0.078,-0.15427 0.32941946,0.32941946 0 0 0 0.0047,-0.034 0.32941946,0.32941946 0 0 0 0.09589,-0.16187 0.32941946,0.32941946 0 0 0 0.101455,0.0395 0.32941946,0.32941946 0 0 0 0.388422,-0.25711 0.32941946,0.32941946 0 0 0 -0.102292,-0.3101 0.32941946,0.32941946 0 0 0 0.260761,-0.25718 0.32941946,0.32941946 0 0 0 -0.107614,-0.31506 0.32941946,0.32941946 0 0 0 -0.258482,-0.37971 0.32941946,0.32941946 0 0 0 -0.193996,0.0197 0.32941946,0.32941946 0 0 0 -0.262367,-0.34659 0.32941946,0.32941946 0 0 0 -0.388422,0.25712 0.32941946,0.32941946 0 0 0 -0.0014,0.008 0.32941946,0.32941946 0 0 0 -0.123614,0.10841 0.32941946,0.32941946 0 0 0 -0.02019,-0.005 0.32941946,0.32941946 0 0 0 -0.358834,0.17306 0.32941946,0.32941946 0 0 0 -0.03101,-0.0122 0.32941946,0.32941946 0 0 0 -0.137718,-0.064 0.32941946,0.32941946 0 0 0 -0.362791,0.18144 0.32941946,0.32941946 0 0 0 -0.08321,-0.11296 0.32941946,0.32941946 0 0 0 -0.26163,-0.28904 0.32941946,0.32941946 0 0 0 -0.388381,0.25692 0.32941946,0.32941946 0 0 0 0.100373,0.30848 0.32941946,0.32941946 0 0 0 -0.06089,0.13345 0.32941946,0.32941946 0 0 0 -0.002,0.12094 0.32941946,0.32941946 0 0 0 -0.0879,-0.0318 0.32941946,0.32941946 0 0 0 -0.388421,0.25711 0.32941946,0.32941946 0 0 0 0.256878,0.38858 0.32941946,0.32941946 0 0 0 0.129075,1.5e-4 0.32941946,0.32941946 0 0 0 -0.122828,0.1958 0.32941946,0.32941946 0 0 0 0.08891,0.29757 0.32941946,0.32941946 0 0 0 -0.04898,0.11709 0.32941946,0.32941946 0 0 0 -0.0058,0.0838 0.32941946,0.32941946 0 0 0 -0.151652,-0.0758 0.32941946,0.32941946 0 0 0 -0.115089,-0.003 0.32941946,0.32941946 0 0 0 -0.07677,-0.0263 0.32941946,0.32941946 0 0 0 -0.38842,0.25712 0.32941946,0.32941946 0 0 0 0.02856,0.21377 0.32941946,0.32941946 0 0 0 -0.01729,-0.004 0.32941946,0.32941946 0 0 0 -0.388617,0.25707 0.32941946,0.32941946 0 0 0 0.03562,0.22624 0.32941946,0.32941946 0 0 0 -0.354637,0.26175 0.32941946,0.32941946 0 0 0 -9.69e-4,0.006 0.32941946,0.32941946 0 0 1 -2.41e-4,1.6e-4 0.32941946,0.32941946 0 0 0 -0.145065,0.2117 0.32941946,0.32941946 0 0 0 0.256917,0.38839 0.32941946,0.32941946 0 0 0 0.388578,-0.25688 0.32941946,0.32941946 0 0 0 9.68e-4,-0.006 0.32941946,0.32941946 0 0 1 2.42e-4,-1.7e-4 0.32941946,0.32941946 0 0 0 0.117377,-0.13195 0.32941946,0.32941946 0 0 0 0.188965,0.11429 0.32941946,0.32941946 0 0 0 0.136342,-0.002 0.32941946,0.32941946 0 0 0 -0.214157,0.24502 0.32941946,0.32941946 0 0 0 -0.0011,0.006 0.32941946,0.32941946 0 0 0 -0.05857,0.0859 0.32941946,0.32941946 0 0 0 -0.381515,0.25831 0.32941946,0.32941946 0 0 0 0.05194,0.25245 0.32941946,0.32941946 0 0 0 -0.04463,0.1098 0.32941946,0.32941946 0 0 0 0.139441,0.33932 0.32941946,0.32941946 0 0 0 -0.09393,0.17125 0.32941946,0.32941946 0 0 0 0.03578,0.22649 0.32941946,0.32941946 0 0 0 -0.132587,0.2026 0.32941946,0.32941946 0 0 0 0.226247,0.38049 0.32941946,0.32941946 0 0 0 0.241353,0.24017 0.32941946,0.32941946 0 0 0 -0.181133,0.23132 0.32941946,0.32941946 0 0 0 0.19598,0.36963 0.32941946,0.32941946 0 0 0 0.260371,0.27918 0.32941946,0.32941946 0 0 0 0.378275,-0.21934 0.32941946,0.32941946 0 0 0 0.143122,-0.0858 0.32941946,0.32941946 0 0 0 0.01529,-0.006 0.32941946,0.32941946 0 0 0 0.08904,0.0322 0.32941946,0.32941946 0 0 0 -0.02662,0.0775 0.32941946,0.32941946 0 0 0 -0.0024,0.0136 0.32941946,0.32941946 0 0 0 -0.318174,0.26325 0.32941946,0.32941946 0 0 0 0.03593,0.22672 0.32941946,0.32941946 0 0 0 -0.0047,-0.001 0.32941946,0.32941946 0 0 0 -0.388617,0.25708 0.32941946,0.32941946 0 0 0 0.0086,0.16353 0.32941946,0.32941946 0 0 0 -0.1654,0.22329 0.32941946,0.32941946 0 0 0 0.256917,0.38838 0.32941946,0.32941946 0 0 0 0.114618,0.003 0.32941946,0.32941946 0 0 0 0.255794,0.25251 0.32941946,0.32941946 0 0 0 0.388616,-0.25707 0.32941946,0.32941946 0 0 0 0.0011,-0.1246 0.32941946,0.32941946 0 0 0 0.02867,-0.0485 0.32941946,0.32941946 0 0 0 0.08943,0.0323 0.32941946,0.32941946 0 0 0 0.388576,-0.25688 0.32941946,0.32941946 0 0 0 -0.0073,-0.15961 0.32941946,0.32941946 0 0 0 0.117829,0.0493 0.32941946,0.32941946 0 0 0 0.104604,0.004 0.32941946,0.32941946 0 0 0 -0.20233,0.20903 0.32941946,0.32941946 0 0 0 -0.12444,0.1967 0.32941946,0.32941946 0 0 0 0.181988,0.3631 0.32941946,0.32941946 0 0 0 0.248901,0.22619 0.32941946,0.32941946 0 0 0 0.38842,-0.25712 0.32941946,0.32941946 0 0 0 -0.08234,-0.29071 0.32941946,0.32941946 0 0 0 0.02381,-0.0717 0.32941946,0.32941946 0 0 0 0.0063,-0.0582 0.32941946,0.32941946 0 0 0 0.14124,0.0668 0.32941946,0.32941946 0 0 0 0.30139,-0.0926 0.32941946,0.32941946 0 0 0 0.131844,0.0598 0.32941946,0.32941946 0 0 0 0.388615,-0.25707 0.32941946,0.32941946 0 0 0 -0.257072,-0.38862 0.32941946,0.32941946 0 0 0 -0.301273,0.0931 0.32941946,0.32941946 0 0 0 -0.04112,-0.0268 0.32941946,0.32941946 0 0 0 -0.198615,-0.12708 0.32941946,0.32941946 0 0 0 -0.329696,0.12628 0.32941946,0.32941946 0 0 0 0.0083,-0.0318 0.32941946,0.32941946 0 0 0 -0.07937,-0.28725 0.32941946,0.32941946 0 0 0 0.0027,-0.0103 0.32941946,0.32941946 0 0 0 0.0064,-0.0585 0.32941946,0.32941946 0 0 0 9.3e-4,-0.003 0.32941946,0.32941946 0 0 0 0.0057,-0.046 0.32941946,0.32941946 0 0 0 0.07176,-0.0444 0.32941946,0.32941946 0 0 0 0.21783,-0.0755 0.32941946,0.32941946 0 0 0 0.143511,0.0687 0.32941946,0.32941946 0 0 0 0.24863,-0.0492 0.32941946,0.32941946 0 0 0 0.182556,0.22595 0.32941946,0.32941946 0 0 0 0.261669,0.28885 0.32941946,0.32941946 0 0 0 0.388422,-0.25712 0.32941946,0.32941946 0 0 0 -0.184575,-0.36445 0.32941946,0.32941946 0 0 0 -0.237825,-0.28255 0.32941946,0.32941946 0 0 0 0.285701,-0.26129 0.32941946,0.32941946 0 0 0 -0.256874,-0.38858 0.32941946,0.32941946 0 0 0 -0.0887,-0.006 0.32941946,0.32941946 0 0 0 -0.03684,-0.16807 0.32941946,0.32941946 0 0 0 0.192613,-0.23654 0.32941946,0.32941946 0 0 0 0.0019,-0.12134 0.32941946,0.32941946 0 0 0 0.07489,-0.15102 0.32941946,0.32941946 0 0 0 0.0023,-0.0148 0.32941946,0.32941946 0 0 0 0.157771,-0.21891 0.32941946,0.32941946 0 0 0 -0.0478,-0.2467 0.32941946,0.32941946 0 0 0 0.136091,-0.11752 0.32941946,0.32941946 0 0 0 0.205035,-0.088 0.32941946,0.32941946 0 0 0 0.256526,0.25695 0.32941946,0.32941946 0 0 0 0.38842,-0.25711 z m 0.46805,-3.8928 a 0.32941946,0.32941946 0 0 0 -0.24213,-0.38476 0.32941946,0.32941946 0 0 0 -0.23619,-0.19234 0.32941946,0.32941946 0 0 0 -0.38861,0.25708 0.32941946,0.32941946 0 0 0 0.24213,0.38475 0.32941946,0.32941946 0 0 0 0.23618,0.19234 0.32941946,0.32941946 0 0 0 0.38862,-0.25707 z m -2.050423,9.91025 a 0.32941946,0.32941946 0 0 0 -0.257073,-0.38861 0.32941946,0.32941946 0 0 0 -0.38842,0.25711 0.32941946,0.32941946 0 0 0 0.256877,0.38857 0.32941946,0.32941946 0 0 0 0.388616,-0.25707 z m 0.131835,-1.70298 a 0.32941946,0.32941946 0 0 0 -0.256879,-0.38858 0.32941946,0.32941946 0 0 0 -0.388616,0.25707 0.32941946,0.32941946 0 0 0 -0.0061,0.077 0.32941946,0.32941946 0 0 0 -0.02522,-0.007 0.32941946,0.32941946 0 0 0 -0.09706,-0.005 0.32941946,0.32941946 0 0 0 -0.375552,0.25912 0.32941946,0.32941946 0 0 0 0.232404,0.38237 0.32941946,0.32941946 0 0 0 0.25911,0.26932 0.32941946,0.32941946 0 0 0 0.388617,-0.25707 0.32941946,0.32941946 0 0 0 -0.132316,-0.33419 0.32941946,0.32941946 0 0 0 0.01321,0.003 0.32941946,0.32941946 0 0 0 0.38838,-0.25692 z m 1.080598,-5.48171 a 0.32941946,0.32941946 0 0 0 -0.256916,-0.38838 0.32941946,0.32941946 0 0 0 -0.20363,0.0239 0.32941946,0.32941946 0 0 0 -0.212724,-0.26437 0.32941946,0.32941946 0 0 0 0.03358,-0.0344 0.32941946,0.32941946 0 0 0 0.03447,0.009 0.32941946,0.32941946 0 0 0 0.38861,-0.25707 0.32941946,0.32941946 0 0 0 -0.257066,-0.38862 0.32941946,0.32941946 0 0 0 -0.318889,0.11235 0.32941946,0.32941946 0 0 0 -0.03471,-0.009 0.32941946,0.32941946 0 0 0 -0.388619,0.25707 0.32941946,0.32941946 0 0 0 0.209466,0.37463 0.32941946,0.32941946 0 0 0 -0.102865,0.17903 0.32941946,0.32941946 0 0 0 0.126993,0.33025 0.32941946,0.32941946 0 0 0 0.26201,0.29218 0.32941946,0.32941946 0 0 0 0.214247,-0.0289 0.32941946,0.32941946 0 0 0 0.117634,0.0493 0.32941946,0.32941946 0 0 0 0.388419,-0.25712 z m -1.02771,3.17554 a 0.32941946,0.32941946 0 0 0 -0.145914,0.0534 0.32941946,0.32941946 0 0 0 -0.255055,-0.25011 0.32941946,0.32941946 0 0 0 -0.184601,0.0157 0.32941946,0.32941946 0 0 0 -0.225694,-0.22779 0.32941946,0.32941946 0 0 0 -0.245131,-0.2156 0.32941946,0.32941946 0 0 0 -0.277522,0.0707 0.32941946,0.32941946 0 0 0 -0.09914,-0.1591 0.32941946,0.32941946 0 0 0 0.261316,-0.11653 0.32941946,0.32941946 0 0 0 0.151847,0.0759 0.32941946,0.32941946 0 0 0 0.06224,0.006 0.32941946,0.32941946 0 0 0 0.136622,0.0634 0.32941946,0.32941946 0 0 0 0.235488,-0.0409 0.32941946,0.32941946 0 0 0 0.257513,0.38647 0.32941946,0.32941946 0 0 0 0.0887,0.006 0.32941946,0.32941946 0 0 0 0.239333,0.3323 z m -0.0027,-1.91977 a 0.32941946,0.32941946 0 0 0 -0.183372,0.23229 0.32941946,0.32941946 0 0 0 -0.0024,0.015 0.32941946,0.32941946 0 0 0 -0.15773,0.21872 0.32941946,0.32941946 0 0 0 -0.0039,0.0233 0.32941946,0.32941946 0 0 0 -0.109445,-0.0444 0.32941946,0.32941946 0 0 0 -0.183028,0.015 0.32941946,0.32941946 0 0 0 -0.01236,-0.0797 0.32941946,0.32941946 0 0 0 0.04244,-0.0459 0.32941946,0.32941946 0 0 0 0.333327,-0.26343 0.32941946,0.32941946 0 0 0 -0.130045,-0.3323 0.32941946,0.32941946 0 0 0 -0.147941,-0.32267 0.32941946,0.32941946 0 0 0 -0.231006,-0.18066 0.32941946,0.32941946 0 0 0 -0.367614,0.19108 0.32941946,0.32941946 0 0 0 -0.09977,-0.148 0.32941946,0.32941946 0 0 0 0.05419,-0.12461 0.32941946,0.32941946 0 0 0 0.0061,-0.0711 0.32941946,0.32941946 0 0 0 0.220444,-0.2468 0.32941946,0.32941946 0 0 0 0.0037,-0.0233 0.32941946,0.32941946 0 0 0 0.05161,0.0154 0.32941946,0.32941946 0 0 0 0.02056,0.003 0.32941946,0.32941946 0 0 0 0.07618,0.0262 0.32941946,0.32941946 0 0 0 0.154298,-0.005 0.32941946,0.32941946 0 0 0 0.254671,0.24799 0.32941946,0.32941946 0 0 0 0.02056,0.003 0.32941946,0.32941946 0 0 0 -0.0032,0.0124 0.32941946,0.32941946 0 0 0 0.06995,0.27635 0.32941946,0.32941946 0 0 0 0.263213,0.31837 0.32941946,0.32941946 0 0 0 0.02351,0.004 0.32941946,0.32941946 0 0 0 -0.01073,0.0387 0.32941946,0.32941946 0 0 0 0.04779,0.2467 z m -0.971596,3.08259 a 0.32941946,0.32941946 0 0 0 -0.03471,-0.009 0.32941946,0.32941946 0 0 0 -0.104409,-0.004 0.32941946,0.32941946 0 0 0 0.152287,-0.11279 0.32941946,0.32941946 0 0 0 -0.008,0.0315 0.32941946,0.32941946 0 0 0 -0.0051,0.0944 z m 1.104197,-6.70053 a 0.32941946,0.32941946 0 0 0 -0.05628,0.11784 0.32941946,0.32941946 0 0 0 -0.101299,-0.0392 0.32941946,0.32941946 0 0 0 -0.09349,-0.005 0.32941946,0.32941946 0 0 0 0.0177,-0.0579 0.32941946,0.32941946 0 0 0 0.0055,-0.0428 0.32941946,0.32941946 0 0 0 0.06973,-0.10061 0.32941946,0.32941946 0 0 0 0.04974,-0.0215 0.32941946,0.32941946 0 0 0 0.108442,0.14956 z m -0.606043,1.18596 a 0.32941946,0.32941946 0 0 0 -0.195952,0.0283 0.32941946,0.32941946 0 0 0 0.01728,-0.0568 0.32941946,0.32941946 0 0 0 0.0064,-0.0577 0.32941946,0.32941946 0 0 0 0.08228,-0.0318 0.32941946,0.32941946 0 0 0 0.08995,0.11802 z m -1.1651,3.55612 a 0.32941946,0.32941946 0 0 0 -0.315772,0.20634 0.32941946,0.32941946 0 0 0 -0.0257,-0.002 0.32941946,0.32941946 0 0 0 -0.211389,-0.14459 0.32941946,0.32941946 0 0 0 -0.379463,0.22217 0.32941946,0.32941946 0 0 0 -0.06257,-0.002 0.32941946,0.32941946 0 0 1 -2.01e-4,-4e-5 0.32941946,0.32941946 0 0 1 4.1e-5,-2e-4 0.32941946,0.32941946 0 0 0 -0.10849,-0.048 0.32941946,0.32941946 0 0 0 0.181133,-0.23132 0.32941946,0.32941946 0 0 0 -0.226051,-0.38045 0.32941946,0.32941946 0 0 0 -0.03229,-0.0811 0.32941946,0.32941946 0 0 0 0.132391,-0.20263 0.32941946,0.32941946 0 0 0 -0.0062,-0.15611 0.32941946,0.32941946 0 0 0 0.01306,-0.008 0.32941946,0.32941946 0 0 0 0.05862,0.0181 0.32941946,0.32941946 0 0 0 0.135283,-10e-4 0.32941946,0.32941946 0 0 0 -0.0994,0.17606 0.32941946,0.32941946 0 0 0 0.257074,0.38862 0.32941946,0.32941946 0 0 0 0.26705,-0.0624 0.32941946,0.32941946 0 0 0 0.185288,0.11026 0.32941946,0.32941946 0 0 0 0.130095,1.5e-4 0.32941946,0.32941946 0 0 0 0.107481,0.1984 z m 0.716232,-4.40912 a 0.32941946,0.32941946 0 0 0 -0.02995,7.8e-4 0.32941946,0.32941946 0 0 0 -0.208342,-0.1405 0.32941946,0.32941946 0 0 0 -0.17953,0.0139 0.32941946,0.32941946 0 0 0 -0.09985,-0.0383 0.32941946,0.32941946 0 0 0 -0.24552,0.047 0.32941946,0.32941946 0 0 0 -0.187384,0.0805 0.32941946,0.32941946 0 0 0 -0.01749,-0.004 0.32941946,0.32941946 0 0 0 -0.128878,-1.1e-4 0.32941946,0.32941946 0 0 0 0.122827,-0.1958 0.32941946,0.32941946 0 0 0 0.002,-0.12094 0.32941946,0.32941946 0 0 0 0.08774,0.0316 0.32941946,0.32941946 0 0 0 0.388576,-0.25688 0.32941946,0.32941946 0 0 0 0.0059,-0.0891 0.32941946,0.32941946 0 0 0 0.03925,-0.0633 0.32941946,0.32941946 0 0 0 0.19647,0.17771 0.32941946,0.32941946 0 0 0 0.137522,0.064 0.32941946,0.32941946 0 0 0 0.04363,0.005 0.32941946,0.32941946 0 0 0 5.04e-4,0.0316 0.32941946,0.32941946 0 0 0 -0.05533,0.12621 0.32941946,0.32941946 0 0 0 0.12789,0.33084 z m -0.358836,1.66511 a 0.32941946,0.32941946 0 0 0 -0.331041,0.21712 0.32941946,0.32941946 0 0 0 -0.220017,-0.21253 0.32941946,0.32941946 0 0 0 -0.01427,-0.0493 0.32941946,0.32941946 0 0 0 0.213275,-0.11936 0.32941946,0.32941946 0 0 0 0.151143,-0.10016 0.32941946,0.32941946 0 0 0 0.199589,0.23861 0.32941946,0.32941946 0 0 0 0.0013,0.0256 z m -0.162792,-0.72505 a 0.32941946,0.32941946 0 0 0 -0.02441,0.0516 0.32941946,0.32941946 0 0 0 -0.0463,-0.0505 0.32941946,0.32941946 0 0 0 0.04881,-0.0481 0.32941946,0.32941946 0 0 0 0.02189,0.047 z m -0.6888,2.3382 a 0.32941946,0.32941946 0 0 0 -0.09435,0.0169 0.32941946,0.32941946 0 0 0 -0.01011,-0.10277 0.32941946,0.32941946 0 0 0 0.104467,0.0858 z"
       id="path2832"
       inkscape:connector-curvature="0" />
    <path
       style="opacity:0.85500004;fill:#005500;fill-opacity:1;stroke:none;stroke-width:0.77469778;stroke-miterlimit:4;stroke-dasharray:none"
       d="m 100.79395,130.6593 a 0.29281732,0.32941946 11.514984 0 0 -0.0507,-0.26567 0.29281732,0.32941946 11.514984 0 0 0.0614,-0.14008 0.29281732,0.32941946 11.514984 0 0 -0.22118,-0.38131 0.29281732,0.32941946 11.514984 0 0 -0.35272,0.26439 0.29281732,0.32941946 11.514984 0 0 0.0507,0.26567 0.29281732,0.32941946 11.514984 0 0 -0.0614,0.14008 0.29281732,0.32941946 11.514984 0 0 0.22118,0.38131 0.29281732,0.32941946 11.514984 0 0 0.35273,-0.26439 z m -1.043416,0.07 a 0.29281732,0.32941946 11.514984 0 0 -0.22118,-0.3813 0.29281732,0.32941946 11.514984 0 0 -0.342219,0.22587 0.29281732,0.32941946 11.514984 0 0 -0.01592,-0.004 0.29281732,0.32941946 11.514984 0 0 -0.352681,0.2642 0.29281732,0.32941946 11.514984 0 0 -0.0029,0.12973 0.29281732,0.32941946 11.514984 0 0 -0.08733,-0.0356 0.29281732,0.32941946 11.514984 0 0 -0.352721,0.26438 0.29281732,0.32941946 11.514984 0 0 0.221177,0.38131 0.29281732,0.32941946 11.514984 0 0 0.273156,-0.10144 0.29281732,0.32941946 11.514984 0 0 0.179647,0.12995 0.29281732,0.32941946 11.514984 0 0 0.352723,-0.26439 0.29281732,0.32941946 11.514984 0 0 -0.0068,-0.17236 0.29281732,0.32941946 11.514984 0 0 0.06775,-0.14901 0.29281732,0.32941946 11.514984 0 0 0.0031,-0.0188 0.29281732,0.32941946 11.514984 0 0 0.284116,-0.26856 z m -0.279945,-0.6664 a 0.29281732,0.32941946 11.514984 0 0 -0.221223,-0.38111 0.29281732,0.32941946 11.514984 0 0 -0.352684,0.2642 0.29281732,0.32941946 11.514984 0 0 0.221183,0.3813 0.29281732,0.32941946 11.514984 0 0 0.352724,-0.26439 z m -0.943456,2.21748 a 0.29281732,0.32941946 11.514984 0 0 -0.221182,-0.3813 0.29281732,0.32941946 11.514984 0 0 -0.292795,0.12665 0.29281732,0.32941946 11.514984 0 0 -0.166304,-0.11723 0.29281732,0.32941946 11.514984 0 0 0.0649,-0.14509 0.29281732,0.32941946 11.514984 0 0 -0.221182,-0.3813 0.29281732,0.32941946 11.514984 0 0 -0.35272,0.26438 0.29281732,0.32941946 11.514984 0 0 0.14383,0.35186 0.29281732,0.32941946 11.514984 0 0 -0.09174,0.1766 0.29281732,0.32941946 11.514984 0 0 9.3e-4,0.15095 0.29281732,0.32941946 11.514984 0 0 -0.0022,0.001 0.29281732,0.32941946 11.514984 0 0 -0.08597,-0.0343 0.29281732,0.32941946 11.514984 0 0 -0.16766,0.0208 0.29281732,0.32941946 11.514984 0 0 -0.01438,-0.0658 0.29281732,0.32941946 11.514984 0 0 0.106322,-0.19099 0.29281732,0.32941946 11.514984 0 0 -0.0022,-0.1557 0.29281732,0.32941946 11.514984 0 0 0.06258,-0.14169 0.29281732,0.32941946 11.514984 0 0 -0.02461,-0.22012 0.29281732,0.32941946 11.514984 0 0 0.03755,-0.10205 0.29281732,0.32941946 11.514984 0 0 -0.221222,-0.38111 0.29281732,0.32941946 11.514984 0 0 -0.352681,0.2642 0.29281732,0.32941946 11.514984 0 0 0.02461,0.22012 0.29281732,0.32941946 11.514984 0 0 -0.03249,0.0822 0.29281732,0.32941946 11.514984 0 0 -0.09212,0.0401 0.29281732,0.32941946 11.514984 0 0 0.01,-0.0374 0.29281732,0.32941946 11.514984 0 0 -0.221178,-0.3813 0.29281732,0.32941946 11.514984 0 0 -0.352725,0.26439 0.29281732,0.32941946 11.514984 0 0 -0.0052,0.0369 0.29281732,0.32941946 11.514984 0 0 -0.0047,-0.001 0.29281732,0.32941946 11.514984 0 0 -0.352724,0.26438 0.29281732,0.32941946 11.514984 0 0 0.221221,0.38111 0.29281732,0.32941946 11.514984 0 0 0.07206,0.004 0.29281732,0.32941946 11.514984 0 0 0.0028,0.01 0.29281732,0.32941946 11.514984 0 0 -0.179084,0.24031 0.29281732,0.32941946 11.514984 0 0 0.221181,0.38131 0.29281732,0.32941946 11.514984 0 0 0.284746,-0.11522 0.29281732,0.32941946 11.514984 0 0 0.0765,0.14387 0.29281732,0.32941946 11.514984 0 0 0.186914,0.20457 0.29281732,0.32941946 11.514984 0 0 0.05765,0.16924 0.29281732,0.32941946 11.514984 0 0 -0.159694,0.23038 0.29281732,0.32941946 11.514984 0 0 0.221181,0.3813 0.29281732,0.32941946 11.514984 0 0 0.18272,-0.0286 0.29281732,0.32941946 11.514984 0 0 0.231003,-0.21339 0.29281732,0.32941946 11.514984 0 0 0.02106,0.001 0.29281732,0.32941946 11.514984 0 0 -0.0081,0.0318 0.29281732,0.32941946 11.514984 0 0 0.03677,0.24364 0.29281732,0.32941946 11.514984 0 0 -0.134315,0.19203 0.29281732,0.32941946 11.514984 0 0 -0.345585,0.26543 0.29281732,0.32941946 11.514984 0 0 0.01037,0.18475 0.29281732,0.32941946 11.514984 0 0 -0.0884,0.17319 0.29281732,0.32941946 11.514984 0 0 0.221218,0.38111 0.29281732,0.32941946 11.514984 0 0 0.170376,-0.0221 0.29281732,0.32941946 11.514984 0 0 -0.0654,0.14561 0.29281732,0.32941946 11.514984 0 0 0.221181,0.3813 0.29281732,0.32941946 11.514984 0 0 0.352721,-0.26439 0.29281732,0.32941946 11.514984 0 0 -0.221217,-0.38111 0.29281732,0.32941946 11.514984 0 0 -0.170179,0.0221 0.29281732,0.32941946 11.514984 0 0 0.06521,-0.14565 0.29281732,0.32941946 11.514984 0 0 -0.01037,-0.18473 0.29281732,0.32941946 11.514984 0 0 0.08175,-0.14657 0.29281732,0.32941946 11.514984 0 0 0.345424,-0.26567 0.29281732,0.32941946 11.514984 0 0 0.0062,-0.10067 0.29281732,0.32941946 11.514984 0 0 0.210026,-0.25383 0.29281732,0.32941946 11.514984 0 0 -0.15159,-0.35589 0.29281732,0.32941946 11.514984 0 0 -0.18148,-0.13298 0.29281732,0.32941946 11.514984 0 0 -0.05309,-0.005 0.29281732,0.32941946 11.514984 0 0 0.0081,-0.0318 0.29281732,0.32941946 11.514984 0 0 -0.124838,-0.33982 0.29281732,0.32941946 11.514984 0 1 4e-5,-2e-4 0.29281732,0.32941946 11.514984 0 0 0.04298,-0.0736 0.29281732,0.32941946 11.514984 0 0 0.07899,0.0304 0.29281732,0.32941946 11.514984 0 0 0.212286,0.20136 0.29281732,0.32941946 11.514984 0 0 0.35272,-0.26439 0.29281732,0.32941946 11.514984 0 0 0.0037,-0.024 0.29281732,0.32941946 11.514984 0 0 0.189074,-0.24523 0.29281732,0.32941946 11.514984 0 0 0.0071,-0.0651 0.29281732,0.32941946 11.514984 0 0 0.325456,-0.2679 z m -0.227911,-1.8253 a 0.29281732,0.32941946 11.514984 0 0 -0.221178,-0.3813 0.29281732,0.32941946 11.514984 0 0 -0.352724,0.26439 0.29281732,0.32941946 11.514984 0 0 0.221221,0.3811 0.29281732,0.32941946 11.514984 0 0 0.352681,-0.26419 z m -0.267167,0.6005 a 0.29281732,0.32941946 11.514984 0 0 -0.221182,-0.38131 0.29281732,0.32941946 11.514984 0 0 -0.197042,0.0367 0.29281732,0.32941946 11.514984 0 0 -0.057,0.0211 0.29281732,0.32941946 11.514984 0 0 -0.228146,-0.32206 0.29281732,0.32941946 11.514984 0 0 -0.35268,0.26419 0.29281732,0.32941946 11.514984 0 0 0.221177,0.38131 0.29281732,0.32941946 11.514984 0 0 0.174308,-0.0243 0.29281732,0.32941946 11.514984 0 0 0.22834,0.3221 0.29281732,0.32941946 11.514984 0 0 0.197002,-0.0365 0.29281732,0.32941946 11.514984 0 0 0.235218,-0.26116 z m -1.530959,3.90403 a 0.29281732,0.32941946 11.514984 0 0 -0.221182,-0.38131 0.29281732,0.32941946 11.514984 0 0 -0.35272,0.26439 0.29281732,0.32941946 11.514984 0 0 0.221177,0.3813 0.29281732,0.32941946 11.514984 0 0 0.352725,-0.26438 z m 0.02399,-1.07637 a 0.29281732,0.32941946 11.514984 0 0 -0.221178,-0.3813 0.29281732,0.32941946 11.514984 0 0 -0.11342,0.002 0.29281732,0.32941946 11.514984 0 0 -0.215254,-0.32617 0.29281732,0.32941946 11.514984 0 0 -0.150895,-0.0896 0.29281732,0.32941946 11.514984 0 0 -0.352724,0.26439 0.29281732,0.32941946 11.514984 0 0 0.208789,0.37796 0.29281732,0.32941946 11.514984 0 0 0.150895,0.0896 0.29281732,0.32941946 11.514984 0 0 0.11342,-0.002 0.29281732,0.32941946 11.514984 0 0 0.227686,0.32932 0.29281732,0.32941946 11.514984 0 0 0.352681,-0.26419 z m 0.03457,-1.69685 a 0.29281732,0.32941946 11.514984 0 0 -0.0148,0.0125 0.29281732,0.32941946 11.514984 0 0 0.007,-0.0206 0.29281732,0.32941946 11.514984 0 0 0.0078,0.008 z m -0.105225,0.1475 a 0.29281732,0.32941946 11.514984 0 0 -0.0022,0.007 0.29281732,0.32941946 11.514984 0 0 -0.06437,0.0633 0.29281732,0.32941946 11.514984 0 0 -0.0058,-0.0208 0.29281732,0.32941946 11.514984 0 0 0.07233,-0.0492 z m 0.03523,-0.48677 a 0.29281732,0.32941946 11.514984 0 0 -6.2e-4,0.002 0.29281732,0.32941946 11.514984 0 0 -9.69e-4,-0.001 0.29281732,0.32941946 11.514984 0 0 0.0018,-0.001 z"
       id="path3275"
       inkscape:connector-curvature="0" />
    <path
       style="opacity:0.85500004;fill:#ddff55;fill-opacity:1;stroke:none;stroke-width:0.77469778;stroke-miterlimit:4;stroke-dasharray:none"
       d="m 100.92571,137.13055 a 0.25621513,0.25621513 0 0 0 -0.0619,-0.22363 0.25621513,0.25621513 0 0 0 -0.19124,-0.1693 0.25621513,0.25621513 0 0 0 -0.22584,0.0637 0.25621513,0.25621513 0 0 0 -0.0514,-0.0164 0.25621513,0.25621513 0 0 0 -0.3022,0.19991 0.25621513,0.25621513 0 0 0 0.15944,0.29028 0.25621513,0.25621513 0 0 0 -0.10035,0.15565 0.25621513,0.25621513 0 0 0 -0.004,0.0284 0.25621513,0.25621513 0 0 0 -0.203007,0.20031 0.25621513,0.25621513 0 0 0 0.07594,0.23793 0.25621513,0.25621513 0 0 0 -0.07374,0.0271 0.25621513,0.25621513 0 0 0 -0.04039,-0.14468 0.25621513,0.25621513 0 0 0 -0.09105,-0.25 0.25621513,0.25621513 0 0 0 -0.189766,-0.1645 0.25621513,0.25621513 0 0 0 -0.302206,0.19991 0.25621513,0.25621513 0 0 0 0.09089,0.25079 0.25621513,0.25621513 0 0 0 0.02522,0.0517 0.25621513,0.25621513 0 0 0 0.02212,0.16527 0.25621513,0.25621513 0 0 0 -0.147026,0.0238 0.25621513,0.25621513 0 0 0 -0.144938,-0.0867 0.25621513,0.25621513 0 0 0 -0.302207,0.19991 0.25621513,0.25621513 0 0 0 0.01407,0.14851 0.25621513,0.25621513 0 0 0 -0.114462,-0.0558 0.25621513,0.25621513 0 0 0 -0.12545,0.006 0.25621513,0.25621513 0 0 0 -0.106063,-0.23242 0.25621513,0.25621513 0 0 0 -0.1993,-0.19892 0.25621513,0.25621513 0 0 0 -0.302205,0.19991 0.25621513,0.25621513 0 0 0 0.05032,0.21024 0.25621513,0.25621513 0 0 0 -0.0241,-0.006 0.25621513,0.25621513 0 0 0 -0.302205,0.19991 0.25621513,0.25621513 0 0 0 0.182261,0.29759 0.25621513,0.25621513 0 0 0 0.203001,0.28404 0.25621513,0.25621513 0 0 0 0.03808,0.005 0.25621513,0.25621513 0 0 0 -0.100109,0.15548 0.25621513,0.25621513 0 0 0 0.199909,0.30221 0.25621513,0.25621513 0 0 0 0.302205,-0.19991 0.25621513,0.25621513 0 0 0 4.65e-4,-0.002 0.25621513,0.25621513 0 0 0 0.19648,0.1867 0.25621513,0.25621513 0 0 0 0.300131,-0.19175 0.25621513,0.25621513 0 0 0 0.186075,0.15455 0.25621513,0.25621513 0 0 0 0.302206,-0.19991 0.25621513,0.25621513 0 0 0 -0.199911,-0.3022 0.25621513,0.25621513 0 0 0 -0.06896,-0.004 0.25621513,0.25621513 0 0 0 0.145074,-0.18167 0.25621513,0.25621513 0 0 0 -0.04379,-0.20115 0.25621513,0.25621513 0 0 0 0.0019,-0.002 0.25621513,0.25621513 0 0 0 0.274975,-0.20362 0.25621513,0.25621513 0 0 0 -0.02196,-0.16586 0.25621513,0.25621513 0 0 0 0.158469,-0.0298 0.25621513,0.25621513 0 0 0 0.204784,0.25723 0.25621513,0.25621513 0 0 0 0.3022,-0.19991 0.25621513,0.25621513 0 0 0 -0.076,-0.23773 0.25621513,0.25621513 0 0 0 0.20112,-0.20008 0.25621513,0.25621513 0 0 0 0.004,-0.0284 0.25621513,0.25621513 0 0 0 0.2032,-0.20027 0.25621513,0.25621513 0 0 0 -0.0481,-0.20713 0.25621513,0.25621513 0 0 0 0.0172,0.005 0.25621513,0.25621513 0 0 0 0.3022,-0.1999 z m -0.50998,2.08312 a 0.25621513,0.25621513 0 0 0 -0.15297,-0.28794 0.25621513,0.25621513 0 0 0 0.0464,-0.1023 0.25621513,0.25621513 0 0 0 -0.19991,-0.3022 0.25621513,0.25621513 0 0 0 -0.302203,0.19991 0.25621513,0.25621513 0 0 0 0.153011,0.28775 0.25621513,0.25621513 0 0 0 -0.04642,0.10249 0.25621513,0.25621513 0 0 0 0.199912,0.3022 0.25621513,0.25621513 0 0 0 0.3022,-0.19991 z m -0.505237,2.25037 a 0.25621513,0.25621513 0 0 0 -0.199906,-0.3022 0.25621513,0.25621513 0 0 0 -0.302206,0.19991 0.25621513,0.25621513 0 0 0 0.199911,0.30221 0.25621513,0.25621513 0 0 0 0.302201,-0.19992 z m 0.101037,-1.90679 a 0.25621513,0.25621513 0 0 0 -0.199907,-0.3022 0.25621513,0.25621513 0 0 0 -0.302206,0.19991 0.25621513,0.25621513 0 0 0 0.199911,0.3022 0.25621513,0.25621513 0 0 0 0.302202,-0.19991 z m -0.757306,1.759 a 0.25621513,0.25621513 0 0 0 -0.07081,-0.233 0.25621513,0.25621513 0 0 0 0.04587,-0.10179 0.25621513,0.25621513 0 0 0 -0.05509,-0.21591 0.25621513,0.25621513 0 0 0 0.183716,-0.19586 0.25621513,0.25621513 0 0 0 -0.0141,-0.14832 0.25621513,0.25621513 0 0 0 0.125257,-0.17161 0.25621513,0.25621513 0 0 0 -0.19991,-0.30221 0.25621513,0.25621513 0 0 0 -0.26917,0.11697 0.25621513,0.25621513 0 0 0 -0.224937,0.0984 0.25621513,0.25621513 0 0 0 0.004,-0.0159 0.25621513,0.25621513 0 0 0 -0.07425,-0.23616 0.25621513,0.25621513 0 0 0 0.05308,-0.11114 0.25621513,0.25621513 0 0 0 -0.199912,-0.3022 0.25621513,0.25621513 0 0 0 -0.05643,-0.005 0.25621513,0.25621513 0 0 0 -0.01575,-0.004 0.25621513,0.25621513 0 0 0 -0.213154,0.0526 0.25621513,0.25621513 0 0 0 -0.02546,-0.006 0.25621513,0.25621513 0 0 0 -0.302202,0.19991 0.25621513,0.25621513 0 0 0 -0.0033,0.0222 0.25621513,0.25621513 0 0 0 -0.235138,0.11837 0.25621513,0.25621513 0 0 0 -0.28204,0.2032 0.25621513,0.25621513 0 0 0 0.199912,0.30221 0.25621513,0.25621513 0 0 0 0.07104,0.004 0.25621513,0.25621513 0 0 0 -0.02386,0.067 0.25621513,0.25621513 0 0 0 0.199912,0.3022 0.25621513,0.25621513 0 0 0 0.084,0.003 0.25621513,0.25621513 0 0 0 0.11801,0.0976 0.25621513,0.25621513 0 0 0 0.09868,0.11223 0.25621513,0.25621513 0 0 0 -0.180689,0.19504 0.25621513,0.25621513 0 0 0 0.199912,0.30221 0.25621513,0.25621513 0 0 0 0.302206,-0.19991 0.25621513,0.25621513 0 0 0 -0.116258,-0.26862 0.25621513,0.25621513 0 0 0 0.180492,-0.19508 0.25621513,0.25621513 0 0 0 -0.15419,-0.28799 0.25621513,0.25621513 0 0 0 -0.182097,-0.14598 0.25621513,0.25621513 0 0 0 -0.08404,-0.003 0.25621513,0.25621513 0 0 0 -0.141964,-0.10634 0.25621513,0.25621513 0 0 0 0.178528,-0.19447 0.25621513,0.25621513 0 0 0 0.0033,-0.022 0.25621513,0.25621513 0 0 0 0.104196,-0.0141 0.25621513,0.25621513 0 0 0 -0.0048,0.0176 0.25621513,0.25621513 0 0 0 0.199908,0.30221 0.25621513,0.25621513 0 0 0 0.253543,-0.0944 0.25621513,0.25621513 0 0 0 -0.004,0.0157 0.25621513,0.25621513 0 0 0 0.125697,0.27442 0.25621513,0.25621513 0 0 0 0.05881,0.14048 0.25621513,0.25621513 0 0 0 -0.183757,0.19605 0.25621513,0.25621513 0 0 0 0.07085,0.23281 0.25621513,0.25621513 0 0 0 -0.0456,0.10041 0.25621513,0.25621513 0 0 0 -0.249853,0.20465 0.25621513,0.25621513 0 0 0 0.112968,0.26672 0.25621513,0.25621513 0 0 0 0.197174,0.18828 0.25621513,0.25621513 0 0 0 0.302207,-0.19992 0.25621513,0.25621513 0 0 0 -0.0225,-0.16719 0.25621513,0.25621513 0 0 0 0.161827,-0.18868 z m 0.781826,-5.06804 a 0.25621513,0.25621513 0 0 0 -0.199904,-0.3022 0.25621513,0.25621513 0 0 0 -0.302206,0.19991 0.25621513,0.25621513 0 0 0 -0.0046,0.0589 0.25621513,0.25621513 0 0 0 -0.202572,0.20019 0.25621513,0.25621513 0 0 0 0.199911,0.3022 0.25621513,0.25621513 0 0 0 0.302205,-0.19991 0.25621513,0.25621513 0 0 0 0.0046,-0.0589 0.25621513,0.25621513 0 0 0 0.202566,-0.20019 z m -1.517932,6.60563 a 0.25621513,0.25621513 0 0 0 -0.199909,-0.3022 0.25621513,0.25621513 0 0 0 -0.276554,0.12914 0.25621513,0.25621513 0 0 0 -0.168521,-0.24371 0.25621513,0.25621513 0 0 0 -0.200834,-0.29668 0.25621513,0.25621513 0 0 0 -0.08863,-0.002 0.25621513,0.25621513 0 0 0 0.05585,-0.11466 0.25621513,0.25621513 0 0 0 -0.199912,-0.3022 0.25621513,0.25621513 0 0 0 -0.2713,0.12041 0.25621513,0.25621513 0 0 0 -0.127536,-0.0679 0.25621513,0.25621513 0 0 0 -0.210201,0.0501 0.25621513,0.25621513 0 0 0 -0.160296,-0.10661 0.25621513,0.25621513 0 0 0 -0.302206,0.19992 0.25621513,0.25621513 0 0 0 0.199912,0.3022 0.25621513,0.25621513 0 0 0 0.156853,-0.0179 0.25621513,0.25621513 0 0 0 -0.02521,0.0696 0.25621513,0.25621513 0 0 0 0.199908,0.3022 0.25621513,0.25621513 0 0 0 0.126544,-0.006 0.25621513,0.25621513 0 0 0 0.123742,0.0644 0.25621513,0.25621513 0 0 0 0.257449,-0.0995 0.25621513,0.25621513 0 0 0 0.126321,0.0999 0.25621513,0.25621513 0 0 0 0.200837,0.29667 0.25621513,0.25621513 0 0 0 0.276591,-0.12934 0.25621513,0.25621513 0 0 0 0.204913,0.25461 0.25621513,0.25621513 0 0 0 0.302201,-0.19992 z m 0.693858,-3.90522 a 0.25621513,0.25621513 0 0 0 -0.142572,0.17339 0.25621513,0.25621513 0 0 0 -0.18611,-0.15435 0.25621513,0.25621513 0 0 0 -0.302206,0.19991 0.25621513,0.25621513 0 0 0 -4.65e-4,0.002 0.25621513,0.25621513 0 0 0 -0.196519,-0.18651 0.25621513,0.25621513 0 0 0 -0.03808,-0.005 0.25621513,0.25621513 0 0 0 0.100152,-0.15568 0.25621513,0.25621513 0 0 0 0.0015,-0.009 0.25621513,0.25621513 0 0 0 0.100329,-0.10744 0.25621513,0.25621513 0 0 0 0.117447,0.0582 0.25621513,0.25621513 0 0 0 0.245808,-0.0845 0.25621513,0.25621513 0 0 0 0.02948,0.0458 0.25621513,0.25621513 0 0 0 0.202724,0.2182 0.25621513,0.25621513 0 0 0 0.06856,0.004 z m 0.21523,-1.74033 a 0.25621513,0.25621513 0 0 0 -0.199911,-0.30221 0.25621513,0.25621513 0 0 0 -0.302206,0.19991 0.25621513,0.25621513 0 0 0 0.199911,0.30221 0.25621513,0.25621513 0 0 0 0.302206,-0.19991 z m -0.796487,-0.57757 a 0.25621513,0.25621513 0 0 0 -0.199911,-0.3022 0.25621513,0.25621513 0 0 0 -0.302202,0.19991 0.25621513,0.25621513 0 0 0 0.199908,0.30221 0.25621513,0.25621513 0 0 0 0.302205,-0.19992 z m -1.204782,5.59492 a 0.25621513,0.25621513 0 0 0 -0.01086,0.0141 0.25621513,0.25621513 0 0 0 -0.0084,-0.0117 0.25621513,0.25621513 0 0 0 0.01927,-0.002 z m 0.124814,-1.16818 a 0.25621513,0.25621513 0 0 0 -0.165713,-0.29258 0.25621513,0.25621513 0 0 0 -0.159671,-0.10566 0.25621513,0.25621513 0 0 0 -0.302205,0.19991 0.25621513,0.25621513 0 0 0 0.16591,0.29262 0.25621513,0.25621513 0 0 0 0.159474,0.10562 0.25621513,0.25621513 0 0 0 0.302205,-0.19991 z m -0.308655,-1.2334 a 0.25621513,0.25621513 0 0 0 -0.199912,-0.30221 0.25621513,0.25621513 0 0 0 -0.302206,0.19991 0.25621513,0.25621513 0 0 0 0.199912,0.30221 0.25621513,0.25621513 0 0 0 0.302206,-0.19991 z m -0.649095,0.95105 a 0.25621513,0.25621513 0 0 0 -0.199908,-0.3022 0.25621513,0.25621513 0 0 0 -0.302205,0.19991 0.25621513,0.25621513 0 0 0 0.199911,0.30221 0.25621513,0.25621513 0 0 0 0.302202,-0.19992 z m -0.321212,0.97006 a 0.25621513,0.25621513 0 0 0 -0.199912,-0.3022 0.25621513,0.25621513 0 0 0 -0.302206,0.19991 0.25621513,0.25621513 0 0 0 0.199912,0.3022 0.25621513,0.25621513 0 0 0 0.302206,-0.19991 z m -0.878653,0.30105 a 0.25621513,0.25621513 0 0 0 -0.199912,-0.3022 0.25621513,0.25621513 0 0 0 -0.302206,0.19991 0.25621513,0.25621513 0 0 0 0.199912,0.3022 0.25621513,0.25621513 0 0 0 0.302206,-0.19991 z"
       id="path3408"
       inkscape:connector-curvature="0" />
  </g>
</svg>
