<?xml version="1.0" encoding="UTF-8" standalone="no"?>
<!-- Created with Inkscape (http://www.inkscape.org/) -->

<svg
   xmlns:dc="http://purl.org/dc/elements/1.1/"
   xmlns:cc="http://creativecommons.org/ns#"
   xmlns:rdf="http://www.w3.org/1999/02/22-rdf-syntax-ns#"
   xmlns:svg="http://www.w3.org/2000/svg"
   xmlns="http://www.w3.org/2000/svg"
   xmlns:xlink="http://www.w3.org/1999/xlink"
   xmlns:sodipodi="http://sodipodi.sourceforge.net/DTD/sodipodi-0.dtd"
   xmlns:inkscape="http://www.inkscape.org/namespaces/inkscape"
   width="250.51929mm"
   height="224.84732mm"
   viewBox="0 0 250.51928 224.84732"
   version="1.1"
   id="svg1071"
   inkscape:version="0.92.3 (unknown)"
   sodipodi:docname="TreeBush.svg">
  <defs
     id="defs1065">
    <linearGradient
       id="a"
       x1="500.87"
       x2="463.88"
       y1="575.79999"
       y2="539.75"
       gradientTransform="matrix(-60.285,-9.4312,-48.457,309.74,509.04,413.06)"
       gradientUnits="userSpaceOnUse">
      <stop
         stop-color="#9ed747"
         offset="0"
         id="stop8" />
      <stop
         stop-color="#7fcc2b"
         offset="1"
         id="stop10" />
    </linearGradient>
    <clipPath
       id="c">
      <path
         inkscape:connector-curvature="0"
         d="m 492.82,620.53 c 0,0 -1.181,-8.485 -10.269,-16.019 -9.088,-7.534 -31.685,-15.146 -46.705,-33.749 -15.02,-18.603 -7.72,-36.875 -3.868,-42.334 2.211,-3.134 5.562,-3.876 8.019,-3.935 -0.91,4.277 -1.486,9.019 -1.24,13.954 1.975,19.781 17.473,32.284 19.949,34.611 1.349,1.202 3.866,3.206 6.919,5.426 3.133,2.181 6.435,4.655 9.461,7.536 6.074,5.517 10.949,11.079 10.935,11.079 0.012,0 -4.141,-6.116 -9.656,-12.355 -2.642,-3.15 -5.994,-6.258 -8.846,-8.643 -2.823,-2.472 -5.122,-4.588 -6.416,-5.743 -1.264,-1.176 -5.338,-4.717 -9.235,-10.434 -1.967,-2.905 -3.76,-6.166 -5.493,-10.141 -1.684,-3.434 -2.509,-7.461 -2.548,-11.521 -0.062,-7.086 1.858,-14.012 3.846,-19.377 2.668,-1.382 6.865,-1.834 13.43,0.615 5.236,2.902 9.737,6.218 13.616,9.831 l -6.202,8.169 11.594,-2.494 c 3.872,4.61 6.918,9.569 9.3,14.689 l -11.267,3.398 14.096,3.661 c 2.466,7.16 3.802,14.474 4.41,21.474 l -11.195,-1.946 -0.114,-0.047 0.067,0.04 -1.22,-0.213 12.821,8.513 c 0.57,19.967 -4.189,35.955 -4.189,35.955"
         id="path5" />
    </clipPath>
    <linearGradient
       inkscape:collect="always"
       xlink:href="#a"
       id="linearGradient1762"
       gradientUnits="userSpaceOnUse"
       gradientTransform="matrix(-60.285,-9.4312,-48.457,309.74,509.04,413.06)"
       x1="500.87"
       y1="575.79999"
       x2="463.88"
       y2="539.75" />
    <linearGradient
       inkscape:collect="always"
       xlink:href="#a"
       id="linearGradient1764"
       gradientUnits="userSpaceOnUse"
       gradientTransform="matrix(-60.285,-9.4312,-48.457,309.74,509.04,413.06)"
       x1="500.87"
       y1="575.79999"
       x2="463.88"
       y2="539.75" />
    <linearGradient
       inkscape:collect="always"
       xlink:href="#a"
       id="linearGradient1766"
       gradientUnits="userSpaceOnUse"
       gradientTransform="matrix(-60.285,-9.4312,-48.457,309.74,509.04,413.06)"
       x1="500.87"
       y1="575.79999"
       x2="463.88"
       y2="539.75" />
    <linearGradient
       inkscape:collect="always"
       xlink:href="#a"
       id="linearGradient1768"
       gradientUnits="userSpaceOnUse"
       gradientTransform="matrix(-60.285,-9.4312,-48.457,309.74,509.04,413.06)"
       x1="500.87"
       y1="575.79999"
       x2="463.88"
       y2="539.75" />
    <linearGradient
       inkscape:collect="always"
       xlink:href="#a"
       id="linearGradient1770"
       gradientUnits="userSpaceOnUse"
       gradientTransform="matrix(-60.285,-9.4312,-48.457,309.74,509.04,413.06)"
       x1="500.87"
       y1="575.79999"
       x2="463.88"
       y2="539.75" />
    <clipPath
       id="c-3">
      <path
         inkscape:connector-curvature="0"
         d="m 492.82,620.53 c 0,0 -1.181,-8.485 -10.269,-16.019 -9.088,-7.534 -31.685,-15.146 -46.705,-33.749 -15.02,-18.603 -7.72,-36.875 -3.868,-42.334 2.211,-3.134 5.562,-3.876 8.019,-3.935 -0.91,4.277 -1.486,9.019 -1.24,13.954 1.975,19.781 17.473,32.284 19.949,34.611 1.349,1.202 3.866,3.206 6.919,5.426 3.133,2.181 6.435,4.655 9.461,7.536 6.074,5.517 10.949,11.079 10.935,11.079 0.012,0 -4.141,-6.116 -9.656,-12.355 -2.642,-3.15 -5.994,-6.258 -8.846,-8.643 -2.823,-2.472 -5.122,-4.588 -6.416,-5.743 -1.264,-1.176 -5.338,-4.717 -9.235,-10.434 -1.967,-2.905 -3.76,-6.166 -5.493,-10.141 -1.684,-3.434 -2.509,-7.461 -2.548,-11.521 -0.062,-7.086 1.858,-14.012 3.846,-19.377 2.668,-1.382 6.865,-1.834 13.43,0.615 5.236,2.902 9.737,6.218 13.616,9.831 l -6.202,8.169 11.594,-2.494 c 3.872,4.61 6.918,9.569 9.3,14.689 l -11.267,3.398 14.096,3.661 c 2.466,7.16 3.802,14.474 4.41,21.474 l -11.195,-1.946 -0.114,-0.047 0.067,0.04 -1.22,-0.213 12.821,8.513 c 0.57,19.967 -4.189,35.955 -4.189,35.955"
         id="path5-5" />
    </clipPath>
    <clipPath
       id="c-3-1">
      <path
         inkscape:connector-curvature="0"
         d="m 492.82,620.53 c 0,0 -1.181,-8.485 -10.269,-16.019 -9.088,-7.534 -31.685,-15.146 -46.705,-33.749 -15.02,-18.603 -7.72,-36.875 -3.868,-42.334 2.211,-3.134 5.562,-3.876 8.019,-3.935 -0.91,4.277 -1.486,9.019 -1.24,13.954 1.975,19.781 17.473,32.284 19.949,34.611 1.349,1.202 3.866,3.206 6.919,5.426 3.133,2.181 6.435,4.655 9.461,7.536 6.074,5.517 10.949,11.079 10.935,11.079 0.012,0 -4.141,-6.116 -9.656,-12.355 -2.642,-3.15 -5.994,-6.258 -8.846,-8.643 -2.823,-2.472 -5.122,-4.588 -6.416,-5.743 -1.264,-1.176 -5.338,-4.717 -9.235,-10.434 -1.967,-2.905 -3.76,-6.166 -5.493,-10.141 -1.684,-3.434 -2.509,-7.461 -2.548,-11.521 -0.062,-7.086 1.858,-14.012 3.846,-19.377 2.668,-1.382 6.865,-1.834 13.43,0.615 5.236,2.902 9.737,6.218 13.616,9.831 l -6.202,8.169 11.594,-2.494 c 3.872,4.61 6.918,9.569 9.3,14.689 l -11.267,3.398 14.096,3.661 c 2.466,7.16 3.802,14.474 4.41,21.474 l -11.195,-1.946 -0.114,-0.047 0.067,0.04 -1.22,-0.213 12.821,8.513 c 0.57,19.967 -4.189,35.955 -4.189,35.955"
         id="path5-5-8" />
    </clipPath>
    <clipPath
       id="c-3-2">
      <path
         inkscape:connector-curvature="0"
         d="m 492.82,620.53 c 0,0 -1.181,-8.485 -10.269,-16.019 -9.088,-7.534 -31.685,-15.146 -46.705,-33.749 -15.02,-18.603 -7.72,-36.875 -3.868,-42.334 2.211,-3.134 5.562,-3.876 8.019,-3.935 -0.91,4.277 -1.486,9.019 -1.24,13.954 1.975,19.781 17.473,32.284 19.949,34.611 1.349,1.202 3.866,3.206 6.919,5.426 3.133,2.181 6.435,4.655 9.461,7.536 6.074,5.517 10.949,11.079 10.935,11.079 0.012,0 -4.141,-6.116 -9.656,-12.355 -2.642,-3.15 -5.994,-6.258 -8.846,-8.643 -2.823,-2.472 -5.122,-4.588 -6.416,-5.743 -1.264,-1.176 -5.338,-4.717 -9.235,-10.434 -1.967,-2.905 -3.76,-6.166 -5.493,-10.141 -1.684,-3.434 -2.509,-7.461 -2.548,-11.521 -0.062,-7.086 1.858,-14.012 3.846,-19.377 2.668,-1.382 6.865,-1.834 13.43,0.615 5.236,2.902 9.737,6.218 13.616,9.831 l -6.202,8.169 11.594,-2.494 c 3.872,4.61 6.918,9.569 9.3,14.689 l -11.267,3.398 14.096,3.661 c 2.466,7.16 3.802,14.474 4.41,21.474 l -11.195,-1.946 -0.114,-0.047 0.067,0.04 -1.22,-0.213 12.821,8.513 c 0.57,19.967 -4.189,35.955 -4.189,35.955"
         id="path5-5-89" />
    </clipPath>
  </defs>
  <sodipodi:namedview
     id="base"
     pagecolor="#ffffff"
     bordercolor="#666666"
     borderopacity="1.0"
     inkscape:pageopacity="0.0"
     inkscape:pageshadow="2"
     inkscape:zoom="1.1544023"
     inkscape:cx="370.94884"
     inkscape:cy="331.75835"
     inkscape:document-units="mm"
     inkscape:current-layer="layer1"
     showgrid="false"
     showguides="false"
     inkscape:window-width="1920"
     inkscape:window-height="1029"
     inkscape:window-x="0"
     inkscape:window-y="0"
     inkscape:window-maximized="1"
     fit-margin-top="0"
     fit-margin-left="0"
     fit-margin-right="0"
     fit-margin-bottom="30" />
  <metadata
     id="metadata1068">
    <rdf:RDF>
      <cc:Work
         rdf:about="">
        <dc:format>image/svg+xml</dc:format>
        <dc:type
           rdf:resource="http://purl.org/dc/dcmitype/StillImage" />
        <dc:title />
      </cc:Work>
    </rdf:RDF>
  </metadata>
  <g
     inkscape:label="Layer 1"
     inkscape:groupmode="layer"
     id="layer1"
     transform="translate(-7.7404285,-5.8048018)">
    <path
       sodipodi:nodetypes="ccccccccccccccccccccccccccccccc"
       inkscape:connector-curvature="0"
       id="path1748"
       d="m 297.47694,111.97879 c 0.42888,1.42517 1.6144,3.19891 4.09602,5.56935 -4.43771,2.96179 -3.26579,7.21853 -2.18571,11.45385 -0.008,9.23654 3.56177,8.97078 6.10121,11.4412 -2.90424,1.95977 -2.23327,4.77825 -1.07183,7.71475 -3.00484,2.93653 -0.23022,4.08842 0.24924,5.94905 0.94536,3.29451 0.99669,6.66187 5.72427,9.64795 -0.73512,3.64228 0.68471,4.99992 1.66005,6.82897 1.61995,0.72869 1.87462,5.39877 10.48953,6.60639 -1.38892,0.37209 -1.25341,6.85882 4.87348,8.72243 1.90515,1.82203 11.86924,4.66111 17.8755,1.68404 -0.002,1.32526 6.03342,8.30053 5.94622,6.32277 0.80352,-0.18106 -0.008,3.32244 10.12235,1.33003 0.52896,4.51412 6.29722,3.44805 10.75211,1.94224 0,0 5.83424,4.42416 10.98391,-1.22755 -0.38325,2.20751 10.95373,6.26584 13.83374,-2.78603 0.32418,1.52874 6.08807,2.99045 8.52846,2.28895 -1.05499,-0.28947 8.50317,2.52634 14.71477,-3.35533 0.0819,1.08353 7.0059,4.46811 14.94045,-1.21852 -1.16006,1.72567 8.88046,1.27106 11.2152,-4.39645 4.37676,2.17124 5.4888,0.25319 6.61917,-1.535 6.97778,0.14658 6.64426,-4.90665 7.76381,-6.76801 0.66746,-0.82428 4.5182,-0.0315 7.10328,-5.88539 1.77954,1.99377 14.87725,-2.60951 13.71579,-11.06738 3.90919,-0.79673 6.80114,-2.27613 5.19759,-7.88586 5.45274,-0.0306 7.82954,-8.05483 1.74263,-12.08095 4.68256,-0.58331 10.90707,-8.31332 2.28519,-12.29087 1.04892,-4.55057 3.51315,-9.38224 -0.78875,-12.8692 0.45642,-1.23988 1.89057,-2.63915 -0.17692,-3.46776 l 0.26461,-0.66772 z"
       style="fill:#5a6f00;fill-opacity:1;stroke:#cddc39;stroke-width:0.24636239px;stroke-linecap:butt;stroke-linejoin:miter;stroke-opacity:0.15083798" />
    <path
       sodipodi:nodetypes="ccccccccccccccscccccccccccccccccccccccccccccccccccccccccccccccccccccccsscscccscccccc"
       inkscape:connector-curvature="0"
       id="path1750"
       d="m 297.1194,101.75904 c -3.94826,-5.298537 -0.96592,-11.69214 0.56696,-17.856721 -8.23098,-6.462249 -1.16914,-16.4339 3.59078,-16.712065 -5.68235,-6.243883 -2.45052,-17.054686 3.0238,-16.483131 -1.0167,-7.925544 2.04117,-9.642077 6.04762,-10.301957 -0.27244,-11.808012 13.35503,-16.688964 14.93006,-13.735943 3.2118,-7.791003 6.99179,-6.262952 7.74851,-7.325836 1.31984,-2.443813 1.51868,-9.4584402 8.50447,-8.470497 1.32295,-2.3415592 2.6413,-4.8640262 6.80357,-1.3735952 2.94094,-7.5618957 13.06342,-7.0594945 11.71726,-4.807579 8.56162,-6.9578575 15.15127,-1.505179 15.11905,0 6.85348,-7.4211232 16.14703,-2.4576818 15.11905,-2.9761225 2.52266,-0.6937391 8.1516,1.9736485 8.31547,4.1207835 3.84534,-12.1731109 14.7917,-5.29394185 14.17411,-2.289324 5.76367,-7.223185 11.1503,-0.457865 11.1503,-0.457865 4.62886,-1.5774326 10.52917,-2.40004735 10.58334,3.891851 10.37472,-1.610264 9.19102,3.1356412 10.01636,2.976121 5.7701,-6.703816 11.5288,-0.717995 11.33929,1.1446622 9.88762,0.343358 11.72982,10.104958 11.71726,12.591281 5.95076,3.262763 5.40163,12.23394 3.96875,12.591281 8.51641,2.637182 8.2789,9.113525 9.82738,10.301958 0.78552,2.635057 2.06706,4.669266 0.94494,9.61516 4.42824,4.654957 4.12397,9.309915 4.7247,13.964873 0.28464,2.622832 2.94699,4.525599 -0.37798,8.241567 0.85533,4.185 1.23103,8.152128 -1.88988,10.530889 2.28717,3.696657 5.89678,3.731706 4.91369,16.483129 0.63658,5.96903 1.36355,11.97787 -3.40178,15.56739 6.25638,9.92244 2.88906,12.30162 0.94494,15.79635 -0.70637,3.48572 0.46525,8.05246 -4.91369,8.69943 4.2531,2.13224 4.14854,7.21694 4.91369,13.50701 -4.93848,-1.95614 -11.24709,-10.63965 -8.50447,-10.07302 -1.72713,5.18627 2.37349,13.14731 -7.7485,14.42273 l -4.34673,-2.06038 c 1.32732,5.92693 -2.1159,5.45068 -10.01637,5.49438 l -3.59078,-4.34974 -4.15774,4.34974 -4.34672,0.45786 c -1.58021,3.32553 -2.64704,1.97679 -4.7247,2.28931 -1.52124,1.35744 -2.70553,10.78219 -6.23661,6.63905 l -3.96875,-5.49438 v 0 l 0.37798,5.03651 -3.96875,-0.91573 c -8.86423,2.68577 -12.165,10.75105 -5.10268,-3.43398 l -6.61458,6.63904 c -3.88266,-5.81743 -2.13786,-5.72262 -2.83483,-10.98876 l -5.85863,12.59128 1.13393,-13.04915 -5.10268,7.55479 c -4.09219,-6.25441 -6.3626,-4.1208 -7.55952,-6.86799 l 1.70089,8.24157 c -3.59479,-1.60084 -5.05076,-4.80552 -4.7247,-3.89185 v 0 c -1.70089,-0.53417 -3.77976,2.8235 -5.10268,-1.60252 -1.50874,-1.93356 -6.71904,0.94637 -6.42559,-4.80759 -1.55726,1.31633 -3.48423,4.42036 -7.55953,7.55477 0.0461,-5.91852 2.578,-11.54896 2.83482,-12.59129 -0.99454,1.10313 -4.20242,5.8781 -6.04762,5.49439 -6.77768,-0.89423 -6.24466,-1.52112 -8.50446,-6.41012 l -8.69345,5.03652 1.88988,-5.26544 -7.55953,7.78369 c -1.26263,-1.62686 -1.37294,-3.71903 -1.13392,-5.95224 l -4.34673,6.41011 -9.07143,-4.80758 c -0.20959,3.99455 -1.23354,6.01616 -1.88988,8.92836 -0.88588,-3.59852 -3.52581,-6.84293 -1.70089,-10.98874 l -3.96875,5.26544 v 0 c 0.46862,-2.8702 0.98988,-3.99894 -2.55593,-0.79049 0.63708,-1.30523 -0.80045,-1.71683 -0.43972,-2.3525 0.75341,-1.32756 -1.98431,-0.80955 -1.67705,-1.03898 2.08606,-1.5577 0.36336,-5.70882 1.71767,-8.18038 -1.49587,1.43209 -3.03768,4.41003 -4.48713,5.86087 -1.2305,1.23169 -2.50001,0.88326 -2.50543,2.60962 l -1.03943,-4.23525 c 0.50925,-3.98956 -1.73914,-1.35513 -1.6064,-1.717 0.54712,-1.32552 -0.0522,-4.86734 -1.72772,-2.5025 0,0 -2.08167,-5.33819 -3.56395,-6.19693 1.03272,-3.69952 2.34707,-7.67602 5.41187,-11.67554 -2.96153,-2.98457 -4.13002,-7.89116 -11.90625,-6.41011 3.50793,-5.32721 -6.02423,-12.15906 -6.42559,-11.90447 l 3.96875,-10.5309 c -1.98698,-1.37678 -0.39985,-3.14715 0.18899,-4.80758 z"
       style="fill:#ccff00;fill-opacity:1;stroke:#cddc39;stroke-width:0.29120502px;stroke-linecap:butt;stroke-linejoin:miter;stroke-opacity:0.14901961" />
    <g
       id="g1760"
       transform="matrix(0.08584605,0,0,-0.09042898,376.0572,163.40216)"
       style="fill:url(#linearGradient1770)">
      <g
         id="g1758"
         clip-path="url(#c)"
         style="fill:url(#linearGradient1768)">
        <g
           id="g1756"
           style="fill:url(#linearGradient1766)">
          <g
             id="g1754"
             style="fill:url(#linearGradient1764)">
            <path
               id="path1752"
               d="M 0,0 H 810 V 751 H 0 Z"
               inkscape:connector-curvature="0"
               style="fill:url(#linearGradient1762)" />
          </g>
        </g>
      </g>
    </g>
    <path
       sodipodi:nodetypes="ccccccccccccccccccccccccccccccc"
       inkscape:connector-curvature="0"
       id="path1748-1-0"
       d="m 205.02495,-124.21478 c 0.42888,1.42517 1.6144,3.19891 4.09602,5.56935 -4.43771,2.96179 -3.26579,7.21853 -2.18571,11.45385 -0.008,9.23654 3.56177,8.97078 6.10121,11.4412 -2.90424,1.95977 -2.23327,4.77825 -1.07183,7.71475 -3.00484,2.93653 -0.23022,4.08842 0.24924,5.94905 0.94536,3.29451 0.99669,6.66187 5.72427,9.64795 -0.73512,3.64228 0.68471,4.99992 1.66005,6.82897 1.61995,0.72869 1.87462,5.39877 10.48952,6.60639 -1.38891,0.37209 -1.2534,6.85882 4.87349,8.72243 1.90515,1.82203 11.86924,4.66112 17.8755,1.68404 -0.002,1.32526 6.03342,8.30053 5.94622,6.32277 0.80352,-0.18106 -0.008,3.32244 10.12235,1.33004 0.52896,4.51411 6.29722,3.44805 10.75211,1.94224 0,0 5.83424,4.42415 10.98391,-1.22756 -0.38325,2.20751 10.95373,6.26584 13.83374,-2.78603 0.32418,1.52874 6.08807,2.99045 8.52846,2.28895 -1.05499,-0.28947 8.50317,2.52634 14.71477,-3.35533 0.0819,1.08353 7.0059,4.46811 14.94045,-1.21852 -1.16006,1.72567 8.88046,1.27106 11.2152,-4.39645 4.37676,2.17124 5.4888,0.25319 6.61917,-1.535 6.97778,0.14658 6.64426,-4.90665 7.76381,-6.76801 0.66746,-0.82428 4.5182,-0.0315 7.10328,-5.88539 1.77954,1.99377 14.87725,-2.60951 13.71579,-11.06737 3.90919,-0.79674 6.80114,-2.27614 5.19759,-7.88587 5.45274,-0.0306 7.82954,-8.05483 1.74263,-12.08095 4.68256,-0.58331 10.90707,-8.31332 2.28519,-12.29087 1.04892,-4.55057 3.51315,-9.38224 -0.78875,-12.8692 0.45642,-1.23988 1.89057,-2.63915 -0.17692,-3.46776 l 0.26461,-0.66772 z"
       style="fill:#006100;fill-opacity:1;stroke:#cddc39;stroke-width:0.24636239px;stroke-linecap:butt;stroke-linejoin:miter;stroke-opacity:0.15083798" />
    <path
       sodipodi:nodetypes="ccccccccccccccscccccccccccccccccccccccccccccccccccccccccccccccccccccccsscscccscccccc"
       inkscape:connector-curvature="0"
       id="path1750-2-2"
       d="m 205.21394,-129.02236 c -3.94826,-5.29853 -0.96592,-11.69214 0.56696,-17.85672 -8.23098,-6.46225 -1.16914,-16.4339 3.59078,-16.71207 -5.68235,-6.24388 -2.45052,-17.05468 3.0238,-16.48313 -1.0167,-7.92554 2.04117,-9.64207 6.04762,-10.30195 -0.27244,-11.80802 13.35503,-16.68897 14.93006,-13.73595 3.21179,-7.791 6.99179,-6.26295 7.74851,-7.32583 1.31984,-2.44382 1.51868,-9.45844 8.50447,-8.4705 1.32295,-2.34156 2.6413,-4.86403 6.80357,-1.3736 2.94094,-7.56189 13.06342,-7.05949 11.71726,-4.80758 8.56162,-6.95785 15.15127,-1.50517 15.11905,0 6.85348,-7.42112 16.14703,-2.45768 15.11905,-2.97612 2.52266,-0.69374 8.1516,1.97365 8.31547,4.12079 3.84534,-12.17311 14.7917,-5.29395 14.17411,-2.28933 5.76367,-7.22318 11.1503,-0.45786 11.1503,-0.45786 4.62886,-1.57744 10.52917,-2.40005 10.58334,3.89185 10.37472,-1.61027 9.19102,3.13564 10.01636,2.97612 5.7701,-6.70382 11.5288,-0.718 11.33929,1.14466 9.88762,0.34336 11.72982,10.10496 11.71726,12.59128 5.95076,3.26277 5.40163,12.23394 3.96875,12.59128 8.51641,2.63718 8.2789,9.11353 9.82738,10.30196 0.78552,2.63506 2.06706,4.66927 0.94494,9.61516 4.42824,4.65496 4.12397,9.30992 4.7247,13.96487 0.28464,2.62284 2.94699,4.5256 -0.37798,8.24157 0.85533,4.185 1.23103,8.15213 -1.88988,10.53089 2.28717,3.69666 5.89678,3.73171 4.91369,16.48313 0.63658,5.96903 1.36355,11.97787 -3.40178,15.56739 6.25638,9.92244 2.88906,12.30162 0.94494,15.79635 -0.70637,3.48572 0.46525,8.05246 -4.91369,8.69943 4.2531,2.13224 4.14854,7.21694 4.91369,13.50701 -4.93848,-1.95614 -11.24709,-10.63965 -8.50447,-10.07302 -1.72713,5.18627 2.37349,13.14731 -7.7485,14.42273 l -4.34673,-2.06038 c 1.32732,5.92693 -2.1159,5.45068 -10.01637,5.49438 l -3.59078,-4.34974 -4.15774,4.34974 -4.34672,0.45786 c -1.58021,3.32553 -2.64704,1.97679 -4.7247,2.28931 -1.52124,1.35744 -2.70553,10.78219 -6.23661,6.63905 l -3.96875,-5.49438 v 0 l 0.37798,5.03651 -3.96875,-0.91573 c -8.86423,2.68577 -12.165,10.75105 -5.10268,-3.43398 l -6.61458,6.63904 c -3.88266,-5.81742 -2.13786,-5.72262 -2.83483,-10.98876 l -5.85863,12.59128 1.13393,-13.04915 -5.10268,7.5548 c -4.09219,-6.25442 -6.3626,-4.12081 -7.55952,-6.868 l 1.70089,8.24157 c -3.59479,-1.60084 -5.05076,-4.80552 -4.7247,-3.89185 v 0 c -1.70089,-0.53417 -3.77976,2.8235 -5.10268,-1.60252 -1.50874,-1.93356 -6.71904,0.94637 -6.42559,-4.80759 -1.55726,1.31633 -3.48423,4.42036 -7.55953,7.55477 0.0461,-5.91852 2.578,-11.54896 2.83482,-12.59129 -0.99454,1.10313 -4.20242,5.8781 -6.04762,5.49439 -6.77768,-0.89423 -6.24466,-1.52112 -8.50446,-6.41012 l -8.69345,5.03652 1.88988,-5.26544 -7.55953,7.78369 c -1.26263,-1.62686 -1.37294,-3.71903 -1.13392,-5.95224 l -4.34673,6.41011 -9.07143,-4.80758 c -0.20959,3.99455 -1.23354,6.01616 -1.88988,8.92836 -0.88588,-3.59852 -3.52582,-6.84293 -1.70089,-10.98874 l -3.96875,5.26544 v 0 c 0.46862,-2.8702 0.98988,-3.99893 -2.55593,-0.79049 0.63708,-1.30523 -0.80045,-1.71683 -0.43972,-2.3525 0.75341,-1.32756 -1.98431,-0.80955 -1.67705,-1.03898 2.08606,-1.5577 0.36336,-5.70882 1.71767,-8.18038 -1.49587,1.43209 -3.03768,4.41003 -4.48713,5.86087 -1.2305,1.23169 -2.50001,0.88326 -2.50543,2.60962 l -1.03943,-4.23525 c 0.50925,-3.98956 -1.73914,-1.35513 -1.6064,-1.717 0.54712,-1.32552 -0.0522,-4.86734 -1.72772,-2.5025 0,0 -2.08167,-5.33819 -3.56395,-6.19693 1.03272,-3.69952 2.34707,-7.67602 5.41187,-11.67554 -2.96153,-2.98457 -4.13002,-7.89116 -11.90625,-6.41011 3.50793,-5.32721 -6.02423,-12.15906 -6.42559,-11.90447 l 3.96875,-10.5309 c -1.98698,-1.37678 -0.39985,-3.14715 0.18899,-4.80758 z"
       style="fill:#00ff00;fill-opacity:1;stroke:#cddc39;stroke-width:0.29120502px;stroke-linecap:butt;stroke-linejoin:miter;stroke-opacity:0.14901961" />
    <g
       id="g1760-7-3"
       transform="matrix(0.08584605,0,0,-0.09042898,291.59379,-68.35529)"
       style="fill:#006100;fill-opacity:1">
      <g
         id="g1758-0-7"
         clip-path="url(#c-3-1)"
         style="fill:#006100;fill-opacity:1">
        <g
           id="g1756-9-5"
           style="fill:#006100;fill-opacity:1">
          <g
             id="g1754-3-9"
             style="fill:#006100;fill-opacity:1">
            <path
               id="path1752-6-2"
               d="M 56.040453,76.84492 H 866.04045 v 751 H 56.040453 Z"
               inkscape:connector-curvature="0"
               style="fill:#006100;fill-opacity:1" />
          </g>
        </g>
      </g>
    </g>
    <path
       style="opacity:1;fill:#005b25;fill-opacity:1;stroke:none;stroke-width:2.11528444;stroke-miterlimit:4;stroke-dasharray:none"
       d="m 27.11838,135.87331 a 14.067772,14.628292 0 0 0 -12.741279,7.6366 14.067772,14.628292 0 0 0 -0.940111,11.69787 13.713447,14.259849 0 0 0 0.90902,11.44486 13.713447,14.259849 0 0 0 15.235187,7.03801 14.298876,14.868604 0 0 0 4.34785,3.15061 15.059409,15.659441 0 0 0 1.570952,1.65584 15.059409,15.659441 0 0 0 0.342491,0.28423 11.615746,12.078567 0 0 0 2.042076,3.24313 11.615746,12.078567 0 0 0 6.981118,3.77817 9.3898155,9.7639458 0 0 0 -1.015679,4.39346 9.3898155,9.7639458 0 0 0 9.389801,9.76394 9.3898155,9.7639458 0 0 0 7.241603,-3.5558 15.213199,15.819358 0 0 0 2.333649,7.53962 15.213199,15.819358 0 0 0 17.97564,6.36866 10.933641,11.369284 0 0 0 6.839081,6.40376 10.933641,11.369284 0 0 0 9.253663,-1.40894 11.901354,12.375554 0 0 0 1.501818,2.96112 11.901354,12.375554 0 0 0 16.61426,2.79948 11.901354,12.375554 0 0 0 2.488,-2.53141 7.7208696,8.0285019 0 0 0 2.5325,0.20454 13.839974,14.391417 0 0 0 7.5112,0.76746 11.926042,12.401226 0 0 0 3.43508,3.43819 11.926042,12.401226 0 0 0 16.45721,-3.83725 11.926042,12.401226 0 0 0 1.2215,-2.69861 14.433122,15.008198 0 0 0 9.98903,5.25788 12.504832,13.003078 0 0 0 12.54027,2.03763 12.504832,13.003078 0 0 0 7.74382,-10.22263 8.7477947,9.0963441 0 0 0 3.337,-2.1017 8.7477947,9.0963441 0 0 0 2.31543,-4.08694 13.802121,14.352056 0 0 0 17.18828,-1.06227 13.802121,14.352056 0 0 0 4.52901,-11.3646 11.151178,11.595489 0 0 0 0.79112,-0.50383 8.4165509,8.7519021 0 0 0 0.90044,-0.43584 14.962969,15.559158 0 0 0 17.348,-7.53738 14.962969,15.559158 0 0 0 1.7832,-7.21078 14.879052,15.471897 0 0 0 4.48453,-2.38762 7.5528096,7.8537457 0 0 0 6.26934,-2.39096 7.5528096,7.8537457 0 0 0 1.95739,-4.03064 12.704028,13.21021 0 0 0 11.47476,-0.55399 12.704028,13.21021 0 0 0 4.76431,-18.01359 12.704028,13.21021 0 0 0 -3.85422,-4.34887 9.6747461,10.060229 0 0 0 -2.35295,-5.72716 9.6747461,10.060229 0 0 0 -13.65296,-0.92685 9.6747461,10.060229 0 0 0 -1.84752,2.29064 11.219781,11.666825 0 0 0 -7.37559,-1.95291 11.219781,11.666825 0 0 0 -9.54471,7.91973 9.9908762,10.388955 0 0 0 -0.82433,0.54618 9.9908762,10.388955 0 0 0 -1.71138,1.64525 14.879052,15.471897 0 0 0 -0.78896,0.55065 13.680333,14.225415 0 0 0 -4.18706,-0.73513 11.81529,12.286062 0 0 0 -11.01221,-4.23071 14.327057,14.897908 0 0 0 -10.17127,-3.09656 13.603439,14.145457 0 0 0 -10.12945,3.12999 13.603439,14.145457 0 0 0 -4.03108,5.82136 13.146432,13.670241 0 0 0 -0.31623,-0.0903 13.102854,13.624927 0 0 0 -10.91467,-10.19531 13.102854,13.624927 0 0 0 -6.00778,0.60136 11.363911,11.816697 0 0 0 -9.48681,0.70614 11.363911,11.816697 0 0 0 -4.72358,5.20774 7.8528501,8.1657411 0 0 0 -0.50757,-0.0998 13.814795,14.365235 0 0 0 -8.33338,-3.78318 11.828761,12.300069 0 0 0 -0.48239,-0.25526 11.828761,12.300069 0 0 0 -10.93932,0.70391 14.314143,14.884478 0 0 0 -6.19537,-3.55746 14.314143,14.884478 0 0 0 -2.60431,-0.43472 12.374934,12.868004 0 0 0 -4.37306,-1.94064 12.374934,12.868004 0 0 0 -2.09513,-0.26975 12.374934,12.868004 0 0 0 -9.44233,4.02228 9.2723353,9.6417847 0 0 0 -0.525258,0.3266 9.2723353,9.6417847 0 0 0 -2.51481,2.60554 15.253122,15.860871 0 0 0 -0.997456,-0.42804 15.253122,15.860871 0 0 0 -10.81604,0.25916 8.9870356,9.3451174 0 0 0 -8.161343,-1.50592 8.9870356,9.3451174 0 0 0 -3.954983,2.65013 12.278057,12.767267 0 0 0 -1.659922,-0.70392 12.278057,12.767267 0 0 0 -14.857854,6.89757 10.222778,10.630097 0 0 0 -2.216272,-1.36937 10.222778,10.630097 0 0 0 -0.854885,-0.32604 13.214892,13.74143 0 0 0 -1.85502,-3.39528 13.214892,13.74143 0 0 0 -10.922165,-5.27794 14.067772,14.628292 0 0 0 -5.363534,-5.39278 14.067772,14.628292 0 0 0 -6.337398,-1.77065 z"
       id="path2163"
       inkscape:connector-curvature="0" />
    <path
       style="opacity:1;fill:#04ff69;fill-opacity:1;stroke:none;stroke-width:2.11528444;stroke-miterlimit:4;stroke-dasharray:none"
       d="m 110.81352,7.6179681 a 10.459541,10.876294 0 0 0 -9.51683,6.3892749 10.459541,10.876294 0 0 0 -6.62255,8.504358 10.459541,10.876294 0 0 0 -2.21198,-0.252472 10.459541,10.876294 0 0 0 -4.211718,0.935206 10.459541,10.876294 0 0 0 -8.418609,-4.443066 10.459541,10.876294 0 0 0 -6.164288,2.105608 10.459541,10.876294 0 0 0 -5.936495,-1.924474 10.459541,10.876294 0 0 0 -10.459614,10.876371 10.459541,10.876294 0 0 0 0.634599,3.702368 10.459541,10.876294 0 0 0 -4.313554,-0.979234 10.459541,10.876294 0 0 0 -0.998526,0.05238 11.291549,11.741453 0 0 0 -5.381758,-1.421759 11.291549,11.741453 0 0 0 -4.611558,1.039985 11.291549,11.741453 0 0 0 -7.16871,-2.677989 11.291549,11.741453 0 0 0 -9.561313,5.521506 11.291549,11.741453 0 0 0 -7.270535,10.967774 11.291549,11.741453 0 0 0 7.901373,11.196282 11.291549,11.741453 0 0 0 -5.204337,9.416712 11.291549,11.741453 0 0 0 -9.846467,11.629887 11.291549,11.741453 0 0 0 2.945194,7.888503 11.291549,11.741453 0 0 0 -0.204196,2.187537 11.291549,11.741453 0 0 0 4.054129,9.009306 11.291549,11.741453 0 0 0 -6.797789,10.755998 11.291549,11.741453 0 0 0 9.469111,11.57358 11.291549,11.741453 0 0 0 1.393016,3.92418 11.291549,11.741453 0 0 0 -8.157051,11.27487 11.291549,11.741453 0 0 0 0.955095,4.69052 11.291549,11.741453 0 0 0 -6.7318739,10.72589 11.291549,11.741453 0 0 0 10.3561769,11.69231 11.291549,11.741453 0 0 0 1.666338,0.77135 l -3.519227,2.01978 4.555824,6.01196 -2.917861,6.89199 3.944251,-4.57125 -2.537323,6.58824 4.257832,-5.28408 1.588101,2.09557 -0.318383,2.41549 -1.808378,-0.2168 0.950812,20.51713 3.659127,-13.83581 0.876858,4.95693 1.04033,-7.98772 0.01607,-0.0206 0.550987,0.72677 -0.348383,-0.98983 2.277907,-2.96111 0.507569,-0.0998 -0.71553,4.23239 2.338475,-4.55342 3.249633,-0.64205 v 0.002 l -1.699049,2.00975 1.729065,-1.06116 0.04555,1.44572 0.498995,-1.77957 0.308723,-0.19005 1.786952,3.75197 -0.242261,0.37676 0.3039,-0.24746 4.71768,9.90549 -1.71406,-12.35329 0.323197,-0.26362 -0.198312,0.88448 0.805039,-1.37884 1.082676,-0.88226 1.213991,0.55733 -0.296396,-0.27699 0.944395,0.63145 -0.199921,1.68148 0.630308,-1.39333 0.976554,0.6532 -1.86038,2.88921 2.787086,-2.26946 0.03323,0.0223 0.05306,7.82664 1.935954,-6.29564 0.215465,0.40853 -0.277637,1.99191 0.631382,-1.32311 0.134532,0.25471 -1.954178,4.1265 2.64666,-2.8151 0.102369,0.19452 -0.04609,-0.25415 1.04623,-1.113 5.499674,3.67841 -4.06754,-5.20159 0.719281,-0.76523 2.3031,1.77845 -1.668501,-2.45338 0.677476,-0.72063 8.219229,7.91859 -3.899243,-7.29939 0.201529,0.22627 -1.187191,-2.68579 4.452907,1.7517 1.559695,1.3153 0.172586,4.19896 0.89133,-3.30164 4.357504,3.67561 -3.388456,3.55078 4.659795,-2.47846 2.00992,1.6954 1.079997,1.80019 -0.262629,-1.11132 5.808932,4.90007 -4.37037,-7.04748 0.187059,-1.1665 3.06633,4.47148 v 0.01 l 0.0021,-0.006 4.54563,6.62782 -3.200326,-10.64508 0.44379,-1.32422 0.02359,0.008 0.313546,2.77719 0.487204,-2.50466 1.344768,0.45813 -0.781991,3.17345 1.623479,-2.64955 1.154496,3.04025 -0.309259,1.75839 0.565994,-1.08346 0.799679,2.10617 -0.188129,-3.27824 0.251909,-0.4821 1.043014,8.77858 1.160394,-6.15353 0.613161,2.30624 0.191877,-4.25189 1.538796,1.68927 -1.469653,-3.23031 0.06861,-1.51259 0.374112,-1.98189 1.057484,-0.2402 0.617447,0.25024 1.02747,0.77246 1.528612,2.67353 -2.316499,1.7216 2.781727,-0.90789 0.05842,0.10202 -0.02412,-0.11313 0.354818,-0.11537 0.224576,0.36728 -1.352275,7.50561 2.751181,-5.21553 0.03433,0.0558 -0.02033,-0.0825 1.120726,-2.12456 3.923358,2.95164 -0.86346,1.87599 0.97976,-1.06562 0.27068,1.90162 0.35481,-2.15409 2.10372,1.58227 -1.70603,-2.44336 1.84806,-2.00974 0.73376,0.78473 -0.49257,-1.04723 1.63742,-1.78069 1.23113,2.00251 -0.71338,2.85076 1.23597,-2.00027 0.36983,0.60192 -1.45895,2.30903 1.90702,-1.58059 1.37156,2.23156 -1.79605,6.79724 6.67292,-10.48456 2.18733,1.67924 -1.68672,-2.46563 0.47059,-0.73904 1.38764,2.74989 -0.42878,-2.65346 0.90474,3.37966 -0.53759,1.27128 0.66944,-0.77692 1.57095,5.86872 0.24601,-5.67588 8.70214,-4.47873 0.79271,0.26529 1.19685,1.63019 -0.46416,-1.38497 0.22189,0.0741 -0.2637,-0.19896 -0.32856,-0.98035 1.38444,-0.71228 4.51239,2.60609 0.15061,0.2614 -0.0434,-0.19952 0.64156,0.37061 -0.74286,-0.83377 -1.61275,-7.39637 0.0686,-0.47541 1.65081,0.78417 -1.54844,-1.48585 0.097,-0.66991 3.02507,2.65235 0.92724,2.63674 -0.0617,-1.87766 0.76002,0.66601 -0.78092,-1.31307 -0.13453,-4.09584 0.89937,-0.18559 1.07088,0.64092 -1.16736,3.26543 2.08121,-2.71868 4.09005,2.44669 -1.72908,2.89591 2.67025,-2.33244 10.16483,6.08163 -7.36809,-8.52442 1.6492,-1.44071 9.07465,12.07631 -3.52996,-10.15685 1.5045,0.97421 0.51615,0.76467 -0.15544,-0.53115 0.6614,0.42804 0.59064,4.99706 0.54295,-2.86917 0.0257,-0.019 1.0682,4.21177 0.26586,-4.70557 1.43962,0.93242 -1.25847,-1.56277 5.59668,-4.15213 0.41217,0.40406 -0.268,-0.51163 1.91882,-1.42342 0.60457,1.63353 -0.0605,-1.23058 0.98995,0.82429 2.65577,5.99803 -0.46309,-4.17277 3.54282,2.94942 1.15396,5.41729 0.57189,-6.01475 0.29264,0.37118 -0.26852,0.17946 0.33766,-0.0913 2.61021,3.31169 -1.36138,-3.64943 3.85369,-1.04333 0.008,0.0118 -1.30189,4.17778 2.10908,-3.00905 0.52687,0.76299 -0.31891,1.18044 0.54723,-0.84938 2.41243,3.49336 -1.17218,-3.85507 5.92203,6.61499 -4.00537,-9.00763 0.79861,-1.01601 2.64612,-0.71619 0.84953,2.8073 -0.0793,0.1332 0.0944,-0.0825 0.002,0.006 v -0.009 l 0.70694,-0.61864 1.67173,2.43555 -0.92885,-3.0854 1.29225,-1.13028 3.0942,4.33941 -1.76284,-5.50424 0.13239,-0.11591 1.47769,0.81259 0.0547,0.18336 0.002,-0.15215 0.80987,0.4453 -0.41378,0.51275 0.55366,-0.35836 1.3973,1.84366 -0.50328,-1.42957 1.01514,0.55846 -0.003,0.002 0.004,-0.002 1.2885,0.70892 -0.0381,4.14266 1.14861,-3.53183 0.0542,0.0295 -0.0472,-0.0507 0.44218,-1.36046 0.74125,1.70657 -0.30283,-2.91597 0.21923,-0.0848 1.36405,0.75908 -0.5869,-0.63814 1.68727,1.09182 -2.14016,4.50214 3.44741,-3.65611 9.87754,6.39261 -5.35818,-6.64787 1.94454,-3.46495 0.69302,-0.28813 -1.67869,3.86176 3.57015,-4.05683 2.64666,3.40029 -0.22457,6.54644 -1.0875,1.113 1.06821,-0.55177 -0.0472,1.3677 0.581,-1.64358 3.58516,-1.85257 0.51615,0.66267 1.28046,3.11661 -0.38001,-4.51162 5.78428,-2.98842 1.08588,3.05252 -0.12917,-3.54688 0.87741,-0.45311 0.13773,0.0412 -0.0922,-0.0652 4.18116,-2.16022 0.074,0.20677 -0.009,-0.24077 0.45825,-0.23687 -1.76015,6.87082 4.84364,-7.74082 7.21748,12.27974 -3.15262,-13.87315 2.93608,1.61738 -3.40292,-3.6706 -0.35053,-1.54326 0.82755,-1.32255 2.66274,-1.19604 -0.94064,-1.55608 3.60391,-5.75949 -1.29224,-0.60527 -0.47863,-2.73371 0.13238,-0.0797 -0.18866,-0.24356 -0.64102,-3.66001 -0.24013,0.0892 -3.2641,-3.29049 a 11.291549,11.741453 0 0 0 -1.15718,-4.24299 11.291549,11.741453 0 0 0 10.30686,-11.68897 11.291549,11.741453 0 0 0 -6.53089,-10.63169 11.291549,11.741453 0 0 0 7.55569,-11.06698 11.291549,11.741453 0 0 0 -8.67481,-11.40807 11.291549,11.741453 0 0 0 0.7316,-4.11703 11.291549,11.741453 0 0 0 -8.36768,-11.326699 11.291549,11.741453 0 0 0 -0.21761,-0.394594 11.291549,11.741453 0 0 0 5.04409,-9.771176 11.291549,11.741453 0 0 0 -1.56881,-5.942853 11.291549,11.741453 0 0 0 7.82581,-11.159496 11.291549,11.741453 0 0 0 -10.64935,-11.708471 11.291549,11.741453 0 0 0 0.18062,-2.026466 11.291549,11.741453 0 0 0 -11.29144,-11.741354 11.291549,11.741453 0 0 0 -1.20595,0.08081 11.291549,11.741453 0 0 0 -1.95632,-0.327155 11.291549,11.741453 0 0 0 -10.38136,-7.15561 11.291549,11.741453 0 0 0 -3.26465,0.512189 11.291549,11.741453 0 0 0 -5.40158,3.102121 11.291549,11.741453 0 0 0 -0.71339,-0.234637 11.291549,11.741453 0 0 0 -7.59107,-8.650937 11.291549,11.741453 0 0 0 -11.00791,-9.192106 11.291549,11.741453 0 0 0 -5.01783,1.22892 11.291549,11.741453 0 0 0 -0.98621,0.446424 11.291549,11.741453 0 0 0 -1.95042,-1.198269 11.291549,11.741453 0 0 0 -7.52782,-3.006259 11.291549,11.741453 0 0 0 -11.29144,11.741354 11.291549,11.741453 0 0 0 0.0546,1.05559 10.459541,10.876294 0 0 0 -1.43696,-0.115368 10.459541,10.876294 0 0 0 -3.34451,0.5852 10.459541,10.876294 0 0 0 -1.64277,-0.148808 10.459541,10.876294 0 0 0 -7.81188,3.659455 10.459541,10.876294 0 0 0 -0.60726,-0.460358 10.459541,10.876294 0 0 0 1.37906,-5.381617 10.459541,10.876294 0 0 0 -10.45907,-10.876372 10.459541,10.876294 0 0 0 -8.54456,4.61417 10.459541,10.876294 0 0 0 -6.11605,9.879858 10.459541,10.876294 0 0 0 0.59762,3.587 10.459541,10.876294 0 0 0 -3.0122,1.806877 10.459541,10.876294 0 0 0 0.0949,-1.380517 10.459541,10.876294 0 0 0 -1.1754,-5.000957 10.459541,10.876294 0 0 0 1.87807,-6.210928 10.459541,10.876294 0 0 0 -10.4596,-10.8763704 z m 59.65491,27.6671679 a 11.291549,11.741453 0 0 0 0.61691,0.309878 10.459541,10.876294 0 0 0 -0.63674,0.100323 10.459541,10.876294 0 0 0 0.0198,-0.410199 z m -21.09449,13.26176 a 10.459541,10.876294 0 0 0 0.63191,0.376758 10.459541,10.876294 0 0 0 -0.0166,0.114254 10.459541,10.876294 0 0 0 -0.66568,-0.176675 10.459541,10.876294 0 0 0 0.0504,-0.314337 z M 70.540112,121.27228 a 10.459541,10.876294 0 0 0 0.621199,0.94747 10.459541,10.876294 0 0 0 -1.04087,-0.47931 10.459541,10.876294 0 0 0 0.419671,-0.46816 z m 4.167233,4.02228 a 10.459541,10.876294 0 0 0 0.07557,0.0379 10.459541,10.876294 0 0 0 -0.03056,0.0278 10.459541,10.876294 0 0 0 -0.04502,-0.0658 z m 125.963995,45.12119 0.48935,0.58353 -0.50435,0.39404 z m -56.89087,0.11148 0.0198,0.0262 -0.0659,0.2129 -0.13988,-0.1031 z m 86.11241,2.10449 0.29746,0.83655 -1.12609,0.64595 -0.22136,-0.94635 0.20207,-0.14993 z m -70.89868,1.47526 -0.67908,0.97366 -0.26155,-0.89507 z m 71.54347,0.33607 0.38536,1.08346 -1.28207,-0.90679 z m -71.0525,0.0385 0.0371,0.83879 -0.64746,1.04667 -0.28942,-0.36338 -0.20261,-0.69165 z m 74.82952,0.81984 -0.16347,0.23853 -0.006,-0.18057 z m -66.15526,0.0463 -0.40036,0.56514 -0.16562,-0.31657 z m 12.83025,0.15605 1.05052,1.17375 0.53062,0.76856 -1.89737,1.38609 z m -21.43752,0.48488 0.0574,1.29914 -0.64211,-0.80478 z m 6.70402,0.19562 0.77396,0.75854 -3.47153,4.90398 0.23475,-4.15437 0.21546,-0.51999 z m -6.18787,0.13154 0.26317,1.0372 -0.36822,0.37786 -0.20421,-0.25581 z m 69.63215,0.6348 1.93541,0.58074 0.13883,0.39014 -0.72304,0.66991 -1.93328,-1.36993 1.64707,0.41131 z m -55.08838,0.0624 3.24964,3.29552 0.66622,3.12665 -3.8896,-6.18475 z m -24.66894,0.29483 0.30604,0.0987 -0.56598,0.94747 -0.0478,-0.0558 z m -94.480632,0.0245 0.07665,0.0802 -0.202599,0.50049 -0.08897,-0.13043 z m 146.896632,0.21289 0.8238,0.45869 -0.82434,1.0216 -0.99637,-1.07288 0.0702,-0.15661 z m -41.91082,0.46091 0.046,0.39014 -0.23371,-0.29316 z m -133.469292,0.17167 0.167206,0.94412 -0.576696,-0.0691 z m 177.318742,0.44643 0.4052,0.22516 -0.0139,1.49086 -0.62763,0.51944 -1.20808,-1.30138 z m -108.084298,0.0257 0.693555,0.277 0.356425,0.19005 0.02198,0.0239 -0.574569,0.35112 -0.553665,-0.79253 z m 86.706808,0.21123 -0.98513,3.4772 1.96489,-2.96724 0.82273,1.19158 -3.02024,2.01811 -1.1041,-2.96056 0.002,-0.0234 z m -103.315168,0.068 0.06861,0.10868 -0.0938,0.0463 z m 117.064078,0.15661 0.11685,0.16386 -0.80076,1.34373 -0.36821,-1.22335 z m -71.68172,0.0635 0.55849,0.76075 -0.24603,0.58186 z m 102.12314,0.0312 1.32816,0.3996 0.46523,1.00042 -0.29212,0.2703 0.34518,-0.15661 0.0584,0.12596 -0.46255,0.47374 -1.37157,-1.27463 z m -11.53639,0.20397 -0.48935,2.36756 -0.32587,-0.40462 0.63459,-1.82471 z m -1.39891,0.24747 -0.006,0.20621 -0.28836,0.41967 -0.30443,-0.37732 z m -159.832996,0.0479 0.177408,0.1371 -0.176873,0.37341 -0.15168,-0.19394 z m 174.791076,0.10868 0.47166,0.14212 -0.40466,0.37509 z m -148.017891,0.29595 0.49578,1.65417 -0.03269,0.0452 -0.138819,-0.10591 -0.473269,-1.57392 z m 49.837931,0.37898 3.84244,3.31001 0.40574,0.70447 0.27388,1.69318 -4.79916,-5.38608 z m 83.19723,0.0108 -0.004,0.11425 -0.0557,-0.0691 z m 15.1312,0.073 -0.0445,0.0457 -0.003,-0.0239 z m -38.99618,0.26586 -0.0664,0.18002 -0.0643,-0.14436 z m 14.398,0.10752 -0.005,0.6036 -0.41111,-0.44252 z m -80.41872,0.13822 0.46523,0.78194 -0.21601,0.51164 -0.27119,-0.68385 z m 70.53688,0.005 0.48293,0.70392 -0.50009,0.83933 z m 32.47654,0.11035 0.96261,0.43862 -0.75143,0.76967 -0.13669,-0.32101 z m -142.513942,1.10074 0.707494,1.86205 -0.420209,0.29706 -0.615838,-0.47039 z m -9.363538,0.17779 0.460406,0.15661 -0.253517,0.26584 -0.231544,-0.37285 z m -22.307414,0.35891 0.0059,0.004 -0.0038,0.008 z m 75.014984,0.95416 0.46577,0.26919 0.87202,1.18824 -0.60136,0.61363 -1.52754,-1.15312 z m 96.06659,0.0635 0.67855,1.25233 -1.75748,1.79963 z m -138.526791,0.7719 0.0997,0.26307 -0.0209,0.0847 -0.349458,-0.2664 z m -8.033244,0.43305 0.206889,1.41118 -0.709101,-1.14365 z m 45.069335,0.40964 0.45773,0.15327 -0.51775,1.22558 0.0359,-0.82319 0.10237,0.1003 -0.0986,-0.18837 z m 13.24992,0.30597 1.52433,2.64679 -1.64117,-1.84199 z m -10.16268,0.72733 1.84215,0.61641 -3.45545,3.52792 -0.81039,-1.33147 z m -13.44394,0.81037 0.42718,0.57571 -0.86025,1.36214 -0.21868,-0.88283 z m -15.696663,0.0156 0.03056,0.0496 -0.01716,0.0128 z m 6.179833,0.46871 0.55902,0.22627 0.18384,1.29358 -1.01408,-1.45297 z m 2.56787,0.0234 0.21869,0.23352 -0.12383,0.26864 -0.15596,-0.13321 z m -0.15705,0.95248 0.0376,0.015 -0.0623,0.13599 z m 8.6255,0.71729 -0.97654,3.69735 -0.59387,-2.39542 z m 9.18131,0.19618 1.12449,0.9653 -1.77195,1.80855 0.0922,-2.12957 z"
       id="path852"
       inkscape:connector-curvature="0" />
    <path
       sodipodi:nodetypes="ccccccccccccccccccccccccccccccc"
       inkscape:connector-curvature="0"
       id="path1748-1"
       d="m 281.73783,325.65174 c 0.53206,1.42517 2.00278,3.19891 5.08141,5.56935 -5.5053,2.96179 -4.05145,7.21853 -2.71153,11.45385 -0.01,9.23654 4.41863,8.97078 7.56899,11.4412 -3.60292,1.95977 -2.77053,4.77825 -1.32968,7.71475 -3.72772,2.93653 -0.28561,4.08842 0.3092,5.94905 1.17279,3.29451 1.23646,6.66187 7.10137,9.64795 -0.91197,3.64228 0.84943,4.99992 2.05941,6.82897 2.00967,0.72869 2.3256,5.39877 13.01301,6.60639 -1.72304,0.37209 -1.55493,6.85882 6.04592,8.72243 2.36348,1.82203 14.72465,4.66112 22.17585,1.68404 -0.003,1.32526 7.48489,8.30053 7.37672,6.32277 0.99682,-0.18106 -0.01,3.32244 12.55751,1.33004 0.65621,4.51411 7.81215,3.44805 13.33877,1.94224 0,0 7.23779,4.42415 13.62633,-1.22756 -0.47545,2.20751 13.58891,6.26584 17.16177,-2.78603 0.40217,1.52874 7.55269,2.99045 10.58017,2.28895 -1.30879,-0.28947 10.5488,2.52634 18.25474,-3.35533 0.1016,1.08353 8.69132,4.46811 18.53471,-1.21852 -1.43914,1.72567 11.01685,1.27106 13.91327,-4.39645 5.42968,2.17124 6.80925,0.25319 8.21155,-1.535 8.65645,0.14658 8.24269,-4.90665 9.63157,-6.76801 0.82804,-0.82428 5.60516,-0.0315 8.81214,-5.88539 2.20764,1.99377 18.45629,-2.60951 17.01541,-11.06737 4.84964,-0.79674 8.43731,-2.27614 6.44799,-7.88587 6.76452,-0.0306 9.71311,-8.05483 2.16186,-12.08095 5.80905,-0.58331 13.53101,-8.31332 2.83494,-12.29087 1.30126,-4.55057 4.35832,-9.38224 -0.9785,-12.8692 0.56622,-1.23988 2.34539,-2.63915 -0.21948,-3.46776 l 0.32827,-0.66772 z"
       style="fill:#005b25;fill-opacity:1;stroke:#cddc39;stroke-width:0.27440089px;stroke-linecap:butt;stroke-linejoin:miter;stroke-opacity:0.15083798" />
    <path
       sodipodi:nodetypes="ccccccccccccccscccccccccccccccccccccccccccccccccccccccccccccccccccccccsscscccscccccc"
       inkscape:connector-curvature="0"
       id="path1750-2"
       d="m 281.97229,320.84416 c -4.89811,-5.29853 -1.1983,-11.69214 0.70335,-17.85672 -10.21113,-6.46225 -1.4504,-16.4339 4.45462,-16.71206 -7.04936,-6.24389 -3.04004,-17.05469 3.75125,-16.48314 -1.26129,-7.92554 2.53222,-9.64207 7.50251,-10.30195 -0.33798,-11.80801 16.56788,-16.68897 18.52182,-13.73594 3.98446,-7.79101 8.67382,-6.26296 9.61259,-7.32584 1.63735,-2.44382 1.88403,-9.45844 10.55041,-8.4705 1.64121,-2.34156 3.27672,-4.86402 8.44032,-1.37359 3.64845,-7.5619 16.20612,-7.0595 14.53611,-4.80758 10.62131,-6.95786 18.79625,-1.50518 18.75627,0 8.50224,-7.42112 20.03156,-2.45768 18.75628,-2.97612 3.12955,-0.69374 10.11266,1.97364 10.31595,4.12078 4.77043,-12.17311 18.35018,-5.29394 17.58401,-2.28933 7.15025,-7.22318 13.83276,-0.45786 13.83276,-0.45786 5.74243,-1.57743 13.06219,-2.40005 13.1294,3.89185 12.87059,-1.61026 11.40212,3.13564 12.42602,2.97612 7.15822,-6.70381 14.30231,-0.71799 14.06721,1.14466 12.2663,0.34336 14.55169,10.10496 14.5361,12.59128 7.38235,3.26277 6.70112,12.23394 4.92353,12.59129 10.56521,2.63718 10.27056,9.11352 12.19156,10.30196 0.97449,2.63505 2.56434,4.66926 1.17227,9.61516 5.49355,4.65495 5.11608,9.30991 5.86133,13.96487 0.35312,2.62283 3.65595,4.5256 -0.46891,8.24156 1.0611,4.18501 1.52718,8.15213 -2.34454,10.53089 2.8374,3.69666 7.31539,3.73171 6.09579,16.48313 0.78973,5.96903 1.69159,11.97787 -4.22015,15.56739 7.76149,9.92244 3.58409,12.30162 1.17226,15.79635 -0.8763,3.48572 0.57718,8.05246 -6.09578,8.69943 5.27628,2.13224 5.14656,7.21694 6.09578,13.50701 -6.12654,-1.95614 -13.95282,-10.63965 -10.55041,-10.07302 -2.14263,5.18627 2.94449,13.14731 -9.61256,14.42273 l -5.39243,-2.06038 c 1.64663,5.92693 -2.62493,5.45068 -12.42603,5.49438 l -4.45463,-4.34974 -5.15797,4.34974 -5.39242,0.45786 c -1.96037,3.32553 -3.28385,1.97679 -5.86134,2.28931 -1.88721,1.35744 -3.3564,10.78219 -7.73696,6.63905 l -4.92352,-5.49438 v 0 l 0.46891,5.03651 -4.92352,-0.91573 c -10.99672,2.68577 -15.09157,10.75105 -6.33025,-3.43398 l -8.20586,6.63904 c -4.81672,-5.81742 -2.65217,-5.72262 -3.51682,-10.98876 l -7.26805,12.59128 1.40672,-13.04915 -6.33024,7.5548 c -5.07666,-6.25442 -7.89327,-4.12081 -9.37813,-6.868 l 2.11007,8.24157 c -4.45961,-1.60084 -6.26584,-4.80552 -5.86134,-3.89185 v 0 c -2.11008,-0.53417 -4.68907,2.8235 -6.33025,-1.60252 -1.87169,-1.93356 -8.33545,0.94637 -7.9714,-4.80759 -1.93189,1.31633 -4.32244,4.42036 -9.37815,7.55477 0.0572,-5.91852 3.1982,-11.54896 3.5168,-12.59129 -1.2338,1.10313 -5.2134,5.8781 -7.50251,5.49439 -8.4082,-0.89423 -7.74695,-1.52112 -10.5504,-6.41012 l -10.78485,5.03652 2.34453,-5.26544 -9.37814,7.78369 c -1.56638,-1.62686 -1.70323,-3.71903 -1.40671,-5.95224 l -5.39244,6.41011 -11.25376,-4.80758 c -0.26001,3.99455 -1.5303,6.01616 -2.34453,8.92836 -1.099,-3.59852 -4.37404,-6.84293 -2.11008,-10.98874 l -4.92352,5.26544 v 0 c 0.58135,-2.8702 1.22802,-3.99893 -3.17082,-0.79049 0.79034,-1.30523 -0.99302,-1.71683 -0.5455,-2.3525 0.93465,-1.32756 -2.46168,-0.80955 -2.08051,-1.03898 2.58791,-1.5577 0.45078,-5.70882 2.1309,-8.18038 -1.85574,1.43209 -3.76847,4.41003 -5.56661,5.86087 -1.52652,1.23169 -3.10145,0.88326 -3.10817,2.60962 l -1.28949,-4.23525 c 0.63176,-3.98956 -2.15753,-1.35513 -1.99285,-1.717 0.67874,-1.32552 -0.0648,-4.86734 -2.14337,-2.5025 0,0 -2.58246,-5.33819 -4.42133,-6.19693 1.28116,-3.69952 2.91171,-7.67602 6.71381,-11.67554 -3.67399,-2.98457 -5.12359,-7.89116 -14.77056,-6.41011 4.35184,-5.32721 -7.4735,-12.15906 -7.97141,-11.90447 l 4.92352,-10.5309 c -2.46499,-1.37678 -0.49604,-3.14715 0.23446,-4.80758 z"
       style="fill:#04ff69;fill-opacity:1;stroke:#cddc39;stroke-width:0.32434702px;stroke-linecap:butt;stroke-linejoin:miter;stroke-opacity:0.14901961" />
  </g>
</svg>
