<?xml version="1.0" encoding="UTF-8" standalone="no"?>
<!-- Created with Inkscape (http://www.inkscape.org/) -->

<svg
   xmlns:dc="http://purl.org/dc/elements/1.1/"
   xmlns:cc="http://creativecommons.org/ns#"
   xmlns:rdf="http://www.w3.org/1999/02/22-rdf-syntax-ns#"
   xmlns:svg="http://www.w3.org/2000/svg"
   xmlns="http://www.w3.org/2000/svg"
   xmlns:xlink="http://www.w3.org/1999/xlink"
   xmlns:sodipodi="http://sodipodi.sourceforge.net/DTD/sodipodi-0.dtd"
   xmlns:inkscape="http://www.inkscape.org/namespaces/inkscape"
   width="201.96194mm"
   height="194.81583mm"
   viewBox="0 0 201.96194 194.81583"
   version="1.1"
   id="svg1071"
   inkscape:version="0.92.3 (unknown)"
   sodipodi:docname="TreeBush.svg">
  <defs
     id="defs1065">
    <linearGradient
       id="a"
       x1="500.87"
       x2="463.88"
       y1="575.79999"
       y2="539.75"
       gradientTransform="matrix(-60.285,-9.4312,-48.457,309.74,509.04,413.06)"
       gradientUnits="userSpaceOnUse">
      <stop
         stop-color="#9ed747"
         offset="0"
         id="stop8" />
      <stop
         stop-color="#7fcc2b"
         offset="1"
         id="stop10" />
    </linearGradient>
    <clipPath
       id="c">
      <path
         inkscape:connector-curvature="0"
         d="m 492.82,620.53 c 0,0 -1.181,-8.485 -10.269,-16.019 -9.088,-7.534 -31.685,-15.146 -46.705,-33.749 -15.02,-18.603 -7.72,-36.875 -3.868,-42.334 2.211,-3.134 5.562,-3.876 8.019,-3.935 -0.91,4.277 -1.486,9.019 -1.24,13.954 1.975,19.781 17.473,32.284 19.949,34.611 1.349,1.202 3.866,3.206 6.919,5.426 3.133,2.181 6.435,4.655 9.461,7.536 6.074,5.517 10.949,11.079 10.935,11.079 0.012,0 -4.141,-6.116 -9.656,-12.355 -2.642,-3.15 -5.994,-6.258 -8.846,-8.643 -2.823,-2.472 -5.122,-4.588 -6.416,-5.743 -1.264,-1.176 -5.338,-4.717 -9.235,-10.434 -1.967,-2.905 -3.76,-6.166 -5.493,-10.141 -1.684,-3.434 -2.509,-7.461 -2.548,-11.521 -0.062,-7.086 1.858,-14.012 3.846,-19.377 2.668,-1.382 6.865,-1.834 13.43,0.615 5.236,2.902 9.737,6.218 13.616,9.831 l -6.202,8.169 11.594,-2.494 c 3.872,4.61 6.918,9.569 9.3,14.689 l -11.267,3.398 14.096,3.661 c 2.466,7.16 3.802,14.474 4.41,21.474 l -11.195,-1.946 -0.114,-0.047 0.067,0.04 -1.22,-0.213 12.821,8.513 c 0.57,19.967 -4.189,35.955 -4.189,35.955"
         id="path5" />
    </clipPath>
    <linearGradient
       inkscape:collect="always"
       xlink:href="#a"
       id="linearGradient1762"
       gradientUnits="userSpaceOnUse"
       gradientTransform="matrix(-60.285,-9.4312,-48.457,309.74,509.04,413.06)"
       x1="500.87"
       y1="575.79999"
       x2="463.88"
       y2="539.75" />
    <linearGradient
       inkscape:collect="always"
       xlink:href="#a"
       id="linearGradient1764"
       gradientUnits="userSpaceOnUse"
       gradientTransform="matrix(-60.285,-9.4312,-48.457,309.74,509.04,413.06)"
       x1="500.87"
       y1="575.79999"
       x2="463.88"
       y2="539.75" />
    <linearGradient
       inkscape:collect="always"
       xlink:href="#a"
       id="linearGradient1766"
       gradientUnits="userSpaceOnUse"
       gradientTransform="matrix(-60.285,-9.4312,-48.457,309.74,509.04,413.06)"
       x1="500.87"
       y1="575.79999"
       x2="463.88"
       y2="539.75" />
    <linearGradient
       inkscape:collect="always"
       xlink:href="#a"
       id="linearGradient1768"
       gradientUnits="userSpaceOnUse"
       gradientTransform="matrix(-60.285,-9.4312,-48.457,309.74,509.04,413.06)"
       x1="500.87"
       y1="575.79999"
       x2="463.88"
       y2="539.75" />
    <linearGradient
       inkscape:collect="always"
       xlink:href="#a"
       id="linearGradient1770"
       gradientUnits="userSpaceOnUse"
       gradientTransform="matrix(-60.285,-9.4312,-48.457,309.74,509.04,413.06)"
       x1="500.87"
       y1="575.79999"
       x2="463.88"
       y2="539.75" />
    <clipPath
       id="c-3">
      <path
         inkscape:connector-curvature="0"
         d="m 492.82,620.53 c 0,0 -1.181,-8.485 -10.269,-16.019 -9.088,-7.534 -31.685,-15.146 -46.705,-33.749 -15.02,-18.603 -7.72,-36.875 -3.868,-42.334 2.211,-3.134 5.562,-3.876 8.019,-3.935 -0.91,4.277 -1.486,9.019 -1.24,13.954 1.975,19.781 17.473,32.284 19.949,34.611 1.349,1.202 3.866,3.206 6.919,5.426 3.133,2.181 6.435,4.655 9.461,7.536 6.074,5.517 10.949,11.079 10.935,11.079 0.012,0 -4.141,-6.116 -9.656,-12.355 -2.642,-3.15 -5.994,-6.258 -8.846,-8.643 -2.823,-2.472 -5.122,-4.588 -6.416,-5.743 -1.264,-1.176 -5.338,-4.717 -9.235,-10.434 -1.967,-2.905 -3.76,-6.166 -5.493,-10.141 -1.684,-3.434 -2.509,-7.461 -2.548,-11.521 -0.062,-7.086 1.858,-14.012 3.846,-19.377 2.668,-1.382 6.865,-1.834 13.43,0.615 5.236,2.902 9.737,6.218 13.616,9.831 l -6.202,8.169 11.594,-2.494 c 3.872,4.61 6.918,9.569 9.3,14.689 l -11.267,3.398 14.096,3.661 c 2.466,7.16 3.802,14.474 4.41,21.474 l -11.195,-1.946 -0.114,-0.047 0.067,0.04 -1.22,-0.213 12.821,8.513 c 0.57,19.967 -4.189,35.955 -4.189,35.955"
         id="path5-5" />
    </clipPath>
    <clipPath
       id="c-3-1">
      <path
         inkscape:connector-curvature="0"
         d="m 492.82,620.53 c 0,0 -1.181,-8.485 -10.269,-16.019 -9.088,-7.534 -31.685,-15.146 -46.705,-33.749 -15.02,-18.603 -7.72,-36.875 -3.868,-42.334 2.211,-3.134 5.562,-3.876 8.019,-3.935 -0.91,4.277 -1.486,9.019 -1.24,13.954 1.975,19.781 17.473,32.284 19.949,34.611 1.349,1.202 3.866,3.206 6.919,5.426 3.133,2.181 6.435,4.655 9.461,7.536 6.074,5.517 10.949,11.079 10.935,11.079 0.012,0 -4.141,-6.116 -9.656,-12.355 -2.642,-3.15 -5.994,-6.258 -8.846,-8.643 -2.823,-2.472 -5.122,-4.588 -6.416,-5.743 -1.264,-1.176 -5.338,-4.717 -9.235,-10.434 -1.967,-2.905 -3.76,-6.166 -5.493,-10.141 -1.684,-3.434 -2.509,-7.461 -2.548,-11.521 -0.062,-7.086 1.858,-14.012 3.846,-19.377 2.668,-1.382 6.865,-1.834 13.43,0.615 5.236,2.902 9.737,6.218 13.616,9.831 l -6.202,8.169 11.594,-2.494 c 3.872,4.61 6.918,9.569 9.3,14.689 l -11.267,3.398 14.096,3.661 c 2.466,7.16 3.802,14.474 4.41,21.474 l -11.195,-1.946 -0.114,-0.047 0.067,0.04 -1.22,-0.213 12.821,8.513 c 0.57,19.967 -4.189,35.955 -4.189,35.955"
         id="path5-5-8" />
    </clipPath>
    <clipPath
       id="c-3-2">
      <path
         inkscape:connector-curvature="0"
         d="m 492.82,620.53 c 0,0 -1.181,-8.485 -10.269,-16.019 -9.088,-7.534 -31.685,-15.146 -46.705,-33.749 -15.02,-18.603 -7.72,-36.875 -3.868,-42.334 2.211,-3.134 5.562,-3.876 8.019,-3.935 -0.91,4.277 -1.486,9.019 -1.24,13.954 1.975,19.781 17.473,32.284 19.949,34.611 1.349,1.202 3.866,3.206 6.919,5.426 3.133,2.181 6.435,4.655 9.461,7.536 6.074,5.517 10.949,11.079 10.935,11.079 0.012,0 -4.141,-6.116 -9.656,-12.355 -2.642,-3.15 -5.994,-6.258 -8.846,-8.643 -2.823,-2.472 -5.122,-4.588 -6.416,-5.743 -1.264,-1.176 -5.338,-4.717 -9.235,-10.434 -1.967,-2.905 -3.76,-6.166 -5.493,-10.141 -1.684,-3.434 -2.509,-7.461 -2.548,-11.521 -0.062,-7.086 1.858,-14.012 3.846,-19.377 2.668,-1.382 6.865,-1.834 13.43,0.615 5.236,2.902 9.737,6.218 13.616,9.831 l -6.202,8.169 11.594,-2.494 c 3.872,4.61 6.918,9.569 9.3,14.689 l -11.267,3.398 14.096,3.661 c 2.466,7.16 3.802,14.474 4.41,21.474 l -11.195,-1.946 -0.114,-0.047 0.067,0.04 -1.22,-0.213 12.821,8.513 c 0.57,19.967 -4.189,35.955 -4.189,35.955"
         id="path5-5-89" />
    </clipPath>
  </defs>
  <sodipodi:namedview
     id="base"
     pagecolor="#ffffff"
     bordercolor="#666666"
     borderopacity="1.0"
     inkscape:pageopacity="0.0"
     inkscape:pageshadow="2"
     inkscape:zoom="0.98994949"
     inkscape:cx="554.32841"
     inkscape:cy="316.75419"
     inkscape:document-units="mm"
     inkscape:current-layer="layer1"
     showgrid="false"
     showguides="true"
     inkscape:window-width="1920"
     inkscape:window-height="1029"
     inkscape:window-x="0"
     inkscape:window-y="0"
     inkscape:window-maximized="1"
     fit-margin-top="0"
     fit-margin-left="0"
     fit-margin-right="0"
     fit-margin-bottom="0" />
  <metadata
     id="metadata1068">
    <rdf:RDF>
      <cc:Work
         rdf:about="">
        <dc:format>image/svg+xml</dc:format>
        <dc:type
           rdf:resource="http://purl.org/dc/dcmitype/StillImage" />
        <dc:title></dc:title>
      </cc:Work>
    </rdf:RDF>
  </metadata>
  <g
     inkscape:label="Layer 1"
     inkscape:groupmode="layer"
     id="layer1"
     transform="translate(-7.7977255,-5.8216798)">
    <path
       sodipodi:nodetypes="ccccccccccccccccccccccccccccccc"
       inkscape:connector-curvature="0"
       id="path1748"
       d="m 220.50062,113.27255 c 0.42888,1.42517 1.6144,3.19891 4.09602,5.56935 -4.43771,2.96179 -3.26579,7.21853 -2.18571,11.45385 -0.008,9.23654 3.56177,8.97078 6.10121,11.4412 -2.90424,1.95977 -2.23327,4.77825 -1.07183,7.71475 -3.00484,2.93653 -0.23022,4.08842 0.24924,5.94905 0.94536,3.29451 0.99669,6.66187 5.72427,9.64795 -0.73512,3.64228 0.68471,4.99992 1.66005,6.82897 1.61995,0.72869 1.87462,5.39877 10.48953,6.60639 -1.38892,0.37209 -1.25341,6.85882 4.87348,8.72243 1.90515,1.82203 11.86924,4.66111 17.8755,1.68404 -0.002,1.32526 6.03342,8.30053 5.94622,6.32277 0.80352,-0.18106 -0.008,3.32244 10.12235,1.33003 0.52896,4.51412 6.29722,3.44805 10.75211,1.94224 0,0 5.83424,4.42416 10.98391,-1.22755 -0.38325,2.20751 10.95373,6.26584 13.83374,-2.78603 0.32418,1.52874 6.08807,2.99045 8.52846,2.28895 -1.05499,-0.28947 8.50317,2.52634 14.71477,-3.35533 0.0819,1.08353 7.0059,4.46811 14.94045,-1.21852 -1.16006,1.72567 8.88046,1.27106 11.2152,-4.39645 4.37676,2.17124 5.4888,0.25319 6.61917,-1.535 6.97778,0.14658 6.64426,-4.90665 7.76381,-6.76801 0.66746,-0.82428 4.5182,-0.0315 7.10328,-5.88539 1.77954,1.99377 14.87725,-2.60951 13.71579,-11.06738 3.90919,-0.79673 6.80114,-2.27613 5.19759,-7.88586 5.45274,-0.0306 7.82954,-8.05483 1.74263,-12.08095 4.68256,-0.58331 10.90707,-8.31332 2.28519,-12.29087 1.04892,-4.55057 3.51315,-9.38224 -0.78875,-12.8692 0.45642,-1.23988 1.89057,-2.63915 -0.17692,-3.46776 l 0.26461,-0.66772 z"
       style="fill:#5a6f00;fill-opacity:1;stroke:#cddc39;stroke-width:0.24636239px;stroke-linecap:butt;stroke-linejoin:miter;stroke-opacity:0.15083798" />
    <path
       sodipodi:nodetypes="ccccccccccccccscccccccccccccccccccccccccccccccccccccccccccccccccccccccsscscccscccccc"
       inkscape:connector-curvature="0"
       id="path1750"
       d="m 220.68961,108.46497 c -3.94826,-5.29854 -0.96592,-11.692143 0.56696,-17.856724 -8.23098,-6.462249 -1.16914,-16.4339 3.59078,-16.712065 -5.68235,-6.243883 -2.45052,-17.054686 3.0238,-16.483131 -1.0167,-7.925544 2.04117,-9.642077 6.04762,-10.301957 -0.27244,-11.808012 13.35503,-16.688964 14.93006,-13.735943 3.2118,-7.791003 6.99179,-6.262952 7.74851,-7.325836 1.31984,-2.443813 1.51868,-9.45844 8.50447,-8.470497 1.32295,-2.341559 2.6413,-4.864026 6.80357,-1.373595 2.94094,-7.5618957 13.06342,-7.0594945 11.71726,-4.807579 8.56162,-6.9578575 15.15127,-1.505179 15.11905,0 6.85348,-7.4211232 16.14703,-2.4576818 15.11905,-2.9761225 2.52266,-0.6937391 8.1516,1.9736485 8.31547,4.1207835 3.84534,-12.17311085 14.7917,-5.2939418 14.17411,-2.289324 5.76367,-7.223185 11.1503,-0.457865 11.1503,-0.457865 4.62886,-1.5774326 10.52917,-2.4000473 10.58334,3.891851 10.37472,-1.610264 9.19102,3.135641 10.01636,2.976121 5.7701,-6.703816 11.5288,-0.717995 11.33929,1.144662 9.88762,0.343358 11.72982,10.104958 11.71726,12.591281 5.95076,3.262763 5.40163,12.23394 3.96875,12.591281 8.51641,2.637182 8.2789,9.113525 9.82738,10.301958 0.78552,2.635057 2.06706,4.669266 0.94494,9.61516 4.42824,4.654957 4.12397,9.309915 4.7247,13.964873 0.28464,2.622832 2.94699,4.525599 -0.37798,8.241567 0.85533,4.185 1.23103,8.152128 -1.88988,10.530889 2.28717,3.696657 5.89678,3.731706 4.91369,16.483132 0.63658,5.96903 1.36355,11.97787 -3.40178,15.56739 6.25638,9.92244 2.88906,12.30162 0.94494,15.79635 -0.70637,3.48572 0.46525,8.05246 -4.91369,8.69943 4.2531,2.13224 4.14854,7.21694 4.91369,13.50701 -4.93848,-1.95614 -11.24709,-10.63965 -8.50447,-10.07302 -1.72713,5.18627 2.37349,13.14731 -7.7485,14.42273 l -4.34673,-2.06038 c 1.32732,5.92693 -2.1159,5.45068 -10.01637,5.49438 l -3.59078,-4.34974 -4.15774,4.34974 -4.34672,0.45786 c -1.58021,3.32553 -2.64704,1.97679 -4.7247,2.28931 -1.52124,1.35744 -2.70553,10.78219 -6.23661,6.63905 l -3.96875,-5.49438 v 0 l 0.37798,5.03651 -3.96875,-0.91573 c -8.86423,2.68577 -12.165,10.75105 -5.10268,-3.43398 l -6.61458,6.63904 c -3.88266,-5.81743 -2.13786,-5.72262 -2.83483,-10.98876 l -5.85863,12.59128 1.13393,-13.04915 -5.10268,7.55479 c -4.09219,-6.25441 -6.3626,-4.1208 -7.55952,-6.86799 l 1.70089,8.24157 c -3.59479,-1.60084 -5.05076,-4.80552 -4.7247,-3.89185 v 0 c -1.70089,-0.53417 -3.77976,2.8235 -5.10268,-1.60252 -1.50874,-1.93356 -6.71904,0.94637 -6.42559,-4.80759 -1.55726,1.31633 -3.48423,4.42036 -7.55953,7.55477 0.0461,-5.91852 2.578,-11.54896 2.83482,-12.59129 -0.99454,1.10313 -4.20242,5.8781 -6.04762,5.49439 -6.77768,-0.89423 -6.24466,-1.52112 -8.50446,-6.41012 l -8.69345,5.03652 1.88988,-5.26544 -7.55953,7.78369 c -1.26263,-1.62686 -1.37294,-3.71903 -1.13392,-5.95224 l -4.34673,6.41011 -9.07143,-4.80758 c -0.20959,3.99455 -1.23354,6.01616 -1.88988,8.92836 -0.88588,-3.59852 -3.52581,-6.84293 -1.70089,-10.98874 l -3.96875,5.26544 v 0 c 0.46862,-2.8702 0.98988,-3.99894 -2.55593,-0.79049 0.63708,-1.30523 -0.80045,-1.71683 -0.43972,-2.3525 0.75341,-1.32756 -1.98431,-0.80955 -1.67705,-1.03898 2.08606,-1.5577 0.36336,-5.70882 1.71767,-8.18038 -1.49587,1.43209 -3.03768,4.41003 -4.48713,5.86087 -1.2305,1.23169 -2.50001,0.88326 -2.50543,2.60962 L 236.34991,164.21 c 0.50925,-3.98956 -1.73914,-1.35513 -1.6064,-1.717 0.54712,-1.32552 -0.0522,-4.86734 -1.72772,-2.5025 0,0 -2.08167,-5.33819 -3.56395,-6.19693 1.03272,-3.69952 2.34707,-7.67602 5.41187,-11.67554 -2.96153,-2.98457 -4.13002,-7.89116 -11.90625,-6.41011 3.50793,-5.32721 -6.02423,-12.15906 -6.42559,-11.90447 l 3.96875,-10.5309 c -1.98698,-1.37678 -0.39985,-3.14715 0.18899,-4.80758 z"
       style="fill:#ccff00;fill-opacity:1;stroke:#cddc39;stroke-width:0.29120502px;stroke-linecap:butt;stroke-linejoin:miter;stroke-opacity:0.14901961" />
    <g
       id="g1760"
       transform="matrix(0.08584605,0,0,-0.09042898,307.06948,169.13204)"
       style="fill:url(#linearGradient1770)">
      <g
         id="g1758"
         clip-path="url(#c)"
         style="fill:url(#linearGradient1768)">
        <g
           id="g1756"
           style="fill:url(#linearGradient1766)">
          <g
             id="g1754"
             style="fill:url(#linearGradient1764)">
            <path
               id="path1752"
               d="M 0,0 H 810 V 751 H 0 Z"
               inkscape:connector-curvature="0"
               style="fill:url(#linearGradient1762)" />
          </g>
        </g>
      </g>
    </g>
    <path
       sodipodi:nodetypes="ccccccccccccccccccccccccccccccc"
       inkscape:connector-curvature="0"
       id="path1748-1-0"
       d="m 205.02495,-124.21478 c 0.42888,1.42517 1.6144,3.19891 4.09602,5.56935 -4.43771,2.96179 -3.26579,7.21853 -2.18571,11.45385 -0.008,9.23654 3.56177,8.97078 6.10121,11.4412 -2.90424,1.95977 -2.23327,4.77825 -1.07183,7.71475 -3.00484,2.93653 -0.23022,4.08842 0.24924,5.94905 0.94536,3.29451 0.99669,6.66187 5.72427,9.64795 -0.73512,3.64228 0.68471,4.99992 1.66005,6.82897 1.61995,0.72869 1.87462,5.39877 10.48952,6.60639 -1.38891,0.37209 -1.2534,6.85882 4.87349,8.72243 1.90515,1.82203 11.86924,4.66112 17.8755,1.68404 -0.002,1.32526 6.03342,8.30053 5.94622,6.32277 0.80352,-0.18106 -0.008,3.32244 10.12235,1.33004 0.52896,4.51411 6.29722,3.44805 10.75211,1.94224 0,0 5.83424,4.42415 10.98391,-1.22756 -0.38325,2.20751 10.95373,6.26584 13.83374,-2.78603 0.32418,1.52874 6.08807,2.99045 8.52846,2.28895 -1.05499,-0.28947 8.50317,2.52634 14.71477,-3.35533 0.0819,1.08353 7.0059,4.46811 14.94045,-1.21852 -1.16006,1.72567 8.88046,1.27106 11.2152,-4.39645 4.37676,2.17124 5.4888,0.25319 6.61917,-1.535 6.97778,0.14658 6.64426,-4.90665 7.76381,-6.76801 0.66746,-0.82428 4.5182,-0.0315 7.10328,-5.88539 1.77954,1.99377 14.87725,-2.60951 13.71579,-11.06737 3.90919,-0.79674 6.80114,-2.27614 5.19759,-7.88587 5.45274,-0.0306 7.82954,-8.05483 1.74263,-12.08095 4.68256,-0.58331 10.90707,-8.31332 2.28519,-12.29087 1.04892,-4.55057 3.51315,-9.38224 -0.78875,-12.8692 0.45642,-1.23988 1.89057,-2.63915 -0.17692,-3.46776 l 0.26461,-0.66772 z"
       style="fill:#006100;fill-opacity:1;stroke:#cddc39;stroke-width:0.24636239px;stroke-linecap:butt;stroke-linejoin:miter;stroke-opacity:0.15083798" />
    <path
       sodipodi:nodetypes="ccccccccccccccscccccccccccccccccccccccccccccccccccccccccccccccccccccccsscscccscccccc"
       inkscape:connector-curvature="0"
       id="path1750-2-2"
       d="m 205.21394,-129.02236 c -3.94826,-5.29853 -0.96592,-11.69214 0.56696,-17.85672 -8.23098,-6.46225 -1.16914,-16.4339 3.59078,-16.71207 -5.68235,-6.24388 -2.45052,-17.05468 3.0238,-16.48313 -1.0167,-7.92554 2.04117,-9.64207 6.04762,-10.30195 -0.27244,-11.80802 13.35503,-16.68897 14.93006,-13.73595 3.21179,-7.791 6.99179,-6.26295 7.74851,-7.32583 1.31984,-2.44382 1.51868,-9.45844 8.50447,-8.4705 1.32295,-2.34156 2.6413,-4.86403 6.80357,-1.3736 2.94094,-7.56189 13.06342,-7.05949 11.71726,-4.80758 8.56162,-6.95785 15.15127,-1.50517 15.11905,0 6.85348,-7.42112 16.14703,-2.45768 15.11905,-2.97612 2.52266,-0.69374 8.1516,1.97365 8.31547,4.12079 3.84534,-12.17311 14.7917,-5.29395 14.17411,-2.28933 5.76367,-7.22318 11.1503,-0.45786 11.1503,-0.45786 4.62886,-1.57744 10.52917,-2.40005 10.58334,3.89185 10.37472,-1.61027 9.19102,3.13564 10.01636,2.97612 5.7701,-6.70382 11.5288,-0.718 11.33929,1.14466 9.88762,0.34336 11.72982,10.10496 11.71726,12.59128 5.95076,3.26277 5.40163,12.23394 3.96875,12.59128 8.51641,2.63718 8.2789,9.11353 9.82738,10.30196 0.78552,2.63506 2.06706,4.66927 0.94494,9.61516 4.42824,4.65496 4.12397,9.30992 4.7247,13.96487 0.28464,2.62284 2.94699,4.5256 -0.37798,8.24157 0.85533,4.185 1.23103,8.15213 -1.88988,10.53089 2.28717,3.69666 5.89678,3.73171 4.91369,16.48313 0.63658,5.96903 1.36355,11.97787 -3.40178,15.56739 6.25638,9.92244 2.88906,12.30162 0.94494,15.79635 -0.70637,3.48572 0.46525,8.05246 -4.91369,8.69943 4.2531,2.13224 4.14854,7.21694 4.91369,13.50701 -4.93848,-1.95614 -11.24709,-10.63965 -8.50447,-10.07302 -1.72713,5.18627 2.37349,13.14731 -7.7485,14.42273 l -4.34673,-2.06038 c 1.32732,5.92693 -2.1159,5.45068 -10.01637,5.49438 l -3.59078,-4.34974 -4.15774,4.34974 -4.34672,0.45786 c -1.58021,3.32553 -2.64704,1.97679 -4.7247,2.28931 -1.52124,1.35744 -2.70553,10.78219 -6.23661,6.63905 l -3.96875,-5.49438 v 0 l 0.37798,5.03651 -3.96875,-0.91573 c -8.86423,2.68577 -12.165,10.75105 -5.10268,-3.43398 l -6.61458,6.63904 c -3.88266,-5.81742 -2.13786,-5.72262 -2.83483,-10.98876 l -5.85863,12.59128 1.13393,-13.04915 -5.10268,7.5548 c -4.09219,-6.25442 -6.3626,-4.12081 -7.55952,-6.868 l 1.70089,8.24157 c -3.59479,-1.60084 -5.05076,-4.80552 -4.7247,-3.89185 v 0 c -1.70089,-0.53417 -3.77976,2.8235 -5.10268,-1.60252 -1.50874,-1.93356 -6.71904,0.94637 -6.42559,-4.80759 -1.55726,1.31633 -3.48423,4.42036 -7.55953,7.55477 0.0461,-5.91852 2.578,-11.54896 2.83482,-12.59129 -0.99454,1.10313 -4.20242,5.8781 -6.04762,5.49439 -6.77768,-0.89423 -6.24466,-1.52112 -8.50446,-6.41012 l -8.69345,5.03652 1.88988,-5.26544 -7.55953,7.78369 c -1.26263,-1.62686 -1.37294,-3.71903 -1.13392,-5.95224 l -4.34673,6.41011 -9.07143,-4.80758 c -0.20959,3.99455 -1.23354,6.01616 -1.88988,8.92836 -0.88588,-3.59852 -3.52582,-6.84293 -1.70089,-10.98874 l -3.96875,5.26544 v 0 c 0.46862,-2.8702 0.98988,-3.99893 -2.55593,-0.79049 0.63708,-1.30523 -0.80045,-1.71683 -0.43972,-2.3525 0.75341,-1.32756 -1.98431,-0.80955 -1.67705,-1.03898 2.08606,-1.5577 0.36336,-5.70882 1.71767,-8.18038 -1.49587,1.43209 -3.03768,4.41003 -4.48713,5.86087 -1.2305,1.23169 -2.50001,0.88326 -2.50543,2.60962 l -1.03943,-4.23525 c 0.50925,-3.98956 -1.73914,-1.35513 -1.6064,-1.717 0.54712,-1.32552 -0.0522,-4.86734 -1.72772,-2.5025 0,0 -2.08167,-5.33819 -3.56395,-6.19693 1.03272,-3.69952 2.34707,-7.67602 5.41187,-11.67554 -2.96153,-2.98457 -4.13002,-7.89116 -11.90625,-6.41011 3.50793,-5.32721 -6.02423,-12.15906 -6.42559,-11.90447 l 3.96875,-10.5309 c -1.98698,-1.37678 -0.39985,-3.14715 0.18899,-4.80758 z"
       style="fill:#00ff00;fill-opacity:1;stroke:#cddc39;stroke-width:0.29120502px;stroke-linecap:butt;stroke-linejoin:miter;stroke-opacity:0.14901961" />
    <g
       id="g1760-7-3"
       transform="matrix(0.08584605,0,0,-0.09042898,291.59379,-68.35529)"
       style="fill:#006100;fill-opacity:1">
      <g
         id="g1758-0-7"
         clip-path="url(#c-3-1)"
         style="fill:#006100;fill-opacity:1">
        <g
           id="g1756-9-5"
           style="fill:#006100;fill-opacity:1">
          <g
             id="g1754-3-9"
             style="fill:#006100;fill-opacity:1">
            <path
               id="path1752-6-2"
               d="M 56.040453,76.84492 H 866.04045 v 751 H 56.040453 Z"
               inkscape:connector-curvature="0"
               style="fill:#006100;fill-opacity:1" />
          </g>
        </g>
      </g>
    </g>
    <path
       sodipodi:nodetypes="ccccccccccccccccccccccccccccccc"
       inkscape:connector-curvature="0"
       id="path1748-1"
       d="m 12.056352,113.6551 c 0.42888,1.42517 1.6144,3.19891 4.09602,5.56935 -4.43771,2.96179 -3.26579,7.21853 -2.18571,11.45385 -0.008,9.23654 3.56177,8.97078 6.101211,11.4412 -2.904241,1.95977 -2.233271,4.77825 -1.071831,7.71475 -3.00484,2.93653 -0.230219,4.08842 0.24924,5.94905 0.94536,3.29451 0.99669,6.66187 5.72427,9.64795 -0.73512,3.64228 0.684711,4.99992 1.66005,6.82897 1.619951,0.72869 1.87462,5.39877 10.489522,6.60639 -1.388912,0.37209 -1.253401,6.85882 4.87349,8.72243 1.905148,1.82203 11.86924,4.66112 17.875498,1.68404 -0.0021,1.32526 6.033421,8.30053 5.94622,6.32277 0.803521,-0.18106 -0.008,3.32244 10.122352,1.33004 0.528958,4.51411 6.297217,3.44805 10.752107,1.94224 0,0 5.83424,4.42415 10.98391,-1.22756 -0.383249,2.20751 10.953739,6.26584 13.833749,-2.78603 0.32418,1.52874 6.08807,2.99045 8.52846,2.28895 -1.05499,-0.28947 8.50317,2.52634 14.71477,-3.35533 0.0819,1.08353 7.0059,4.46811 14.94045,-1.21852 -1.16006,1.72567 8.88046,1.27106 11.2152,-4.39645 4.37676,2.17124 5.4888,0.25319 6.61917,-1.535 6.97778,0.14658 6.64426,-4.90665 7.76381,-6.76801 0.66746,-0.82428 4.5182,-0.0315 7.10328,-5.88539 1.77954,1.99377 14.87724,-2.60951 13.71578,-11.06737 3.90919,-0.79674 6.80114,-2.27614 5.19759,-7.88587 5.45274,-0.0306 7.82954,-8.05483 1.74263,-12.08095 4.68256,-0.58331 10.90707,-8.31332 2.28519,-12.29087 1.04892,-4.55057 3.51315,-9.38224 -0.78875,-12.8692 0.45642,-1.23988 1.89057,-2.63915 -0.17692,-3.46776 l 0.26461,-0.66772 z"
       style="fill:#005b25;fill-opacity:1;stroke:#cddc39;stroke-width:0.24636239px;stroke-linecap:butt;stroke-linejoin:miter;stroke-opacity:0.15083798" />
    <path
       sodipodi:nodetypes="ccccccccccccccscccccccccccccccccccccccccccccccccccccccccccccccccccccccsscscccscccccc"
       inkscape:connector-curvature="0"
       id="path1750-2"
       d="m 12.245342,108.84752 c -3.9482602,-5.29853 -0.96592,-11.69214 0.56696,-17.856723 -8.2309802,-6.462249 -1.16914,-16.433899 3.59078,-16.712064 -5.68235,-6.243883 -2.45052,-17.054684 3.0238,-16.483131 -1.0167,-7.925545 2.04117,-9.642077 6.047621,-10.301958 -0.272441,-11.808013 13.35503,-16.688964 14.93006,-13.735942 3.211791,-7.791005 6.991789,-6.262954 7.748511,-7.325838 1.31984,-2.443813 1.518679,-9.45844 8.504468,-8.470497 1.322951,-2.341558 2.641301,-4.864025 6.80357,-1.373595 2.940941,-7.5618936 13.063421,-7.0594926 11.71726,-4.807578 8.56162,-6.9578566 15.151271,-1.505179 15.11905,0 6.853481,-7.4211226 16.147028,-2.4576806 15.119048,-2.9761216 2.52267,-0.693739 8.15161,1.9736476 8.31548,4.1207826 3.84534,-12.17310962 14.7917,-5.2939406 14.17411,-2.289324 5.76367,-7.2231846 11.1503,-0.457865 11.1503,-0.457865 4.62886,-1.5774316 10.52917,-2.4000466 10.58334,3.891852 10.37472,-1.610265 9.19102,3.135639 10.01636,2.976119 5.7701,-6.703815 11.5288,-0.717995 11.33929,1.144662 9.88762,0.343358 11.72982,10.104958 11.71726,12.591281 5.95076,3.262764 5.40163,12.233941 3.96875,12.591282 8.5164,2.637181 8.27889,9.113525 9.82737,10.301959 0.78552,2.635057 2.06706,4.669267 0.94494,9.615161 4.42824,4.654957 4.12397,9.309915 4.7247,13.964871 0.28464,2.622833 2.94699,4.5256 -0.37798,8.241567 0.85533,4.185002 1.23103,8.15213 -1.88988,10.53089 2.28717,3.696658 5.89678,3.731705 4.91369,16.48313 0.63658,5.96903 1.36355,11.97787 -3.40178,15.56739 6.25638,9.92244 2.88906,12.30162 0.94494,15.79635 -0.70637,3.48572 0.46525,8.05246 -4.91369,8.69943 4.2531,2.13224 4.14854,7.21694 4.91369,13.50701 -4.93848,-1.95614 -11.24709,-10.63965 -8.50447,-10.07302 -1.72713,5.18627 2.37349,13.14731 -7.74849,14.42273 l -4.34673,-2.06038 c 1.32732,5.92693 -2.1159,5.45068 -10.01637,5.49438 l -3.59078,-4.34974 -4.15774,4.34974 -4.34672,0.45786 c -1.58021,3.32553 -2.64704,1.97679 -4.7247,2.28931 -1.52124,1.35744 -2.70553,10.78219 -6.23661,6.63905 l -3.96875,-5.49438 v 0 l 0.37798,5.03651 -3.96875,-0.91573 c -8.86423,2.68577 -12.165,10.75105 -5.10268,-3.43398 l -6.61458,6.63904 c -3.88266,-5.81742 -2.13786,-5.72262 -2.83483,-10.98876 l -5.85863,12.59128 1.13393,-13.04915 -5.10268,7.5548 c -4.09219,-6.25442 -6.3626,-4.12081 -7.55952,-6.868 l 1.70089,8.24157 c -3.5948,-1.60084 -5.05077,-4.80552 -4.72471,-3.89185 v 0 c -1.70089,-0.53417 -3.77976,2.8235 -5.10268,-1.60252 -1.508737,-1.93356 -6.719039,0.94637 -6.425586,-4.80759 -1.557261,1.31633 -3.484232,4.42036 -7.559533,7.55477 0.0461,-5.91852 2.578,-11.54896 2.83482,-12.59129 -0.994539,1.10313 -4.202419,5.8781 -6.047618,5.49439 -6.777679,-0.89423 -6.24466,-1.52112 -8.504459,-6.41012 l -8.693451,5.03652 1.889879,-5.26544 -7.55953,7.78369 c -1.262628,-1.62686 -1.372939,-3.71903 -1.133919,-5.95224 l -4.346731,6.41011 -9.07143,-4.80758 c -0.20959,3.99455 -1.233538,6.01616 -1.88988,8.92836 -0.88588,-3.59852 -3.525819,-6.84293 -1.700889,-10.98874 l -3.96875,5.26544 v 0 c 0.468619,-2.8702 0.98988,-3.99893 -2.555931,-0.79049 0.63708,-1.30523 -0.800449,-1.71683 -0.439719,-2.3525 0.753409,-1.32756 -1.98431,-0.80955 -1.677051,-1.03898 2.08606,-1.5577 0.36336,-5.70882 1.71767,-8.18038 -1.49587,1.43209 -3.037679,4.41003 -4.487129,5.86087 -1.2305,1.23169 -2.50001,0.88326 -2.50543,2.60962 l -1.03943,-4.23525 c 0.50925,-3.98956 -1.739141,-1.35513 -1.606401,-1.717 0.547121,-1.32552 -0.0522,-4.86734 -1.72772,-2.5025 0,0 -2.08167,-5.33819 -3.563949,-6.19693 1.032719,-3.69952 2.347069,-7.67602 5.41187,-11.67554 -2.961531,-2.98457 -4.130021,-7.89116 -11.906251,-6.41011 3.50793,-5.32721 -6.0242302,-12.15906 -6.4255902,-11.90447 l 3.9687502,-10.5309 c -1.98698,-1.37678 -0.39985,-3.14715 0.18899,-4.80758 z"
       style="fill:#04ff69;fill-opacity:1;stroke:#cddc39;stroke-width:0.29120502px;stroke-linecap:butt;stroke-linejoin:miter;stroke-opacity:0.14901961" />
  </g>
</svg>
